<?xml version="1.0" encoding="UTF-8" standalone="no"?>
<!DOCTYPE svg PUBLIC "-//W3C//DTD SVG 1.1//EN"
 "http://www.w3.org/Graphics/SVG/1.1/DTD/svg11.dtd">
<!-- Generated by graphviz version 2.36.0 (20140111.2315)
 -->
<!-- Title: roulette.Wheel.spin Pages: 1 -->
<svg width="296pt" height="66pt"
 viewBox="0.00 0.00 296.00 66.00" xmlns="http://www.w3.org/2000/svg" xmlns:xlink="http://www.w3.org/1999/xlink">
<g id="graph0" class="graph" transform="scale(1 1) rotate(0) translate(4 62)">
<title>roulette.Wheel.spin</title>
<polygon fill="white" stroke="none" points="-4,4 -4,-62 292,-62 292,4 -4,4"/>
<!-- Node1 -->
<g id="node1" class="node"><title>Node1</title>
<polygon fill="#bfbfbf" stroke="black" points="0,-19.5 0,-38.5 108,-38.5 108,-19.5 0,-19.5"/>
<text text-anchor="middle" x="54" y="-26.5" font-family="Helvetica,sans-Serif" font-size="10.00">roulette.Wheel.spin</text>
</g>
<!-- Node2 -->
<g id="node2" class="node"><title>Node2</title>
<g id="a_node2"><a xlink:href="../../d6/d07/classroulette_1_1_wheel.html#af6699aa89a029f8b8900f0970db8cdaa" target="_top" xlink:title="roulette.Wheel.getColor">
<polygon fill="white" stroke="black" points="151.5,-38.5 151.5,-57.5 280.5,-57.5 280.5,-38.5 151.5,-38.5"/>
<text text-anchor="middle" x="216" y="-45.5" font-family="Helvetica,sans-Serif" font-size="10.00">roulette.Wheel.getColor</text>
</a>
</g>
</g>
<!-- Node1&#45;&gt;Node2 -->
<g id="edge1" class="edge"><title>Node1&#45;&gt;Node2</title>
<path fill="none" stroke="midnightblue" d="M108.278,-35.3267C118.857,-36.583 130.141,-37.9229 141.262,-39.2436"/>
<polygon fill="midnightblue" stroke="midnightblue" points="141.062,-42.7443 151.405,-40.4481 141.887,-35.7932 141.062,-42.7443"/>
</g>
<!-- Node3 -->
<g id="node3" class="node"><title>Node3</title>
<g id="a_node3"><a xlink:href="../../d6/d07/classroulette_1_1_wheel.html#ac4db6f5f5c751d9944b605c79e20db6a" target="_top" xlink:title="roulette.Wheel.getNumber">
<polygon fill="white" stroke="black" points="144.5,-0.5 144.5,-19.5 287.5,-19.5 287.5,-0.5 144.5,-0.5"/>
<text text-anchor="middle" x="216" y="-7.5" font-family="Helvetica,sans-Serif" font-size="10.00">roulette.Wheel.getNumber</text>
</a>
</g>
</g>
<!-- Node1&#45;&gt;Node3 -->
<g id="edge2" class="edge"><title>Node1&#45;&gt;Node3</title>
<path fill="none" stroke="midnightblue" d="M108.278,-22.6733C116.666,-21.6772 125.497,-20.6285 134.339,-19.5785"/>
<polygon fill="midnightblue" stroke="midnightblue" points="134.786,-23.0501 144.303,-18.3953 133.96,-16.099 134.786,-23.0501"/>
</g>
</g>
</svg>
