<?xml version="1.0" encoding="UTF-8" standalone="no"?>
<!DOCTYPE svg PUBLIC "-//W3C//DTD SVG 1.1//EN"
 "http://www.w3.org/Graphics/SVG/1.1/DTD/svg11.dtd">
<!-- Generated by graphviz version 2.36.0 (20140111.2315)
 -->
<!-- Title: roulette.Wheel.getNumber Pages: 1 -->
<svg width="470pt" height="104pt"
 viewBox="0.00 0.00 470.00 104.00" xmlns="http://www.w3.org/2000/svg" xmlns:xlink="http://www.w3.org/1999/xlink">
<g id="graph0" class="graph" transform="scale(1 1) rotate(0) translate(4 100)">
<title>roulette.Wheel.getNumber</title>
<polygon fill="white" stroke="none" points="-4,4 -4,-100 466,-100 466,4 -4,4"/>
<!-- Node1 -->
<g id="node1" class="node"><title>Node1</title>
<polygon fill="#bfbfbf" stroke="black" points="0.5,-38.5 0.5,-57.5 143.5,-57.5 143.5,-38.5 0.5,-38.5"/>
<text text-anchor="middle" x="72" y="-45.5" font-family="Helvetica,sans-Serif" font-size="10.00">roulette.Wheel.getNumber</text>
</g>
<!-- Node2 -->
<g id="node2" class="node"><title>Node2</title>
<g id="a_node2"><a xlink:href="../../d9/d60/classroulette_1_1_odd_even.html#abf05030be6c87b4855162c1e713edb99" target="_top" xlink:title="roulette.OddEven.isMade">
<polygon fill="white" stroke="black" points="201.5,-76.5 201.5,-95.5 338.5,-95.5 338.5,-76.5 201.5,-76.5"/>
<text text-anchor="middle" x="270" y="-83.5" font-family="Helvetica,sans-Serif" font-size="10.00">roulette.OddEven.isMade</text>
</a>
</g>
</g>
<!-- Node1&#45;&gt;Node2 -->
<g id="edge1" class="edge"><title>Node1&#45;&gt;Node2</title>
<path fill="none" stroke="midnightblue" d="M132.261,-59.4894C160.227,-64.9114 193.209,-71.3058 219.774,-76.4561"/>
<polygon fill="midnightblue" stroke="midnightblue" points="132.689,-56.0073 122.206,-57.54 131.357,-62.8794 132.689,-56.0073"/>
</g>
<!-- Node3 -->
<g id="node3" class="node"><title>Node3</title>
<g id="a_node3"><a xlink:href="../../d0/d9b/classroulette_1_1_three_consecutive.html#a1b3dad3c54b80bba9d8090938b51e7dd" target="_top" xlink:title="roulette.ThreeConsecutive.isMade">
<polygon fill="white" stroke="black" points="180.5,-38.5 180.5,-57.5 359.5,-57.5 359.5,-38.5 180.5,-38.5"/>
<text text-anchor="middle" x="270" y="-45.5" font-family="Helvetica,sans-Serif" font-size="10.00">roulette.ThreeConsecutive.isMade</text>
</a>
</g>
</g>
<!-- Node1&#45;&gt;Node3 -->
<g id="edge2" class="edge"><title>Node1&#45;&gt;Node3</title>
<path fill="none" stroke="midnightblue" d="M153.872,-48C162.573,-48 171.46,-48 180.247,-48"/>
<polygon fill="midnightblue" stroke="midnightblue" points="153.761,-44.5001 143.76,-48 153.76,-51.5001 153.761,-44.5001"/>
</g>
<!-- Node4 -->
<g id="node4" class="node"><title>Node4</title>
<g id="a_node4"><a xlink:href="../../d5/d79/classroulette_1_1_game.html#a6634aba4f39043dda3c6bcfa5229971e" target="_top" xlink:title="roulette.Game.play">
<polygon fill="white" stroke="black" points="215.5,-0.5 215.5,-19.5 324.5,-19.5 324.5,-0.5 215.5,-0.5"/>
<text text-anchor="middle" x="270" y="-7.5" font-family="Helvetica,sans-Serif" font-size="10.00">roulette.Game.play</text>
</a>
</g>
</g>
<!-- Node1&#45;&gt;Node4 -->
<g id="edge3" class="edge"><title>Node1&#45;&gt;Node4</title>
<path fill="none" stroke="midnightblue" d="M132.261,-36.5106C160.227,-31.0886 193.209,-24.6942 219.774,-19.5439"/>
<polygon fill="midnightblue" stroke="midnightblue" points="131.357,-33.1206 122.206,-38.46 132.689,-39.9927 131.357,-33.1206"/>
</g>
<!-- Node5 -->
<g id="node5" class="node"><title>Node5</title>
<g id="a_node5"><a xlink:href="../../d0/d4b/class_main.html#a8a5d0f827edddff706cc0e6740d0579a" target="_top" xlink:title="Main.main">
<polygon fill="white" stroke="black" points="396,-0.5 396,-19.5 462,-19.5 462,-0.5 396,-0.5"/>
<text text-anchor="middle" x="429" y="-7.5" font-family="Helvetica,sans-Serif" font-size="10.00">Main.main</text>
</a>
</g>
</g>
<!-- Node4&#45;&gt;Node5 -->
<g id="edge4" class="edge"><title>Node4&#45;&gt;Node5</title>
<path fill="none" stroke="midnightblue" d="M334.732,-10C355.682,-10 378.089,-10 395.688,-10"/>
<polygon fill="midnightblue" stroke="midnightblue" points="334.591,-6.5001 324.591,-10 334.591,-13.5001 334.591,-6.5001"/>
</g>
</g>
</svg>
