<?xml version="1.0" encoding="UTF-8" standalone="no"?>
<!DOCTYPE svg PUBLIC "-//W3C//DTD SVG 1.1//EN"
 "http://www.w3.org/Graphics/SVG/1.1/DTD/svg11.dtd">
<!-- Generated by graphviz version 2.36.0 (20140111.2315)
 -->
<!-- Title: roulette.Wheel.getColor Pages: 1 -->
<svg width="562pt" height="47pt"
 viewBox="0.00 0.00 562.00 47.00" xmlns="http://www.w3.org/2000/svg" xmlns:xlink="http://www.w3.org/1999/xlink">
<g id="graph0" class="graph" transform="scale(1 1) rotate(0) translate(4 43)">
<title>roulette.Wheel.getColor</title>
<polygon fill="white" stroke="none" points="-4,4 -4,-43 558,-43 558,4 -4,4"/>
<!-- Node1 -->
<g id="node1" class="node"><title>Node1</title>
<polygon fill="#bfbfbf" stroke="black" points="0.5,-0.5 0.5,-19.5 129.5,-19.5 129.5,-0.5 0.5,-0.5"/>
<text text-anchor="middle" x="65" y="-7.5" font-family="Helvetica,sans-Serif" font-size="10.00">roulette.Wheel.getColor</text>
</g>
<!-- Node2 -->
<g id="node2" class="node"><title>Node2</title>
<g id="a_node2"><a xlink:href="../../d5/d79/classroulette_1_1_game.html#a6c9017ccc8b95e0f5fb69681e78d9cac" target="_top" xlink:title="roulette.Game.betIsMade">
<polygon fill="white" stroke="black" points="166.5,-19.5 166.5,-38.5 305.5,-38.5 305.5,-19.5 166.5,-19.5"/>
<text text-anchor="middle" x="236" y="-26.5" font-family="Helvetica,sans-Serif" font-size="10.00">roulette.Game.betIsMade</text>
</a>
</g>
</g>
<!-- Node1&#45;&gt;Node2 -->
<g id="edge1" class="edge"><title>Node1&#45;&gt;Node2</title>
<path fill="none" stroke="midnightblue" d="M140.022,-18.322C148.73,-19.3011 157.589,-20.297 166.221,-21.2675"/>
<polygon fill="midnightblue" stroke="midnightblue" points="140.22,-14.8223 129.892,-17.1831 139.438,-21.7785 140.22,-14.8223"/>
</g>
<!-- Node3 -->
<g id="node3" class="node"><title>Node3</title>
<g id="a_node3"><a xlink:href="../../d5/d79/classroulette_1_1_game.html#a6634aba4f39043dda3c6bcfa5229971e" target="_top" xlink:title="roulette.Game.play">
<polygon fill="white" stroke="black" points="342.5,-0.5 342.5,-19.5 451.5,-19.5 451.5,-0.5 342.5,-0.5"/>
<text text-anchor="middle" x="397" y="-7.5" font-family="Helvetica,sans-Serif" font-size="10.00">roulette.Game.play</text>
</a>
</g>
</g>
<!-- Node1&#45;&gt;Node3 -->
<g id="edge4" class="edge"><title>Node1&#45;&gt;Node3</title>
<path fill="none" stroke="midnightblue" d="M139.654,-10C201.124,-10 287.292,-10 342.383,-10"/>
<polygon fill="midnightblue" stroke="midnightblue" points="139.627,-6.5001 129.627,-10 139.627,-13.5001 139.627,-6.5001"/>
</g>
<!-- Node2&#45;&gt;Node3 -->
<g id="edge2" class="edge"><title>Node2&#45;&gt;Node3</title>
<path fill="none" stroke="midnightblue" d="M315.92,-19.5693C324.895,-18.4968 333.88,-17.4231 342.417,-16.4029"/>
<polygon fill="midnightblue" stroke="midnightblue" points="315.329,-16.1149 305.815,-20.7768 316.16,-23.0655 315.329,-16.1149"/>
</g>
<!-- Node4 -->
<g id="node4" class="node"><title>Node4</title>
<g id="a_node4"><a xlink:href="../../d0/d4b/class_main.html#a8a5d0f827edddff706cc0e6740d0579a" target="_top" xlink:title="Main.main">
<polygon fill="white" stroke="black" points="488,-0.5 488,-19.5 554,-19.5 554,-0.5 488,-0.5"/>
<text text-anchor="middle" x="521" y="-7.5" font-family="Helvetica,sans-Serif" font-size="10.00">Main.main</text>
</a>
</g>
</g>
<!-- Node3&#45;&gt;Node4 -->
<g id="edge3" class="edge"><title>Node3&#45;&gt;Node4</title>
<path fill="none" stroke="midnightblue" d="M461.751,-10C470.828,-10 479.824,-10 487.932,-10"/>
<polygon fill="midnightblue" stroke="midnightblue" points="461.511,-6.5001 451.511,-10 461.511,-13.5001 461.511,-6.5001"/>
</g>
</g>
</svg>
