<?xml version="1.0" encoding="UTF-8" standalone="no"?>
<!DOCTYPE svg PUBLIC "-//W3C//DTD SVG 1.1//EN"
 "http://www.w3.org/Graphics/SVG/1.1/DTD/svg11.dtd">
<!-- Generated by graphviz version 2.36.0 (20140111.2315)
 -->
<!-- Title: roulette.Wheel.getColor Pages: 1 -->
<svg width="414pt" height="66pt"
 viewBox="0.00 0.00 414.00 66.00" xmlns="http://www.w3.org/2000/svg" xmlns:xlink="http://www.w3.org/1999/xlink">
<g id="graph0" class="graph" transform="scale(1 1) rotate(0) translate(4 62)">
<title>roulette.Wheel.getColor</title>
<polygon fill="white" stroke="none" points="-4,4 -4,-62 410,-62 410,4 -4,4"/>
<!-- Node1 -->
<g id="node1" class="node"><title>Node1</title>
<polygon fill="#bfbfbf" stroke="black" points="0.5,-19.5 0.5,-38.5 129.5,-38.5 129.5,-19.5 0.5,-19.5"/>
<text text-anchor="middle" x="65" y="-26.5" font-family="Helvetica,sans-Serif" font-size="10.00">roulette.Wheel.getColor</text>
</g>
<!-- Node2 -->
<g id="node2" class="node"><title>Node2</title>
<g id="a_node2"><a xlink:href="../../d4/d0a/classroulette_1_1_red_black.html#a3677946baf1541c4a81e66d9732f3397" target="_top" xlink:title="roulette.RedBlack.isMade">
<polygon fill="white" stroke="black" points="166.5,-38.5 166.5,-57.5 303.5,-57.5 303.5,-38.5 166.5,-38.5"/>
<text text-anchor="middle" x="235" y="-45.5" font-family="Helvetica,sans-Serif" font-size="10.00">roulette.RedBlack.isMade</text>
</a>
</g>
</g>
<!-- Node1&#45;&gt;Node2 -->
<g id="edge1" class="edge"><title>Node1&#45;&gt;Node2</title>
<path fill="none" stroke="midnightblue" d="M139.535,-37.3165C148.492,-38.3295 157.61,-39.3607 166.474,-40.3631"/>
<polygon fill="midnightblue" stroke="midnightblue" points="139.844,-33.8291 129.514,-36.1831 139.057,-40.7848 139.844,-33.8291"/>
</g>
<!-- Node3 -->
<g id="node3" class="node"><title>Node3</title>
<g id="a_node3"><a xlink:href="../../d5/d79/classroulette_1_1_game.html#a6634aba4f39043dda3c6bcfa5229971e" target="_top" xlink:title="roulette.Game.play">
<polygon fill="white" stroke="black" points="180.5,-0.5 180.5,-19.5 289.5,-19.5 289.5,-0.5 180.5,-0.5"/>
<text text-anchor="middle" x="235" y="-7.5" font-family="Helvetica,sans-Serif" font-size="10.00">roulette.Game.play</text>
</a>
</g>
</g>
<!-- Node1&#45;&gt;Node3 -->
<g id="edge2" class="edge"><title>Node1&#45;&gt;Node3</title>
<path fill="none" stroke="midnightblue" d="M139.824,-20.6508C153.431,-19.1119 167.4,-17.5321 180.273,-16.0762"/>
<polygon fill="midnightblue" stroke="midnightblue" points="139.057,-17.2152 129.514,-21.8169 139.844,-24.1709 139.057,-17.2152"/>
</g>
<!-- Node4 -->
<g id="node4" class="node"><title>Node4</title>
<g id="a_node4"><a xlink:href="../../d0/d4b/class_main.html#a8a5d0f827edddff706cc0e6740d0579a" target="_top" xlink:title="Main.main">
<polygon fill="white" stroke="black" points="340,-0.5 340,-19.5 406,-19.5 406,-0.5 340,-0.5"/>
<text text-anchor="middle" x="373" y="-7.5" font-family="Helvetica,sans-Serif" font-size="10.00">Main.main</text>
</a>
</g>
</g>
<!-- Node3&#45;&gt;Node4 -->
<g id="edge3" class="edge"><title>Node3&#45;&gt;Node4</title>
<path fill="none" stroke="midnightblue" d="M299.778,-10C313.651,-10 327.759,-10 339.781,-10"/>
<polygon fill="midnightblue" stroke="midnightblue" points="299.751,-6.5001 289.751,-10 299.751,-13.5001 299.751,-6.5001"/>
</g>
</g>
</svg>
