<?xml version="1.0" encoding="UTF-8" standalone="no"?>
<!DOCTYPE svg PUBLIC "-//W3C//DTD SVG 1.1//EN"
 "http://www.w3.org/Graphics/SVG/1.1/DTD/svg11.dtd">
<!-- Generated by graphviz version 2.36.0 (20140111.2315)
 -->
<!-- Title: roulette.Wheel.getNumber Pages: 1 -->
<svg width="576pt" height="47pt"
 viewBox="0.00 0.00 576.00 47.00" xmlns="http://www.w3.org/2000/svg" xmlns:xlink="http://www.w3.org/1999/xlink">
<g id="graph0" class="graph" transform="scale(1 1) rotate(0) translate(4 43)">
<title>roulette.Wheel.getNumber</title>
<polygon fill="white" stroke="none" points="-4,4 -4,-43 572,-43 572,4 -4,4"/>
<!-- Node1 -->
<g id="node1" class="node"><title>Node1</title>
<polygon fill="#bfbfbf" stroke="black" points="0.5,-0.5 0.5,-19.5 143.5,-19.5 143.5,-0.5 0.5,-0.5"/>
<text text-anchor="middle" x="72" y="-7.5" font-family="Helvetica,sans-Serif" font-size="10.00">roulette.Wheel.getNumber</text>
</g>
<!-- Node2 -->
<g id="node2" class="node"><title>Node2</title>
<g id="a_node2"><a xlink:href="../../d5/d79/classroulette_1_1_game.html#a6c9017ccc8b95e0f5fb69681e78d9cac" target="_top" xlink:title="roulette.Game.betIsMade">
<polygon fill="white" stroke="black" points="180.5,-19.5 180.5,-38.5 319.5,-38.5 319.5,-19.5 180.5,-19.5"/>
<text text-anchor="middle" x="250" y="-26.5" font-family="Helvetica,sans-Serif" font-size="10.00">roulette.Game.betIsMade</text>
</a>
</g>
</g>
<!-- Node1&#45;&gt;Node2 -->
<g id="edge1" class="edge"><title>Node1&#45;&gt;Node2</title>
<path fill="none" stroke="midnightblue" d="M153.618,-18.7031C162.573,-19.6698 171.631,-20.6476 180.416,-21.5961"/>
<polygon fill="midnightblue" stroke="midnightblue" points="153.89,-15.2122 143.572,-17.6185 153.138,-22.1717 153.89,-15.2122"/>
</g>
<!-- Node3 -->
<g id="node3" class="node"><title>Node3</title>
<g id="a_node3"><a xlink:href="../../d5/d79/classroulette_1_1_game.html#a6634aba4f39043dda3c6bcfa5229971e" target="_top" xlink:title="roulette.Game.play">
<polygon fill="white" stroke="black" points="356.5,-0.5 356.5,-19.5 465.5,-19.5 465.5,-0.5 356.5,-0.5"/>
<text text-anchor="middle" x="411" y="-7.5" font-family="Helvetica,sans-Serif" font-size="10.00">roulette.Game.play</text>
</a>
</g>
</g>
<!-- Node1&#45;&gt;Node3 -->
<g id="edge4" class="edge"><title>Node1&#45;&gt;Node3</title>
<path fill="none" stroke="midnightblue" d="M153.904,-10C216.624,-10 301.775,-10 356.317,-10"/>
<polygon fill="midnightblue" stroke="midnightblue" points="153.646,-6.5001 143.646,-10 153.646,-13.5001 153.646,-6.5001"/>
</g>
<!-- Node2&#45;&gt;Node3 -->
<g id="edge2" class="edge"><title>Node2&#45;&gt;Node3</title>
<path fill="none" stroke="midnightblue" d="M329.92,-19.5693C338.895,-18.4968 347.88,-17.4231 356.417,-16.4029"/>
<polygon fill="midnightblue" stroke="midnightblue" points="329.329,-16.1149 319.815,-20.7768 330.16,-23.0655 329.329,-16.1149"/>
</g>
<!-- Node4 -->
<g id="node4" class="node"><title>Node4</title>
<g id="a_node4"><a xlink:href="../../d0/d4b/class_main.html#a8a5d0f827edddff706cc0e6740d0579a" target="_top" xlink:title="Main.main">
<polygon fill="white" stroke="black" points="502,-0.5 502,-19.5 568,-19.5 568,-0.5 502,-0.5"/>
<text text-anchor="middle" x="535" y="-7.5" font-family="Helvetica,sans-Serif" font-size="10.00">Main.main</text>
</a>
</g>
</g>
<!-- Node3&#45;&gt;Node4 -->
<g id="edge3" class="edge"><title>Node3&#45;&gt;Node4</title>
<path fill="none" stroke="midnightblue" d="M475.751,-10C484.828,-10 493.824,-10 501.932,-10"/>
<polygon fill="midnightblue" stroke="midnightblue" points="475.511,-6.5001 465.511,-10 475.511,-13.5001 475.511,-6.5001"/>
</g>
</g>
</svg>
