<?xml version="1.0" encoding="UTF-8" standalone="no"?>
<!DOCTYPE svg PUBLIC "-//W3C//DTD SVG 1.1//EN"
 "http://www.w3.org/Graphics/SVG/1.1/DTD/svg11.dtd">
<!-- Generated by graphviz version 2.36.0 (20140111.2315)
 -->
<!-- Title: roulette.Wheel.getColor Pages: 1 -->
<svg width="530pt" height="28pt"
 viewBox="0.00 0.00 530.00 28.00" xmlns="http://www.w3.org/2000/svg" xmlns:xlink="http://www.w3.org/1999/xlink">
<g id="graph0" class="graph" transform="scale(1 1) rotate(0) translate(4 24)">
<title>roulette.Wheel.getColor</title>
<polygon fill="white" stroke="none" points="-4,4 -4,-24 526,-24 526,4 -4,4"/>
<!-- Node1 -->
<g id="node1" class="node"><title>Node1</title>
<polygon fill="#bfbfbf" stroke="black" points="0.5,-0.5 0.5,-19.5 129.5,-19.5 129.5,-0.5 0.5,-0.5"/>
<text text-anchor="middle" x="65" y="-7.5" font-family="Helvetica,sans-Serif" font-size="10.00">roulette.Wheel.getColor</text>
</g>
<!-- Node2 -->
<g id="node2" class="node"><title>Node2</title>
<g id="a_node2"><a xlink:href="../../d6/d07/classroulette_1_1_wheel.html#a554d8a363350e9dcfc3821556b2dee0e" target="_top" xlink:title="roulette.Wheel.spin">
<polygon fill="white" stroke="black" points="166,-0.5 166,-19.5 274,-19.5 274,-0.5 166,-0.5"/>
<text text-anchor="middle" x="220" y="-7.5" font-family="Helvetica,sans-Serif" font-size="10.00">roulette.Wheel.spin</text>
</a>
</g>
</g>
<!-- Node1&#45;&gt;Node2 -->
<g id="edge1" class="edge"><title>Node1&#45;&gt;Node2</title>
<path fill="none" stroke="midnightblue" d="M139.747,-10C148.47,-10 157.24,-10 165.604,-10"/>
<polygon fill="midnightblue" stroke="midnightblue" points="139.557,-6.5001 129.557,-10 139.557,-13.5001 139.557,-6.5001"/>
</g>
<!-- Node3 -->
<g id="node3" class="node"><title>Node3</title>
<g id="a_node3"><a xlink:href="../../d5/d79/classroulette_1_1_game.html#a6634aba4f39043dda3c6bcfa5229971e" target="_top" xlink:title="roulette.Game.play">
<polygon fill="white" stroke="black" points="310.5,-0.5 310.5,-19.5 419.5,-19.5 419.5,-0.5 310.5,-0.5"/>
<text text-anchor="middle" x="365" y="-7.5" font-family="Helvetica,sans-Serif" font-size="10.00">roulette.Game.play</text>
</a>
</g>
</g>
<!-- Node2&#45;&gt;Node3 -->
<g id="edge2" class="edge"><title>Node2&#45;&gt;Node3</title>
<path fill="none" stroke="midnightblue" d="M284.3,-10C292.953,-10 301.769,-10 310.231,-10"/>
<polygon fill="midnightblue" stroke="midnightblue" points="284.248,-6.5001 274.248,-10 284.248,-13.5001 284.248,-6.5001"/>
</g>
<!-- Node4 -->
<g id="node4" class="node"><title>Node4</title>
<g id="a_node4"><a xlink:href="../../d0/d4b/class_main.html#a8a5d0f827edddff706cc0e6740d0579a" target="_top" xlink:title="Main.main">
<polygon fill="white" stroke="black" points="456,-0.5 456,-19.5 522,-19.5 522,-0.5 456,-0.5"/>
<text text-anchor="middle" x="489" y="-7.5" font-family="Helvetica,sans-Serif" font-size="10.00">Main.main</text>
</a>
</g>
</g>
<!-- Node3&#45;&gt;Node4 -->
<g id="edge3" class="edge"><title>Node3&#45;&gt;Node4</title>
<path fill="none" stroke="midnightblue" d="M429.751,-10C438.828,-10 447.824,-10 455.932,-10"/>
<polygon fill="midnightblue" stroke="midnightblue" points="429.511,-6.5001 419.511,-10 429.511,-13.5001 429.511,-6.5001"/>
</g>
</g>
</svg>
