<?xml version="1.0" encoding="UTF-8" standalone="no"?>
<!DOCTYPE svg PUBLIC "-//W3C//DTD SVG 1.1//EN"
 "http://www.w3.org/Graphics/SVG/1.1/DTD/svg11.dtd">
<!-- Generated by graphviz version 2.36.0 (20140111.2315)
 -->
<!-- Title: roulette.Bet Pages: 1 -->
<svg width="387pt" height="84pt"
 viewBox="0.00 0.00 387.00 84.00" xmlns="http://www.w3.org/2000/svg" xmlns:xlink="http://www.w3.org/1999/xlink">
<g id="graph0" class="graph" transform="scale(1 1) rotate(0) translate(4 80)">
<title>roulette.Bet</title>
<polygon fill="white" stroke="none" points="-4,4 -4,-80 383,-80 383,4 -4,4"/>
<!-- Node1 -->
<g id="node1" class="node"><title>Node1</title>
<polygon fill="#bfbfbf" stroke="black" points="131,-56.5 131,-75.5 205,-75.5 205,-56.5 131,-56.5"/>
<text text-anchor="middle" x="168" y="-63.5" font-family="Helvetica,sans-Serif" font-size="10.00">roulette.Bet</text>
</g>
<!-- Node2 -->
<g id="node2" class="node"><title>Node2</title>
<g id="a_node2"><a xlink:href="../../d9/d60/classroulette_1_1_odd_even.html" target="_top" xlink:title="roulette.OddEven">
<polygon fill="white" stroke="black" points="0,-0.5 0,-19.5 100,-19.5 100,-0.5 0,-0.5"/>
<text text-anchor="middle" x="50" y="-7.5" font-family="Helvetica,sans-Serif" font-size="10.00">roulette.OddEven</text>
</a>
</g>
</g>
<!-- Node1&#45;&gt;Node2 -->
<g id="edge1" class="edge"><title>Node1&#45;&gt;Node2</title>
<path fill="none" stroke="midnightblue" d="M140.1,-52.2321C118.027,-42.1312 87.8237,-28.3091 68.61,-19.5164"/>
<polygon fill="midnightblue" stroke="midnightblue" points="138.753,-55.4648 149.303,-56.4435 141.666,-49.0997 138.753,-55.4648"/>
</g>
<!-- Node3 -->
<g id="node3" class="node"><title>Node3</title>
<g id="a_node3"><a xlink:href="../../d4/d0a/classroulette_1_1_red_black.html" target="_top" xlink:title="roulette.RedBlack">
<polygon fill="white" stroke="black" points="118,-0.5 118,-19.5 218,-19.5 218,-0.5 118,-0.5"/>
<text text-anchor="middle" x="168" y="-7.5" font-family="Helvetica,sans-Serif" font-size="10.00">roulette.RedBlack</text>
</a>
</g>
</g>
<!-- Node1&#45;&gt;Node3 -->
<g id="edge2" class="edge"><title>Node1&#45;&gt;Node3</title>
<path fill="none" stroke="midnightblue" d="M168,-45.8045C168,-36.9102 168,-26.7798 168,-19.7511"/>
<polygon fill="midnightblue" stroke="midnightblue" points="164.5,-46.083 168,-56.083 171.5,-46.083 164.5,-46.083"/>
</g>
<!-- Node4 -->
<g id="node4" class="node"><title>Node4</title>
<g id="a_node4"><a xlink:href="../../d0/d9b/classroulette_1_1_three_consecutive.html" target="_top" xlink:title="roulette.ThreeConsecutive">
<polygon fill="white" stroke="black" points="236.5,-0.5 236.5,-19.5 379.5,-19.5 379.5,-0.5 236.5,-0.5"/>
<text text-anchor="middle" x="308" y="-7.5" font-family="Helvetica,sans-Serif" font-size="10.00">roulette.ThreeConsecutive</text>
</a>
</g>
</g>
<!-- Node1&#45;&gt;Node4 -->
<g id="edge3" class="edge"><title>Node1&#45;&gt;Node4</title>
<path fill="none" stroke="midnightblue" d="M199.702,-52.772C226,-42.6287 262.716,-28.4669 285.92,-19.5164"/>
<polygon fill="midnightblue" stroke="midnightblue" points="198.254,-49.5792 190.183,-56.4435 200.773,-56.1103 198.254,-49.5792"/>
</g>
</g>
</svg>
