<?xml version="1.0" encoding="UTF-8" standalone="no"?>
<!DOCTYPE svg PUBLIC "-//W3C//DTD SVG 1.1//EN"
 "http://www.w3.org/Graphics/SVG/1.1/DTD/svg11.dtd">
<!-- Generated by graphviz version 2.36.0 (20140111.2315)
 -->
<!-- Title: roulette.Bet Pages: 1 -->
<svg width="458pt" height="84pt"
 viewBox="0.00 0.00 458.00 84.00" xmlns="http://www.w3.org/2000/svg" xmlns:xlink="http://www.w3.org/1999/xlink">
<g id="graph0" class="graph" transform="scale(1 1) rotate(0) translate(4 80)">
<title>roulette.Bet</title>
<polygon fill="white" stroke="none" points="-4,4 -4,-80 454,-80 454,4 -4,4"/>
<!-- Node1 -->
<g id="node1" class="node"><title>Node1</title>
<polygon fill="#bfbfbf" stroke="black" points="167,-56.5 167,-75.5 241,-75.5 241,-56.5 167,-56.5"/>
<text text-anchor="middle" x="204" y="-63.5" font-family="Helvetica,sans-Serif" font-size="10.00">roulette.Bet</text>
</g>
<!-- Node2 -->
<g id="node2" class="node"><title>Node2</title>
<g id="a_node2"><a xlink:href="../../d4/dcd/classroulette_1_1bets_1_1_odd_even.html" target="_top" xlink:title="roulette.bets.OddEven">
<polygon fill="white" stroke="black" points="0,-0.5 0,-19.5 124,-19.5 124,-0.5 0,-0.5"/>
<text text-anchor="middle" x="62" y="-7.5" font-family="Helvetica,sans-Serif" font-size="10.00">roulette.bets.OddEven</text>
</a>
</g>
</g>
<!-- Node1&#45;&gt;Node2 -->
<g id="edge1" class="edge"><title>Node1&#45;&gt;Node2</title>
<path fill="none" stroke="midnightblue" d="M171.845,-52.772C145.172,-42.6287 107.931,-28.4669 84.3951,-19.5164"/>
<polygon fill="midnightblue" stroke="midnightblue" points="170.909,-56.1604 181.5,-56.4435 173.397,-49.6176 170.909,-56.1604"/>
</g>
<!-- Node3 -->
<g id="node3" class="node"><title>Node3</title>
<g id="a_node3"><a xlink:href="../../d0/de1/classroulette_1_1bets_1_1_red_black.html" target="_top" xlink:title="roulette.bets.RedBlack">
<polygon fill="white" stroke="black" points="142,-0.5 142,-19.5 266,-19.5 266,-0.5 142,-0.5"/>
<text text-anchor="middle" x="204" y="-7.5" font-family="Helvetica,sans-Serif" font-size="10.00">roulette.bets.RedBlack</text>
</a>
</g>
</g>
<!-- Node1&#45;&gt;Node3 -->
<g id="edge2" class="edge"><title>Node1&#45;&gt;Node3</title>
<path fill="none" stroke="midnightblue" d="M204,-45.8045C204,-36.9102 204,-26.7798 204,-19.7511"/>
<polygon fill="midnightblue" stroke="midnightblue" points="200.5,-46.083 204,-56.083 207.5,-46.083 200.5,-46.083"/>
</g>
<!-- Node4 -->
<g id="node4" class="node"><title>Node4</title>
<g id="a_node4"><a xlink:href="../../d4/dd1/classroulette_1_1bets_1_1_three_consecutive.html" target="_top" xlink:title="roulette.bets.ThreeConsecutive">
<polygon fill="white" stroke="black" points="283.5,-0.5 283.5,-19.5 450.5,-19.5 450.5,-0.5 283.5,-0.5"/>
<text text-anchor="middle" x="367" y="-7.5" font-family="Helvetica,sans-Serif" font-size="10.00">roulette.bets.ThreeConsecutive</text>
</a>
</g>
</g>
<!-- Node1&#45;&gt;Node4 -->
<g id="edge3" class="edge"><title>Node1&#45;&gt;Node4</title>
<path fill="none" stroke="midnightblue" d="M239.703,-53.172C270.396,-43.0039 313.919,-28.5852 341.293,-19.5164"/>
<polygon fill="midnightblue" stroke="midnightblue" points="238.22,-49.9762 229.828,-56.4435 240.421,-56.6211 238.22,-49.9762"/>
</g>
</g>
</svg>
