<?xml version="1.0" encoding="UTF-8" standalone="no"?>
<!DOCTYPE svg PUBLIC "-//W3C//DTD SVG 1.1//EN"
 "http://www.w3.org/Graphics/SVG/1.1/DTD/svg11.dtd">
<!-- Generated by graphviz version 2.36.0 (20140111.2315)
 -->
<!-- Title: roulette.Game Pages: 1 -->
<svg width="213pt" height="164pt"
 viewBox="0.00 0.00 213.00 164.00" xmlns="http://www.w3.org/2000/svg" xmlns:xlink="http://www.w3.org/1999/xlink">
<g id="graph0" class="graph" transform="scale(1 1) rotate(0) translate(4 160)">
<title>roulette.Game</title>
<polygon fill="white" stroke="none" points="-4,4 -4,-160 209,-160 209,4 -4,4"/>
<!-- Node1 -->
<g id="node1" class="node"><title>Node1</title>
<polygon fill="#bfbfbf" stroke="black" points="63,-0.5 63,-19.5 149,-19.5 149,-0.5 63,-0.5"/>
<text text-anchor="middle" x="106" y="-7.5" font-family="Helvetica,sans-Serif" font-size="10.00">roulette.Game</text>
</g>
<!-- Node2 -->
<g id="node2" class="node"><title>Node2</title>
<g id="a_node2"><a xlink:href="../../d6/d07/classroulette_1_1_wheel.html" target="_top" xlink:title="roulette.Wheel">
<polygon fill="white" stroke="black" points="0,-68.5 0,-87.5 86,-87.5 86,-68.5 0,-68.5"/>
<text text-anchor="middle" x="43" y="-75.5" font-family="Helvetica,sans-Serif" font-size="10.00">roulette.Wheel</text>
</a>
</g>
</g>
<!-- Node2&#45;&gt;Node1 -->
<g id="edge1" class="edge"><title>Node2&#45;&gt;Node1</title>
<path fill="none" stroke="#9a32cd" stroke-dasharray="5,2" d="M52.8479,-59.451C57.2765,-52.3692 62.8835,-44.3815 69,-38 75.7131,-30.9961 84.4309,-24.5358 91.718,-19.6916"/>
<polygon fill="#9a32cd" stroke="#9a32cd" points="49.6853,-57.9227 47.6021,-68.3107 55.7087,-61.4892 49.6853,-57.9227"/>
<text text-anchor="middle" x="92.5" y="-41.5" font-family="Helvetica,sans-Serif" font-size="10.00"> myWheel</text>
</g>
<!-- Node3 -->
<g id="node3" class="node"><title>Node3</title>
<polygon fill="white" stroke="#bfbfbf" points="15,-136.5 15,-155.5 71,-155.5 71,-136.5 15,-136.5"/>
<text text-anchor="middle" x="43" y="-143.5" font-family="Helvetica,sans-Serif" font-size="10.00">Random</text>
</g>
<!-- Node3&#45;&gt;Node2 -->
<g id="edge2" class="edge"><title>Node3&#45;&gt;Node2</title>
<path fill="none" stroke="#9a32cd" stroke-dasharray="5,2" d="M43,-126.041C43,-113.472 43,-97.5631 43,-87.8411"/>
<polygon fill="#9a32cd" stroke="#9a32cd" points="39.5001,-126.372 43,-136.372 46.5001,-126.372 39.5001,-126.372"/>
<text text-anchor="middle" x="65" y="-109.5" font-family="Helvetica,sans-Serif" font-size="10.00"> myRoller</text>
</g>
<!-- Node4 -->
<g id="node4" class="node"><title>Node4</title>
<g id="a_node4"><a xlink:href="../../d1/daa/classroulette_1_1_bet.html" target="_top" xlink:title="roulette.Bet">
<polygon fill="white" stroke="black" points="104,-68.5 104,-87.5 178,-87.5 178,-68.5 104,-68.5"/>
<text text-anchor="middle" x="141" y="-75.5" font-family="Helvetica,sans-Serif" font-size="10.00">roulette.Bet</text>
</a>
</g>
</g>
<!-- Node4&#45;&gt;Node1 -->
<g id="edge3" class="edge"><title>Node4&#45;&gt;Node1</title>
<path fill="none" stroke="#9a32cd" stroke-dasharray="5,2" d="M131.553,-59.1859C124.8,-46.4523 116.002,-29.8607 110.688,-19.8411"/>
<polygon fill="#9a32cd" stroke="#9a32cd" points="128.647,-61.1768 136.424,-68.3717 134.831,-57.8972 128.647,-61.1768"/>
<text text-anchor="middle" x="165.5" y="-41.5" font-family="Helvetica,sans-Serif" font-size="10.00"> myPossibleBets</text>
</g>
</g>
</svg>
