<?xml version="1.0" encoding="UTF-8" standalone="no"?>
<!DOCTYPE svg PUBLIC "-//W3C//DTD SVG 1.1//EN"
 "http://www.w3.org/Graphics/SVG/1.1/DTD/svg11.dtd">
<!-- Generated by graphviz version 2.36.0 (20140111.2315)
 -->
<!-- Title: roulette.Wheel.SpinResult.toString Pages: 1 -->
<svg width="354pt" height="87pt"
 viewBox="0.00 0.00 354.00 87.00" xmlns="http://www.w3.org/2000/svg" xmlns:xlink="http://www.w3.org/1999/xlink">
<g id="graph0" class="graph" transform="scale(1 1) rotate(0) translate(4 83)">
<title>roulette.Wheel.SpinResult.toString</title>
<polygon fill="white" stroke="none" points="-4,4 -4,-83 350,-83 350,4 -4,4"/>
<!-- Node1 -->
<g id="node1" class="node"><title>Node1</title>
<polygon fill="#bfbfbf" stroke="black" points="0.5,-24 0.5,-54 151.5,-54 151.5,-24 0.5,-24"/>
<text text-anchor="start" x="8.5" y="-42" font-family="Helvetica,sans-Serif" font-size="10.00">roulette.Wheel.SpinResult.to</text>
<text text-anchor="middle" x="76" y="-31" font-family="Helvetica,sans-Serif" font-size="10.00">String</text>
</g>
<!-- Node2 -->
<g id="node2" class="node"><title>Node2</title>
<g id="a_node2"><a xlink:href="../../d6/d16/classroulette_1_1_wheel_1_1_spin_result.html#af2b82036b8f9c649dcb6ca990f0a6f9d" target="_top" xlink:title="roulette.Wheel.SpinResult.get\lColor">
<polygon fill="white" stroke="black" points="188.5,-49 188.5,-79 345.5,-79 345.5,-49 188.5,-49"/>
<text text-anchor="start" x="196.5" y="-67" font-family="Helvetica,sans-Serif" font-size="10.00">roulette.Wheel.SpinResult.get</text>
<text text-anchor="middle" x="267" y="-56" font-family="Helvetica,sans-Serif" font-size="10.00">Color</text>
</a>
</g>
</g>
<!-- Node1&#45;&gt;Node2 -->
<g id="edge1" class="edge"><title>Node1&#45;&gt;Node2</title>
<path fill="none" stroke="midnightblue" d="M151.698,-48.8807C160.469,-50.0409 169.479,-51.2326 178.405,-52.4134"/>
<polygon fill="midnightblue" stroke="midnightblue" points="178.059,-55.898 188.432,-53.7397 178.977,-48.9585 178.059,-55.898"/>
</g>
<!-- Node3 -->
<g id="node3" class="node"><title>Node3</title>
<g id="a_node3"><a xlink:href="../../d6/d16/classroulette_1_1_wheel_1_1_spin_result.html#a82aa9f63997f3e2684a25e620278df2b" target="_top" xlink:title="roulette.Wheel.SpinResult.get\lNumber">
<polygon fill="white" stroke="black" points="188.5,-0 188.5,-30 345.5,-30 345.5,-0 188.5,-0"/>
<text text-anchor="start" x="196.5" y="-18" font-family="Helvetica,sans-Serif" font-size="10.00">roulette.Wheel.SpinResult.get</text>
<text text-anchor="middle" x="267" y="-7" font-family="Helvetica,sans-Serif" font-size="10.00">Number</text>
</a>
</g>
</g>
<!-- Node1&#45;&gt;Node3 -->
<g id="edge2" class="edge"><title>Node1&#45;&gt;Node3</title>
<path fill="none" stroke="midnightblue" d="M151.698,-29.5146C160.469,-28.4008 169.479,-27.2567 178.405,-26.1231"/>
<polygon fill="midnightblue" stroke="midnightblue" points="178.953,-29.5818 188.432,-24.8499 178.071,-22.6376 178.953,-29.5818"/>
</g>
</g>
</svg>
