<?xml version="1.0" encoding="UTF-8" standalone="no"?>
<!DOCTYPE svg PUBLIC "-//W3C//DTD SVG 1.1//EN"
 "http://www.w3.org/Graphics/SVG/1.1/DTD/svg11.dtd">
<!-- Generated by graphviz version 2.36.0 (20140111.2315)
 -->
<!-- Title: roulette.bets.ThreeConsecutive.place Pages: 1 -->
<svg width="756pt" height="38pt"
 viewBox="0.00 0.00 756.00 38.00" xmlns="http://www.w3.org/2000/svg" xmlns:xlink="http://www.w3.org/1999/xlink">
<g id="graph0" class="graph" transform="scale(1 1) rotate(0) translate(4 34)">
<title>roulette.bets.ThreeConsecutive.place</title>
<polygon fill="white" stroke="none" points="-4,4 -4,-34 752,-34 752,4 -4,4"/>
<!-- Node1 -->
<g id="node1" class="node"><title>Node1</title>
<polygon fill="#bfbfbf" stroke="black" points="0.5,-5.5 0.5,-24.5 195.5,-24.5 195.5,-5.5 0.5,-5.5"/>
<text text-anchor="middle" x="98" y="-12.5" font-family="Helvetica,sans-Serif" font-size="10.00">roulette.bets.ThreeConsecutive.place</text>
</g>
<!-- Node2 -->
<g id="node2" class="node"><title>Node2</title>
<g id="a_node2"><a xlink:href="../../dd/d87/classutil_1_1_console_reader.html#ac25a6a9c672f8da0b7f37104d33a6cd5" target="_top" xlink:title="util.ConsoleReader.prompt\lRange">
<polygon fill="white" stroke="black" points="232.5,-0 232.5,-30 375.5,-30 375.5,-0 232.5,-0"/>
<text text-anchor="start" x="240.5" y="-18" font-family="Helvetica,sans-Serif" font-size="10.00">util.ConsoleReader.prompt</text>
<text text-anchor="middle" x="304" y="-7" font-family="Helvetica,sans-Serif" font-size="10.00">Range</text>
</a>
</g>
</g>
<!-- Node1&#45;&gt;Node2 -->
<g id="edge1" class="edge"><title>Node1&#45;&gt;Node2</title>
<path fill="none" stroke="midnightblue" d="M195.623,-15C204.506,-15 213.443,-15 222.164,-15"/>
<polygon fill="midnightblue" stroke="midnightblue" points="222.286,-18.5001 232.286,-15 222.286,-11.5001 222.286,-18.5001"/>
</g>
<!-- Node3 -->
<g id="node3" class="node"><title>Node3</title>
<g id="a_node3"><a xlink:href="../../dd/d87/classutil_1_1_console_reader.html#a501aaaee9e742c28b8731598c964d82e" target="_top" xlink:title="util.ConsoleReader.promptInt">
<polygon fill="white" stroke="black" points="412.5,-5.5 412.5,-24.5 567.5,-24.5 567.5,-5.5 412.5,-5.5"/>
<text text-anchor="middle" x="490" y="-12.5" font-family="Helvetica,sans-Serif" font-size="10.00">util.ConsoleReader.promptInt</text>
</a>
</g>
</g>
<!-- Node2&#45;&gt;Node3 -->
<g id="edge2" class="edge"><title>Node2&#45;&gt;Node3</title>
<path fill="none" stroke="midnightblue" d="M375.613,-15C384.375,-15 393.412,-15 402.38,-15"/>
<polygon fill="midnightblue" stroke="midnightblue" points="402.458,-18.5001 412.458,-15 402.458,-11.5001 402.458,-18.5001"/>
</g>
<!-- Node4 -->
<g id="node4" class="node"><title>Node4</title>
<g id="a_node4"><a xlink:href="../../dd/d87/classutil_1_1_console_reader.html#a1c9f3a0d6f36a1b8366df3c29c97f22a" target="_top" xlink:title="util.ConsoleReader.prompt\lString">
<polygon fill="white" stroke="black" points="604.5,-0 604.5,-30 747.5,-30 747.5,-0 604.5,-0"/>
<text text-anchor="start" x="612.5" y="-18" font-family="Helvetica,sans-Serif" font-size="10.00">util.ConsoleReader.prompt</text>
<text text-anchor="middle" x="676" y="-7" font-family="Helvetica,sans-Serif" font-size="10.00">String</text>
</a>
</g>
</g>
<!-- Node3&#45;&gt;Node4 -->
<g id="edge3" class="edge"><title>Node3&#45;&gt;Node4</title>
<path fill="none" stroke="midnightblue" d="M567.7,-15C576.418,-15 585.324,-15 594.094,-15"/>
<polygon fill="midnightblue" stroke="midnightblue" points="594.306,-18.5001 604.306,-15 594.306,-11.5001 594.306,-18.5001"/>
</g>
</g>
</svg>
