<?xml version="1.0" encoding="UTF-8" standalone="no"?>
<!DOCTYPE svg PUBLIC "-//W3C//DTD SVG 1.1//EN"
 "http://www.w3.org/Graphics/SVG/1.1/DTD/svg11.dtd">
<!-- Generated by graphviz version 2.36.0 (20140111.2315)
 -->
<!-- Title: util.ConsoleReader.promptOneOf Pages: 1 -->
<svg width="316pt" height="66pt"
 viewBox="0.00 0.00 316.00 66.00" xmlns="http://www.w3.org/2000/svg" xmlns:xlink="http://www.w3.org/1999/xlink">
<g id="graph0" class="graph" transform="scale(1 1) rotate(0) translate(4 62)">
<title>util.ConsoleReader.promptOneOf</title>
<polygon fill="white" stroke="none" points="-4,4 -4,-62 312,-62 312,4 -4,4"/>
<!-- Node1 -->
<g id="node1" class="node"><title>Node1</title>
<polygon fill="#bfbfbf" stroke="black" points="0.5,-14 0.5,-44 143.5,-44 143.5,-14 0.5,-14"/>
<text text-anchor="start" x="8.5" y="-32" font-family="Helvetica,sans-Serif" font-size="10.00">util.ConsoleReader.prompt</text>
<text text-anchor="middle" x="72" y="-21" font-family="Helvetica,sans-Serif" font-size="10.00">OneOf</text>
</g>
<!-- Node2 -->
<g id="node2" class="node"><title>Node2</title>
<g id="a_node2"><a xlink:href="../../d9/d60/classroulette_1_1_odd_even.html#a2930bf3e00b15036021ccc037b93e91b" target="_top" xlink:title="roulette.OddEven.place">
<polygon fill="white" stroke="black" points="180,-38.5 180,-57.5 308,-57.5 308,-38.5 180,-38.5"/>
<text text-anchor="middle" x="244" y="-45.5" font-family="Helvetica,sans-Serif" font-size="10.00">roulette.OddEven.place</text>
</a>
</g>
</g>
<!-- Node1&#45;&gt;Node2 -->
<g id="edge1" class="edge"><title>Node1&#45;&gt;Node2</title>
<path fill="none" stroke="midnightblue" d="M153.565,-38.0043C162.417,-38.9937 171.333,-39.9902 179.929,-40.9508"/>
<polygon fill="midnightblue" stroke="midnightblue" points="153.945,-34.5251 143.618,-36.8926 153.168,-41.4818 153.945,-34.5251"/>
</g>
<!-- Node3 -->
<g id="node3" class="node"><title>Node3</title>
<g id="a_node3"><a xlink:href="../../d4/d0a/classroulette_1_1_red_black.html#aec95b75846919a30987af7b1098f5820" target="_top" xlink:title="roulette.RedBlack.place">
<polygon fill="white" stroke="black" points="180,-0.5 180,-19.5 308,-19.5 308,-0.5 180,-0.5"/>
<text text-anchor="middle" x="244" y="-7.5" font-family="Helvetica,sans-Serif" font-size="10.00">roulette.RedBlack.place</text>
</a>
</g>
</g>
<!-- Node1&#45;&gt;Node3 -->
<g id="edge2" class="edge"><title>Node1&#45;&gt;Node3</title>
<path fill="none" stroke="midnightblue" d="M153.565,-19.9957C162.417,-19.0063 171.333,-18.0098 179.929,-17.0492"/>
<polygon fill="midnightblue" stroke="midnightblue" points="153.168,-16.5182 143.618,-21.1074 153.945,-23.4749 153.168,-16.5182"/>
</g>
</g>
</svg>
