<?xml version="1.0" encoding="UTF-8" standalone="no"?>
<!DOCTYPE svg PUBLIC "-//W3C//DTD SVG 1.1//EN"
 "http://www.w3.org/Graphics/SVG/1.1/DTD/svg11.dtd">
<!-- Generated by graphviz version 2.36.0 (20140111.2315)
 -->
<!-- Title: util.ConsoleReader.promptString Pages: 1 -->
<svg width="1012pt" height="159pt"
 viewBox="0.00 0.00 1012.00 159.00" xmlns="http://www.w3.org/2000/svg" xmlns:xlink="http://www.w3.org/1999/xlink">
<g id="graph0" class="graph" transform="scale(1 1) rotate(0) translate(4 155)">
<title>util.ConsoleReader.promptString</title>
<polygon fill="white" stroke="none" points="-4,4 -4,-155 1008,-155 1008,4 -4,4"/>
<!-- Node1 -->
<g id="node1" class="node"><title>Node1</title>
<polygon fill="#bfbfbf" stroke="black" points="0.5,-77 0.5,-107 143.5,-107 143.5,-77 0.5,-77"/>
<text text-anchor="start" x="8.5" y="-95" font-family="Helvetica,sans-Serif" font-size="10.00">util.ConsoleReader.prompt</text>
<text text-anchor="middle" x="72" y="-84" font-family="Helvetica,sans-Serif" font-size="10.00">String</text>
</g>
<!-- Node2 -->
<g id="node2" class="node"><title>Node2</title>
<g id="a_node2"><a xlink:href="../../dd/d87/classutil_1_1_console_reader.html#aae4a1ed775c0f804fd26729f4c7109c6" target="_top" xlink:title="util.ConsoleReader.prompt\lDouble">
<polygon fill="white" stroke="black" points="186.5,-121 186.5,-151 329.5,-151 329.5,-121 186.5,-121"/>
<text text-anchor="start" x="194.5" y="-139" font-family="Helvetica,sans-Serif" font-size="10.00">util.ConsoleReader.prompt</text>
<text text-anchor="middle" x="258" y="-128" font-family="Helvetica,sans-Serif" font-size="10.00">Double</text>
</a>
</g>
</g>
<!-- Node1&#45;&gt;Node2 -->
<g id="edge1" class="edge"><title>Node1&#45;&gt;Node2</title>
<path fill="none" stroke="midnightblue" d="M145.667,-109.377C161.702,-113.211 178.557,-117.242 194.163,-120.974"/>
<polygon fill="midnightblue" stroke="midnightblue" points="146.348,-105.941 135.808,-107.019 144.719,-112.749 146.348,-105.941"/>
</g>
<!-- Node3 -->
<g id="node3" class="node"><title>Node3</title>
<g id="a_node3"><a xlink:href="../../dd/d87/classutil_1_1_console_reader.html#a501aaaee9e742c28b8731598c964d82e" target="_top" xlink:title="util.ConsoleReader.promptInt">
<polygon fill="white" stroke="black" points="180.5,-82.5 180.5,-101.5 335.5,-101.5 335.5,-82.5 180.5,-82.5"/>
<text text-anchor="middle" x="258" y="-89.5" font-family="Helvetica,sans-Serif" font-size="10.00">util.ConsoleReader.promptInt</text>
</a>
</g>
</g>
<!-- Node1&#45;&gt;Node3 -->
<g id="edge2" class="edge"><title>Node1&#45;&gt;Node3</title>
<path fill="none" stroke="midnightblue" d="M153.892,-92C162.719,-92 171.685,-92 180.458,-92"/>
<polygon fill="midnightblue" stroke="midnightblue" points="153.613,-88.5001 143.613,-92 153.613,-95.5001 153.613,-88.5001"/>
</g>
<!-- Node9 -->
<g id="node9" class="node"><title>Node9</title>
<g id="a_node9"><a xlink:href="../../dd/d87/classutil_1_1_console_reader.html#a6b469ca2ba9c0f0e52634a3affb2e9e5" target="_top" xlink:title="util.ConsoleReader.prompt\lOneOf">
<polygon fill="white" stroke="black" points="186.5,-33 186.5,-63 329.5,-63 329.5,-33 186.5,-33"/>
<text text-anchor="start" x="194.5" y="-51" font-family="Helvetica,sans-Serif" font-size="10.00">util.ConsoleReader.prompt</text>
<text text-anchor="middle" x="258" y="-40" font-family="Helvetica,sans-Serif" font-size="10.00">OneOf</text>
</a>
</g>
</g>
<!-- Node1&#45;&gt;Node9 -->
<g id="edge9" class="edge"><title>Node1&#45;&gt;Node9</title>
<path fill="none" stroke="midnightblue" d="M145.667,-74.6231C161.702,-70.7888 178.557,-66.7582 194.163,-63.0262"/>
<polygon fill="midnightblue" stroke="midnightblue" points="144.719,-71.2509 135.808,-76.9808 146.348,-78.059 144.719,-71.2509"/>
</g>
<!-- Node4 -->
<g id="node4" class="node"><title>Node4</title>
<g id="a_node4"><a xlink:href="../../dd/d87/classutil_1_1_console_reader.html#ac25a6a9c672f8da0b7f37104d33a6cd5" target="_top" xlink:title="util.ConsoleReader.prompt\lRange">
<polygon fill="white" stroke="black" points="376.5,-77 376.5,-107 519.5,-107 519.5,-77 376.5,-77"/>
<text text-anchor="start" x="384.5" y="-95" font-family="Helvetica,sans-Serif" font-size="10.00">util.ConsoleReader.prompt</text>
<text text-anchor="middle" x="448" y="-84" font-family="Helvetica,sans-Serif" font-size="10.00">Range</text>
</a>
</g>
</g>
<!-- Node3&#45;&gt;Node4 -->
<g id="edge3" class="edge"><title>Node3&#45;&gt;Node4</title>
<path fill="none" stroke="midnightblue" d="M345.863,-92C356.043,-92 366.335,-92 376.258,-92"/>
<polygon fill="midnightblue" stroke="midnightblue" points="345.738,-88.5001 335.738,-92 345.738,-95.5001 345.738,-88.5001"/>
</g>
<!-- Node5 -->
<g id="node5" class="node"><title>Node5</title>
<g id="a_node5"><a xlink:href="../../d4/dd1/classroulette_1_1bets_1_1_three_consecutive.html#a083867ce700eac57f0e9763d2391adb5" target="_top" xlink:title="roulette.bets.ThreeConsecutive.place">
<polygon fill="white" stroke="black" points="560.5,-120.5 560.5,-139.5 755.5,-139.5 755.5,-120.5 560.5,-120.5"/>
<text text-anchor="middle" x="658" y="-127.5" font-family="Helvetica,sans-Serif" font-size="10.00">roulette.bets.ThreeConsecutive.place</text>
</a>
</g>
</g>
<!-- Node4&#45;&gt;Node5 -->
<g id="edge4" class="edge"><title>Node4&#45;&gt;Node5</title>
<path fill="none" stroke="midnightblue" d="M529.655,-106.735C554.923,-111.351 582.13,-116.322 604.883,-120.479"/>
<polygon fill="midnightblue" stroke="midnightblue" points="530.176,-103.272 519.71,-104.918 528.918,-110.158 530.176,-103.272"/>
</g>
<!-- Node6 -->
<g id="node6" class="node"><title>Node6</title>
<g id="a_node6"><a xlink:href="../../d5/d79/classroulette_1_1_game.html#a6634aba4f39043dda3c6bcfa5229971e" target="_top" xlink:title="roulette.Game.play">
<polygon fill="white" stroke="black" points="792.5,-63.5 792.5,-82.5 901.5,-82.5 901.5,-63.5 792.5,-63.5"/>
<text text-anchor="middle" x="847" y="-70.5" font-family="Helvetica,sans-Serif" font-size="10.00">roulette.Game.play</text>
</a>
</g>
</g>
<!-- Node4&#45;&gt;Node6 -->
<g id="edge5" class="edge"><title>Node4&#45;&gt;Node6</title>
<path fill="none" stroke="midnightblue" d="M529.833,-88.1314C608.187,-84.3815 724.82,-78.7996 792.353,-75.5675"/>
<polygon fill="midnightblue" stroke="midnightblue" points="529.339,-84.6509 519.518,-88.6251 529.674,-91.6429 529.339,-84.6509"/>
</g>
<!-- Node8 -->
<g id="node8" class="node"><title>Node8</title>
<g id="a_node8"><a xlink:href="../../d5/d79/classroulette_1_1_game.html#a49ce7e2f4634c106573e87aea20e1663" target="_top" xlink:title="roulette.Game.promptForBet">
<polygon fill="white" stroke="black" points="580,-44.5 580,-63.5 736,-63.5 736,-44.5 580,-44.5"/>
<text text-anchor="middle" x="658" y="-51.5" font-family="Helvetica,sans-Serif" font-size="10.00">roulette.Game.promptForBet</text>
</a>
</g>
</g>
<!-- Node4&#45;&gt;Node8 -->
<g id="edge7" class="edge"><title>Node4&#45;&gt;Node8</title>
<path fill="none" stroke="midnightblue" d="M529.655,-77.265C554.923,-72.6486 582.13,-67.6781 604.883,-63.5213"/>
<polygon fill="midnightblue" stroke="midnightblue" points="528.918,-73.8416 519.71,-79.0819 530.176,-80.7277 528.918,-73.8416"/>
</g>
<!-- Node7 -->
<g id="node7" class="node"><title>Node7</title>
<g id="a_node7"><a xlink:href="../../d0/d4b/class_main.html#a8a5d0f827edddff706cc0e6740d0579a" target="_top" xlink:title="Main.main">
<polygon fill="white" stroke="black" points="938,-63.5 938,-82.5 1004,-82.5 1004,-63.5 938,-63.5"/>
<text text-anchor="middle" x="971" y="-70.5" font-family="Helvetica,sans-Serif" font-size="10.00">Main.main</text>
</a>
</g>
</g>
<!-- Node6&#45;&gt;Node7 -->
<g id="edge6" class="edge"><title>Node6&#45;&gt;Node7</title>
<path fill="none" stroke="midnightblue" d="M911.751,-73C920.828,-73 929.824,-73 937.932,-73"/>
<polygon fill="midnightblue" stroke="midnightblue" points="911.511,-69.5001 901.511,-73 911.511,-76.5001 911.511,-69.5001"/>
</g>
<!-- Node8&#45;&gt;Node6 -->
<g id="edge8" class="edge"><title>Node8&#45;&gt;Node6</title>
<path fill="none" stroke="midnightblue" d="M746.406,-62.8808C762.108,-64.4762 778.04,-66.095 792.421,-67.5562"/>
<polygon fill="midnightblue" stroke="midnightblue" points="746.442,-59.3666 736.14,-61.8377 745.735,-66.3307 746.442,-59.3666"/>
</g>
<!-- Node10 -->
<g id="node10" class="node"><title>Node10</title>
<g id="a_node10"><a xlink:href="../../d4/dcd/classroulette_1_1bets_1_1_odd_even.html#adbb66f09a09b23512c4e3cc49de54ddc" target="_top" xlink:title="roulette.bets.OddEven.place">
<polygon fill="white" stroke="black" points="372,-38.5 372,-57.5 524,-57.5 524,-38.5 372,-38.5"/>
<text text-anchor="middle" x="448" y="-45.5" font-family="Helvetica,sans-Serif" font-size="10.00">roulette.bets.OddEven.place</text>
</a>
</g>
</g>
<!-- Node9&#45;&gt;Node10 -->
<g id="edge10" class="edge"><title>Node9&#45;&gt;Node10</title>
<path fill="none" stroke="midnightblue" d="M339.717,-48C350.426,-48 361.371,-48 371.979,-48"/>
<polygon fill="midnightblue" stroke="midnightblue" points="339.539,-44.5001 329.539,-48 339.539,-51.5001 339.539,-44.5001"/>
</g>
<!-- Node11 -->
<g id="node11" class="node"><title>Node11</title>
<g id="a_node11"><a xlink:href="../../d0/de1/classroulette_1_1bets_1_1_red_black.html#a034a13e28cf4d0325164cd3a6c2b1aec" target="_top" xlink:title="roulette.bets.RedBlack.place">
<polygon fill="white" stroke="black" points="372,-0.5 372,-19.5 524,-19.5 524,-0.5 372,-0.5"/>
<text text-anchor="middle" x="448" y="-7.5" font-family="Helvetica,sans-Serif" font-size="10.00">roulette.bets.RedBlack.place</text>
</a>
</g>
</g>
<!-- Node9&#45;&gt;Node11 -->
<g id="edge11" class="edge"><title>Node9&#45;&gt;Node11</title>
<path fill="none" stroke="midnightblue" d="M339.535,-31.7217C360.076,-27.5698 381.493,-23.2408 399.752,-19.5501"/>
<polygon fill="midnightblue" stroke="midnightblue" points="338.647,-28.3302 329.539,-33.7421 340.034,-35.1914 338.647,-28.3302"/>
</g>
</g>
</svg>
