<?xml version="1.0" encoding="UTF-8" standalone="no"?>
<!DOCTYPE svg PUBLIC "-//W3C//DTD SVG 1.1//EN"
 "http://www.w3.org/Graphics/SVG/1.1/DTD/svg11.dtd">
<!-- Generated by graphviz version 2.36.0 (20140111.2315)
 -->
<!-- Title: util.ConsoleReader.promptInt Pages: 1 -->
<svg width="784pt" height="80pt"
 viewBox="0.00 0.00 784.00 80.12" xmlns="http://www.w3.org/2000/svg" xmlns:xlink="http://www.w3.org/1999/xlink">
<g id="graph0" class="graph" transform="scale(1 1) rotate(0) translate(4 76.1209)">
<title>util.ConsoleReader.promptInt</title>
<polygon fill="white" stroke="none" points="-4,4 -4,-76.1209 780,-76.1209 780,4 -4,4"/>
<!-- Node1 -->
<g id="node1" class="node"><title>Node1</title>
<polygon fill="#bfbfbf" stroke="black" points="0.5,-38.5 0.5,-57.5 155.5,-57.5 155.5,-38.5 0.5,-38.5"/>
<text text-anchor="middle" x="78" y="-45.5" font-family="Helvetica,sans-Serif" font-size="10.00">util.ConsoleReader.promptInt</text>
</g>
<!-- Node2 -->
<g id="node2" class="node"><title>Node2</title>
<g id="a_node2"><a xlink:href="../../dd/d87/classutil_1_1_console_reader.html#ac25a6a9c672f8da0b7f37104d33a6cd5" target="_top" xlink:title="util.ConsoleReader.prompt\lRange">
<polygon fill="white" stroke="black" points="192.5,-33 192.5,-63 335.5,-63 335.5,-33 192.5,-33"/>
<text text-anchor="start" x="200.5" y="-51" font-family="Helvetica,sans-Serif" font-size="10.00">util.ConsoleReader.prompt</text>
<text text-anchor="middle" x="264" y="-40" font-family="Helvetica,sans-Serif" font-size="10.00">Range</text>
</a>
</g>
</g>
<!-- Node1&#45;&gt;Node2 -->
<g id="edge1" class="edge"><title>Node1&#45;&gt;Node2</title>
<path fill="none" stroke="midnightblue" d="M165.714,-48C174.623,-48 183.6,-48 192.306,-48"/>
<polygon fill="midnightblue" stroke="midnightblue" points="165.7,-44.5001 155.7,-48 165.7,-51.5001 165.7,-44.5001"/>
</g>
<!-- Node3 -->
<g id="node3" class="node"><title>Node3</title>
<g id="a_node3"><a xlink:href="../../d5/d79/classroulette_1_1_game.html#a6634aba4f39043dda3c6bcfa5229971e" target="_top" xlink:title="roulette.Game.play">
<polygon fill="white" stroke="black" points="564.5,-38.5 564.5,-57.5 673.5,-57.5 673.5,-38.5 564.5,-38.5"/>
<text text-anchor="middle" x="619" y="-45.5" font-family="Helvetica,sans-Serif" font-size="10.00">roulette.Game.play</text>
</a>
</g>
</g>
<!-- Node2&#45;&gt;Node3 -->
<g id="edge2" class="edge"><title>Node2&#45;&gt;Node3</title>
<path fill="none" stroke="midnightblue" d="M345.557,-63.8617C354.45,-65.1478 363.397,-66.2421 372,-67 441.066,-73.0844 459.041,-74.1996 528,-67 545.789,-65.1427 565.239,-61.2739 581.492,-57.509"/>
<polygon fill="midnightblue" stroke="midnightblue" points="345.973,-60.3848 335.56,-62.3357 344.917,-67.3047 345.973,-60.3848"/>
</g>
<!-- Node5 -->
<g id="node5" class="node"><title>Node5</title>
<g id="a_node5"><a xlink:href="../../d5/d79/classroulette_1_1_game.html#ab1fc928530a1dc083904ba2ff19e1e8a" target="_top" xlink:title="roulette.Game.promptForBet">
<polygon fill="white" stroke="black" points="372,-38.5 372,-57.5 528,-57.5 528,-38.5 372,-38.5"/>
<text text-anchor="middle" x="450" y="-45.5" font-family="Helvetica,sans-Serif" font-size="10.00">roulette.Game.promptForBet</text>
</a>
</g>
</g>
<!-- Node2&#45;&gt;Node5 -->
<g id="edge4" class="edge"><title>Node2&#45;&gt;Node5</title>
<path fill="none" stroke="midnightblue" d="M345.718,-48C354.395,-48 363.208,-48 371.842,-48"/>
<polygon fill="midnightblue" stroke="midnightblue" points="345.613,-44.5001 335.613,-48 345.613,-51.5001 345.613,-44.5001"/>
</g>
<!-- Node6 -->
<g id="node6" class="node"><title>Node6</title>
<g id="a_node6"><a xlink:href="../../d5/d79/classroulette_1_1_game.html#a01744cfd81ef2acad477be49a93c7ee7" target="_top" xlink:title="roulette.Game.placeBet">
<polygon fill="white" stroke="black" points="384.5,-0.5 384.5,-19.5 515.5,-19.5 515.5,-0.5 384.5,-0.5"/>
<text text-anchor="middle" x="450" y="-7.5" font-family="Helvetica,sans-Serif" font-size="10.00">roulette.Game.placeBet</text>
</a>
</g>
</g>
<!-- Node2&#45;&gt;Node6 -->
<g id="edge6" class="edge"><title>Node2&#45;&gt;Node6</title>
<path fill="none" stroke="midnightblue" d="M345.464,-31.3824C365.054,-27.3367 385.353,-23.1444 402.732,-19.5553"/>
<polygon fill="midnightblue" stroke="midnightblue" points="344.698,-27.9666 335.613,-33.4169 346.114,-34.8219 344.698,-27.9666"/>
</g>
<!-- Node4 -->
<g id="node4" class="node"><title>Node4</title>
<g id="a_node4"><a xlink:href="../../d0/d4b/class_main.html#a8a5d0f827edddff706cc0e6740d0579a" target="_top" xlink:title="Main.main">
<polygon fill="white" stroke="black" points="710,-38.5 710,-57.5 776,-57.5 776,-38.5 710,-38.5"/>
<text text-anchor="middle" x="743" y="-45.5" font-family="Helvetica,sans-Serif" font-size="10.00">Main.main</text>
</a>
</g>
</g>
<!-- Node3&#45;&gt;Node4 -->
<g id="edge3" class="edge"><title>Node3&#45;&gt;Node4</title>
<path fill="none" stroke="midnightblue" d="M683.751,-48C692.828,-48 701.824,-48 709.932,-48"/>
<polygon fill="midnightblue" stroke="midnightblue" points="683.511,-44.5001 673.511,-48 683.511,-51.5001 683.511,-44.5001"/>
</g>
<!-- Node5&#45;&gt;Node3 -->
<g id="edge5" class="edge"><title>Node5&#45;&gt;Node3</title>
<path fill="none" stroke="midnightblue" d="M538.404,-48C547.141,-48 555.82,-48 564.059,-48"/>
<polygon fill="midnightblue" stroke="midnightblue" points="538.145,-44.5001 528.145,-48 538.145,-51.5001 538.145,-44.5001"/>
</g>
<!-- Node6&#45;&gt;Node3 -->
<g id="edge7" class="edge"><title>Node6&#45;&gt;Node3</title>
<path fill="none" stroke="midnightblue" d="M502.965,-21.8243C526.509,-27.1816 553.974,-33.4311 576.162,-38.4799"/>
<polygon fill="midnightblue" stroke="midnightblue" points="503.668,-18.3951 493.141,-19.589 502.115,-25.2206 503.668,-18.3951"/>
</g>
</g>
</svg>
