<?xml version="1.0" encoding="UTF-8" standalone="no"?>
<!DOCTYPE svg PUBLIC "-//W3C//DTD SVG 1.1//EN"
 "http://www.w3.org/Graphics/SVG/1.1/DTD/svg11.dtd">
<!-- Generated by graphviz version 2.36.0 (20140111.2315)
 -->
<!-- Title: util.ConsoleReader.promptInt Pages: 1 -->
<svg width="800pt" height="85pt"
 viewBox="0.00 0.00 800.00 85.00" xmlns="http://www.w3.org/2000/svg" xmlns:xlink="http://www.w3.org/1999/xlink">
<g id="graph0" class="graph" transform="scale(1 1) rotate(0) translate(4 81)">
<title>util.ConsoleReader.promptInt</title>
<polygon fill="white" stroke="none" points="-4,4 -4,-81 796,-81 796,4 -4,4"/>
<!-- Node1 -->
<g id="node1" class="node"><title>Node1</title>
<polygon fill="#bfbfbf" stroke="black" points="0.5,-38.5 0.5,-57.5 155.5,-57.5 155.5,-38.5 0.5,-38.5"/>
<text text-anchor="middle" x="78" y="-45.5" font-family="Helvetica,sans-Serif" font-size="10.00">util.ConsoleReader.promptInt</text>
</g>
<!-- Node2 -->
<g id="node2" class="node"><title>Node2</title>
<g id="a_node2"><a xlink:href="../../dd/d87/classutil_1_1_console_reader.html#ac25a6a9c672f8da0b7f37104d33a6cd5" target="_top" xlink:title="util.ConsoleReader.prompt\lRange">
<polygon fill="white" stroke="black" points="192.5,-33 192.5,-63 335.5,-63 335.5,-33 192.5,-33"/>
<text text-anchor="start" x="200.5" y="-51" font-family="Helvetica,sans-Serif" font-size="10.00">util.ConsoleReader.prompt</text>
<text text-anchor="middle" x="264" y="-40" font-family="Helvetica,sans-Serif" font-size="10.00">Range</text>
</a>
</g>
</g>
<!-- Node1&#45;&gt;Node2 -->
<g id="edge1" class="edge"><title>Node1&#45;&gt;Node2</title>
<path fill="none" stroke="midnightblue" d="M165.714,-48C174.623,-48 183.6,-48 192.306,-48"/>
<polygon fill="midnightblue" stroke="midnightblue" points="165.7,-44.5001 155.7,-48 165.7,-51.5001 165.7,-44.5001"/>
</g>
<!-- Node3 -->
<g id="node3" class="node"><title>Node3</title>
<g id="a_node3"><a xlink:href="../../d5/d79/classroulette_1_1_game.html#a6634aba4f39043dda3c6bcfa5229971e" target="_top" xlink:title="roulette.Game.play">
<polygon fill="white" stroke="black" points="580.5,-57.5 580.5,-76.5 689.5,-76.5 689.5,-57.5 580.5,-57.5"/>
<text text-anchor="middle" x="635" y="-64.5" font-family="Helvetica,sans-Serif" font-size="10.00">roulette.Game.play</text>
</a>
</g>
</g>
<!-- Node2&#45;&gt;Node3 -->
<g id="edge2" class="edge"><title>Node2&#45;&gt;Node3</title>
<path fill="none" stroke="midnightblue" d="M345.557,-63.8617C354.45,-65.1478 363.397,-66.2421 372,-67 443.931,-73.3368 527.401,-71.8145 580.439,-69.7434"/>
<polygon fill="midnightblue" stroke="midnightblue" points="345.973,-60.3848 335.56,-62.3357 344.917,-67.3047 345.973,-60.3848"/>
</g>
<!-- Node5 -->
<g id="node5" class="node"><title>Node5</title>
<g id="a_node5"><a xlink:href="../../d5/d79/classroulette_1_1_game.html#a49ce7e2f4634c106573e87aea20e1663" target="_top" xlink:title="roulette.Game.promptForBet">
<polygon fill="white" stroke="black" points="380,-38.5 380,-57.5 536,-57.5 536,-38.5 380,-38.5"/>
<text text-anchor="middle" x="458" y="-45.5" font-family="Helvetica,sans-Serif" font-size="10.00">roulette.Game.promptForBet</text>
</a>
</g>
</g>
<!-- Node2&#45;&gt;Node5 -->
<g id="edge4" class="edge"><title>Node2&#45;&gt;Node5</title>
<path fill="none" stroke="midnightblue" d="M345.866,-48C357.067,-48 368.551,-48 379.685,-48"/>
<polygon fill="midnightblue" stroke="midnightblue" points="345.676,-44.5001 335.676,-48 345.676,-51.5001 345.676,-44.5001"/>
</g>
<!-- Node6 -->
<g id="node6" class="node"><title>Node6</title>
<g id="a_node6"><a xlink:href="../../d0/d9b/classroulette_1_1_three_consecutive.html#aa521b45b46f76455507730c9ad75a545" target="_top" xlink:title="roulette.ThreeConsecutive.place">
<polygon fill="white" stroke="black" points="372.5,-0.5 372.5,-19.5 543.5,-19.5 543.5,-0.5 372.5,-0.5"/>
<text text-anchor="middle" x="458" y="-7.5" font-family="Helvetica,sans-Serif" font-size="10.00">roulette.ThreeConsecutive.place</text>
</a>
</g>
</g>
<!-- Node2&#45;&gt;Node6 -->
<g id="edge6" class="edge"><title>Node2&#45;&gt;Node6</title>
<path fill="none" stroke="midnightblue" d="M345.497,-32.0683C367.073,-27.7981 389.721,-23.3155 408.928,-19.5143"/>
<polygon fill="midnightblue" stroke="midnightblue" points="344.806,-28.6371 335.676,-34.0121 346.165,-35.5039 344.806,-28.6371"/>
</g>
<!-- Node4 -->
<g id="node4" class="node"><title>Node4</title>
<g id="a_node4"><a xlink:href="../../d0/d4b/class_main.html#a8a5d0f827edddff706cc0e6740d0579a" target="_top" xlink:title="Main.main">
<polygon fill="white" stroke="black" points="726,-57.5 726,-76.5 792,-76.5 792,-57.5 726,-57.5"/>
<text text-anchor="middle" x="759" y="-64.5" font-family="Helvetica,sans-Serif" font-size="10.00">Main.main</text>
</a>
</g>
</g>
<!-- Node3&#45;&gt;Node4 -->
<g id="edge3" class="edge"><title>Node3&#45;&gt;Node4</title>
<path fill="none" stroke="midnightblue" d="M699.751,-67C708.828,-67 717.824,-67 725.932,-67"/>
<polygon fill="midnightblue" stroke="midnightblue" points="699.511,-63.5001 689.511,-67 699.511,-70.5001 699.511,-63.5001"/>
</g>
<!-- Node5&#45;&gt;Node3 -->
<g id="edge5" class="edge"><title>Node5&#45;&gt;Node3</title>
<path fill="none" stroke="midnightblue" d="M546.215,-57.469C557.85,-58.7323 569.492,-59.9963 580.318,-61.1716"/>
<polygon fill="midnightblue" stroke="midnightblue" points="546.332,-53.9612 536.012,-56.3613 545.576,-60.9203 546.332,-53.9612"/>
</g>
</g>
</svg>
