<?xml version="1.0" encoding="UTF-8" standalone="no"?>
<!DOCTYPE svg PUBLIC "-//W3C//DTD SVG 1.1//EN"
 "http://www.w3.org/Graphics/SVG/1.1/DTD/svg11.dtd">
<!-- Generated by graphviz version 2.36.0 (20140111.2315)
 -->
<!-- Title: util.ConsoleReader.promptOneOf Pages: 1 -->
<svg width="340pt" height="66pt"
 viewBox="0.00 0.00 340.00 66.00" xmlns="http://www.w3.org/2000/svg" xmlns:xlink="http://www.w3.org/1999/xlink">
<g id="graph0" class="graph" transform="scale(1 1) rotate(0) translate(4 62)">
<title>util.ConsoleReader.promptOneOf</title>
<polygon fill="white" stroke="none" points="-4,4 -4,-62 336,-62 336,4 -4,4"/>
<!-- Node1 -->
<g id="node1" class="node"><title>Node1</title>
<polygon fill="#bfbfbf" stroke="black" points="0.5,-14 0.5,-44 143.5,-44 143.5,-14 0.5,-14"/>
<text text-anchor="start" x="8.5" y="-32" font-family="Helvetica,sans-Serif" font-size="10.00">util.ConsoleReader.prompt</text>
<text text-anchor="middle" x="72" y="-21" font-family="Helvetica,sans-Serif" font-size="10.00">OneOf</text>
</g>
<!-- Node2 -->
<g id="node2" class="node"><title>Node2</title>
<g id="a_node2"><a xlink:href="../../d4/dcd/classroulette_1_1bets_1_1_odd_even.html#adbb66f09a09b23512c4e3cc49de54ddc" target="_top" xlink:title="roulette.bets.OddEven.place">
<polygon fill="white" stroke="black" points="180,-38.5 180,-57.5 332,-57.5 332,-38.5 180,-38.5"/>
<text text-anchor="middle" x="256" y="-45.5" font-family="Helvetica,sans-Serif" font-size="10.00">roulette.bets.OddEven.place</text>
</a>
</g>
</g>
<!-- Node1&#45;&gt;Node2 -->
<g id="edge1" class="edge"><title>Node1&#45;&gt;Node2</title>
<path fill="none" stroke="midnightblue" d="M153.756,-37.4305C162.45,-38.3382 171.271,-39.2591 179.896,-40.1594"/>
<polygon fill="midnightblue" stroke="midnightblue" points="153.936,-33.9304 143.626,-36.3731 153.209,-40.8926 153.936,-33.9304"/>
</g>
<!-- Node3 -->
<g id="node3" class="node"><title>Node3</title>
<g id="a_node3"><a xlink:href="../../d0/de1/classroulette_1_1bets_1_1_red_black.html#a034a13e28cf4d0325164cd3a6c2b1aec" target="_top" xlink:title="roulette.bets.RedBlack.place">
<polygon fill="white" stroke="black" points="180,-0.5 180,-19.5 332,-19.5 332,-0.5 180,-0.5"/>
<text text-anchor="middle" x="256" y="-7.5" font-family="Helvetica,sans-Serif" font-size="10.00">roulette.bets.RedBlack.place</text>
</a>
</g>
</g>
<!-- Node1&#45;&gt;Node3 -->
<g id="edge2" class="edge"><title>Node1&#45;&gt;Node3</title>
<path fill="none" stroke="midnightblue" d="M153.756,-20.5695C162.45,-19.6618 171.271,-18.7409 179.896,-17.8406"/>
<polygon fill="midnightblue" stroke="midnightblue" points="153.209,-17.1074 143.626,-21.6269 153.936,-24.0696 153.209,-17.1074"/>
</g>
</g>
</svg>
