<?xml version="1.0" encoding="UTF-8" standalone="no"?>
<!DOCTYPE svg PUBLIC "-//W3C//DTD SVG 1.1//EN"
 "http://www.w3.org/Graphics/SVG/1.1/DTD/svg11.dtd">
<!-- Generated by graphviz version 2.36.0 (20140111.2315)
 -->
<!-- Title: util.ConsoleReader.promptRange Pages: 1 -->
<svg width="632pt" height="104pt"
 viewBox="0.00 0.00 632.00 104.00" xmlns="http://www.w3.org/2000/svg" xmlns:xlink="http://www.w3.org/1999/xlink">
<g id="graph0" class="graph" transform="scale(1 1) rotate(0) translate(4 100)">
<title>util.ConsoleReader.promptRange</title>
<polygon fill="white" stroke="none" points="-4,4 -4,-100 628,-100 628,4 -4,4"/>
<!-- Node1 -->
<g id="node1" class="node"><title>Node1</title>
<polygon fill="#bfbfbf" stroke="black" points="0.5,-33 0.5,-63 143.5,-63 143.5,-33 0.5,-33"/>
<text text-anchor="start" x="8.5" y="-51" font-family="Helvetica,sans-Serif" font-size="10.00">util.ConsoleReader.prompt</text>
<text text-anchor="middle" x="72" y="-40" font-family="Helvetica,sans-Serif" font-size="10.00">Range</text>
</g>
<!-- Node2 -->
<g id="node2" class="node"><title>Node2</title>
<g id="a_node2"><a xlink:href="../../d4/dd1/classroulette_1_1bets_1_1_three_consecutive.html#a083867ce700eac57f0e9763d2391adb5" target="_top" xlink:title="roulette.bets.ThreeConsecutive.place">
<polygon fill="white" stroke="black" points="180.5,-76.5 180.5,-95.5 375.5,-95.5 375.5,-76.5 180.5,-76.5"/>
<text text-anchor="middle" x="278" y="-83.5" font-family="Helvetica,sans-Serif" font-size="10.00">roulette.bets.ThreeConsecutive.place</text>
</a>
</g>
</g>
<!-- Node1&#45;&gt;Node2 -->
<g id="edge1" class="edge"><title>Node1&#45;&gt;Node2</title>
<path fill="none" stroke="midnightblue" d="M153.728,-63.0376C178.075,-67.5728 204.114,-72.4232 225.957,-76.492"/>
<polygon fill="midnightblue" stroke="midnightblue" points="154.249,-59.5744 143.777,-61.1839 152.967,-66.4561 154.249,-59.5744"/>
</g>
<!-- Node3 -->
<g id="node3" class="node"><title>Node3</title>
<g id="a_node3"><a xlink:href="../../d5/d79/classroulette_1_1_game.html#a6634aba4f39043dda3c6bcfa5229971e" target="_top" xlink:title="roulette.Game.play">
<polygon fill="white" stroke="black" points="412.5,-19.5 412.5,-38.5 521.5,-38.5 521.5,-19.5 412.5,-19.5"/>
<text text-anchor="middle" x="467" y="-26.5" font-family="Helvetica,sans-Serif" font-size="10.00">roulette.Game.play</text>
</a>
</g>
</g>
<!-- Node1&#45;&gt;Node3 -->
<g id="edge2" class="edge"><title>Node1&#45;&gt;Node3</title>
<path fill="none" stroke="midnightblue" d="M153.896,-44.089C231.205,-40.3514 345.561,-34.8227 412.255,-31.5983"/>
<polygon fill="midnightblue" stroke="midnightblue" points="153.534,-40.6023 143.714,-44.5812 153.872,-47.5942 153.534,-40.6023"/>
</g>
<!-- Node5 -->
<g id="node5" class="node"><title>Node5</title>
<g id="a_node5"><a xlink:href="../../d5/d79/classroulette_1_1_game.html#a49ce7e2f4634c106573e87aea20e1663" target="_top" xlink:title="roulette.Game.promptForBet">
<polygon fill="white" stroke="black" points="200,-0.5 200,-19.5 356,-19.5 356,-0.5 200,-0.5"/>
<text text-anchor="middle" x="278" y="-7.5" font-family="Helvetica,sans-Serif" font-size="10.00">roulette.Game.promptForBet</text>
</a>
</g>
</g>
<!-- Node1&#45;&gt;Node5 -->
<g id="edge4" class="edge"><title>Node1&#45;&gt;Node5</title>
<path fill="none" stroke="midnightblue" d="M153.728,-32.9624C178.075,-28.4272 204.114,-23.5768 225.957,-19.508"/>
<polygon fill="midnightblue" stroke="midnightblue" points="152.967,-29.5439 143.777,-34.8161 154.249,-36.4256 152.967,-29.5439"/>
</g>
<!-- Node4 -->
<g id="node4" class="node"><title>Node4</title>
<g id="a_node4"><a xlink:href="../../d0/d4b/class_main.html#a8a5d0f827edddff706cc0e6740d0579a" target="_top" xlink:title="Main.main">
<polygon fill="white" stroke="black" points="558,-19.5 558,-38.5 624,-38.5 624,-19.5 558,-19.5"/>
<text text-anchor="middle" x="591" y="-26.5" font-family="Helvetica,sans-Serif" font-size="10.00">Main.main</text>
</a>
</g>
</g>
<!-- Node3&#45;&gt;Node4 -->
<g id="edge3" class="edge"><title>Node3&#45;&gt;Node4</title>
<path fill="none" stroke="midnightblue" d="M531.751,-29C540.828,-29 549.824,-29 557.932,-29"/>
<polygon fill="midnightblue" stroke="midnightblue" points="531.511,-25.5001 521.511,-29 531.511,-32.5001 531.511,-25.5001"/>
</g>
<!-- Node5&#45;&gt;Node3 -->
<g id="edge5" class="edge"><title>Node5&#45;&gt;Node3</title>
<path fill="none" stroke="midnightblue" d="M366.406,-18.8808C382.108,-20.4762 398.04,-22.095 412.421,-23.5562"/>
<polygon fill="midnightblue" stroke="midnightblue" points="366.442,-15.3666 356.14,-17.8377 365.735,-22.3307 366.442,-15.3666"/>
</g>
</g>
</svg>
