<?xml version="1.0" encoding="UTF-8" standalone="no"?>
<!DOCTYPE svg PUBLIC "-//W3C//DTD SVG 1.1//EN"
 "http://www.w3.org/Graphics/SVG/1.1/DTD/svg11.dtd">
<!-- Generated by graphviz version 2.36.0 (20140111.2315)
 -->
<!-- Title: util.ConsoleReader.promptRange Pages: 1 -->
<svg width="608pt" height="104pt"
 viewBox="0.00 0.00 608.00 104.00" xmlns="http://www.w3.org/2000/svg" xmlns:xlink="http://www.w3.org/1999/xlink">
<g id="graph0" class="graph" transform="scale(1 1) rotate(0) translate(4 100)">
<title>util.ConsoleReader.promptRange</title>
<polygon fill="white" stroke="none" points="-4,4 -4,-100 604,-100 604,4 -4,4"/>
<!-- Node1 -->
<g id="node1" class="node"><title>Node1</title>
<polygon fill="#bfbfbf" stroke="black" points="0.5,-33 0.5,-63 143.5,-63 143.5,-33 0.5,-33"/>
<text text-anchor="start" x="8.5" y="-51" font-family="Helvetica,sans-Serif" font-size="10.00">util.ConsoleReader.prompt</text>
<text text-anchor="middle" x="72" y="-40" font-family="Helvetica,sans-Serif" font-size="10.00">Range</text>
</g>
<!-- Node2 -->
<g id="node2" class="node"><title>Node2</title>
<g id="a_node2"><a xlink:href="../../d0/d9b/classroulette_1_1_three_consecutive.html#aa521b45b46f76455507730c9ad75a545" target="_top" xlink:title="roulette.ThreeConsecutive.place">
<polygon fill="white" stroke="black" points="180.5,-76.5 180.5,-95.5 351.5,-95.5 351.5,-76.5 180.5,-76.5"/>
<text text-anchor="middle" x="266" y="-83.5" font-family="Helvetica,sans-Serif" font-size="10.00">roulette.ThreeConsecutive.place</text>
</a>
</g>
</g>
<!-- Node1&#45;&gt;Node2 -->
<g id="edge1" class="edge"><title>Node1&#45;&gt;Node2</title>
<path fill="none" stroke="midnightblue" d="M153.497,-63.9317C175.073,-68.2019 197.721,-72.6845 216.928,-76.4857"/>
<polygon fill="midnightblue" stroke="midnightblue" points="154.165,-60.4961 143.676,-61.9879 152.806,-67.3629 154.165,-60.4961"/>
</g>
<!-- Node3 -->
<g id="node3" class="node"><title>Node3</title>
<g id="a_node3"><a xlink:href="../../d5/d79/classroulette_1_1_game.html#a6634aba4f39043dda3c6bcfa5229971e" target="_top" xlink:title="roulette.Game.play">
<polygon fill="white" stroke="black" points="388.5,-19.5 388.5,-38.5 497.5,-38.5 497.5,-19.5 388.5,-19.5"/>
<text text-anchor="middle" x="443" y="-26.5" font-family="Helvetica,sans-Serif" font-size="10.00">roulette.Game.play</text>
</a>
</g>
</g>
<!-- Node1&#45;&gt;Node3 -->
<g id="edge2" class="edge"><title>Node1&#45;&gt;Node3</title>
<path fill="none" stroke="midnightblue" d="M153.983,-43.8302C225.157,-40.1653 326.719,-34.9359 388.286,-31.7657"/>
<polygon fill="midnightblue" stroke="midnightblue" points="153.517,-40.3494 143.71,-44.3591 153.877,-47.3401 153.517,-40.3494"/>
</g>
<!-- Node5 -->
<g id="node5" class="node"><title>Node5</title>
<g id="a_node5"><a xlink:href="../../d5/d79/classroulette_1_1_game.html#a49ce7e2f4634c106573e87aea20e1663" target="_top" xlink:title="roulette.Game.promptForBet">
<polygon fill="white" stroke="black" points="188,-0.5 188,-19.5 344,-19.5 344,-0.5 188,-0.5"/>
<text text-anchor="middle" x="266" y="-7.5" font-family="Helvetica,sans-Serif" font-size="10.00">roulette.Game.promptForBet</text>
</a>
</g>
</g>
<!-- Node1&#45;&gt;Node5 -->
<g id="edge4" class="edge"><title>Node1&#45;&gt;Node5</title>
<path fill="none" stroke="midnightblue" d="M153.497,-32.0683C175.073,-27.7981 197.721,-23.3155 216.928,-19.5143"/>
<polygon fill="midnightblue" stroke="midnightblue" points="152.806,-28.6371 143.676,-34.0121 154.165,-35.5039 152.806,-28.6371"/>
</g>
<!-- Node4 -->
<g id="node4" class="node"><title>Node4</title>
<g id="a_node4"><a xlink:href="../../d0/d4b/class_main.html#a8a5d0f827edddff706cc0e6740d0579a" target="_top" xlink:title="Main.main">
<polygon fill="white" stroke="black" points="534,-19.5 534,-38.5 600,-38.5 600,-19.5 534,-19.5"/>
<text text-anchor="middle" x="567" y="-26.5" font-family="Helvetica,sans-Serif" font-size="10.00">Main.main</text>
</a>
</g>
</g>
<!-- Node3&#45;&gt;Node4 -->
<g id="edge3" class="edge"><title>Node3&#45;&gt;Node4</title>
<path fill="none" stroke="midnightblue" d="M507.751,-29C516.828,-29 525.824,-29 533.932,-29"/>
<polygon fill="midnightblue" stroke="midnightblue" points="507.511,-25.5001 497.511,-29 507.511,-32.5001 507.511,-25.5001"/>
</g>
<!-- Node5&#45;&gt;Node3 -->
<g id="edge5" class="edge"><title>Node5&#45;&gt;Node3</title>
<path fill="none" stroke="midnightblue" d="M354.215,-19.469C365.85,-20.7323 377.492,-21.9963 388.318,-23.1716"/>
<polygon fill="midnightblue" stroke="midnightblue" points="354.332,-15.9612 344.012,-18.3613 353.576,-22.9203 354.332,-15.9612"/>
</g>
</g>
</svg>
