<?xml version="1.0" encoding="UTF-8" standalone="no"?>
<!DOCTYPE svg PUBLIC "-//W3C//DTD SVG 1.1//EN"
 "http://www.w3.org/Graphics/SVG/1.1/DTD/svg11.dtd">
<!-- Generated by graphviz version 2.36.0 (20140111.2315)
 -->
<!-- Title: util.ConsoleReader.promptRange Pages: 1 -->
<svg width="592pt" height="104pt"
 viewBox="0.00 0.00 592.00 104.00" xmlns="http://www.w3.org/2000/svg" xmlns:xlink="http://www.w3.org/1999/xlink">
<g id="graph0" class="graph" transform="scale(1 1) rotate(0) translate(4 100)">
<title>util.ConsoleReader.promptRange</title>
<polygon fill="white" stroke="none" points="-4,4 -4,-100 588,-100 588,4 -4,4"/>
<!-- Node1 -->
<g id="node1" class="node"><title>Node1</title>
<polygon fill="#bfbfbf" stroke="black" points="0.5,-33 0.5,-63 143.5,-63 143.5,-33 0.5,-33"/>
<text text-anchor="start" x="8.5" y="-51" font-family="Helvetica,sans-Serif" font-size="10.00">util.ConsoleReader.prompt</text>
<text text-anchor="middle" x="72" y="-40" font-family="Helvetica,sans-Serif" font-size="10.00">Range</text>
</g>
<!-- Node2 -->
<g id="node2" class="node"><title>Node2</title>
<g id="a_node2"><a xlink:href="../../d5/d79/classroulette_1_1_game.html#a01744cfd81ef2acad477be49a93c7ee7" target="_top" xlink:title="roulette.Game.placeBet">
<polygon fill="white" stroke="black" points="192.5,-76.5 192.5,-95.5 323.5,-95.5 323.5,-76.5 192.5,-76.5"/>
<text text-anchor="middle" x="258" y="-83.5" font-family="Helvetica,sans-Serif" font-size="10.00">roulette.Game.placeBet</text>
</a>
</g>
</g>
<!-- Node1&#45;&gt;Node2 -->
<g id="edge1" class="edge"><title>Node1&#45;&gt;Node2</title>
<path fill="none" stroke="midnightblue" d="M153.464,-64.6176C173.054,-68.6633 193.353,-72.8556 210.732,-76.4447"/>
<polygon fill="midnightblue" stroke="midnightblue" points="154.114,-61.1781 143.613,-62.5831 152.698,-68.0334 154.114,-61.1781"/>
</g>
<!-- Node3 -->
<g id="node3" class="node"><title>Node3</title>
<g id="a_node3"><a xlink:href="../../d5/d79/classroulette_1_1_game.html#a6634aba4f39043dda3c6bcfa5229971e" target="_top" xlink:title="roulette.Game.play">
<polygon fill="white" stroke="black" points="372.5,-38.5 372.5,-57.5 481.5,-57.5 481.5,-38.5 372.5,-38.5"/>
<text text-anchor="middle" x="427" y="-45.5" font-family="Helvetica,sans-Serif" font-size="10.00">roulette.Game.play</text>
</a>
</g>
</g>
<!-- Node1&#45;&gt;Node3 -->
<g id="edge4" class="edge"><title>Node1&#45;&gt;Node3</title>
<path fill="none" stroke="midnightblue" d="M153.685,-48C220.671,-48 314.077,-48 372.247,-48"/>
<polygon fill="midnightblue" stroke="midnightblue" points="153.586,-44.5001 143.586,-48 153.586,-51.5001 153.586,-44.5001"/>
</g>
<!-- Node5 -->
<g id="node5" class="node"><title>Node5</title>
<g id="a_node5"><a xlink:href="../../d5/d79/classroulette_1_1_game.html#ab1fc928530a1dc083904ba2ff19e1e8a" target="_top" xlink:title="roulette.Game.promptForBet">
<polygon fill="white" stroke="black" points="180,-0.5 180,-19.5 336,-19.5 336,-0.5 180,-0.5"/>
<text text-anchor="middle" x="258" y="-7.5" font-family="Helvetica,sans-Serif" font-size="10.00">roulette.Game.promptForBet</text>
</a>
</g>
</g>
<!-- Node1&#45;&gt;Node5 -->
<g id="edge5" class="edge"><title>Node1&#45;&gt;Node5</title>
<path fill="none" stroke="midnightblue" d="M153.464,-31.3824C173.054,-27.3367 193.353,-23.1444 210.732,-19.5553"/>
<polygon fill="midnightblue" stroke="midnightblue" points="152.698,-27.9666 143.613,-33.4169 154.114,-34.8219 152.698,-27.9666"/>
</g>
<!-- Node2&#45;&gt;Node3 -->
<g id="edge2" class="edge"><title>Node2&#45;&gt;Node3</title>
<path fill="none" stroke="midnightblue" d="M310.965,-74.1757C334.509,-68.8184 361.974,-62.5689 384.162,-57.5201"/>
<polygon fill="midnightblue" stroke="midnightblue" points="310.115,-70.7794 301.141,-76.411 311.668,-77.6049 310.115,-70.7794"/>
</g>
<!-- Node4 -->
<g id="node4" class="node"><title>Node4</title>
<g id="a_node4"><a xlink:href="../../d0/d4b/class_main.html#a8a5d0f827edddff706cc0e6740d0579a" target="_top" xlink:title="Main.main">
<polygon fill="white" stroke="black" points="518,-38.5 518,-57.5 584,-57.5 584,-38.5 518,-38.5"/>
<text text-anchor="middle" x="551" y="-45.5" font-family="Helvetica,sans-Serif" font-size="10.00">Main.main</text>
</a>
</g>
</g>
<!-- Node3&#45;&gt;Node4 -->
<g id="edge3" class="edge"><title>Node3&#45;&gt;Node4</title>
<path fill="none" stroke="midnightblue" d="M491.751,-48C500.828,-48 509.824,-48 517.932,-48"/>
<polygon fill="midnightblue" stroke="midnightblue" points="491.511,-44.5001 481.511,-48 491.511,-51.5001 491.511,-44.5001"/>
</g>
<!-- Node5&#45;&gt;Node3 -->
<g id="edge6" class="edge"><title>Node5&#45;&gt;Node3</title>
<path fill="none" stroke="midnightblue" d="M310.965,-21.8243C334.509,-27.1816 361.974,-33.4311 384.162,-38.4799"/>
<polygon fill="midnightblue" stroke="midnightblue" points="311.668,-18.3951 301.141,-19.589 310.115,-25.2206 311.668,-18.3951"/>
</g>
</g>
</svg>
