<?xml version="1.0" encoding="UTF-8" standalone="no"?>
<!DOCTYPE svg PUBLIC "-//W3C//DTD SVG 1.1//EN"
 "http://www.w3.org/Graphics/SVG/1.1/DTD/svg11.dtd">
<!-- Generated by graphviz version 2.36.0 (20140111.2315)
 -->
<!-- Title: /tmp/git/duke&#45;compsci308&#45;spring2015/example_roulette/repository/src Pages: 1 -->
<svg width="254pt" height="111pt"
 viewBox="0.00 0.00 254.00 111.00" xmlns="http://www.w3.org/2000/svg" xmlns:xlink="http://www.w3.org/1999/xlink">
<g id="graph0" class="graph" transform="scale(1 1) rotate(0) translate(4 107)">
<title>/tmp/git/duke&#45;compsci308&#45;spring2015/example_roulette/repository/src</title>
<polygon fill="white" stroke="none" points="-4,4 -4,-107 250,-107 250,4 -4,4"/>
<g id="clust1" class="cluster"><title>clusterdir_d1de87f25a681a1cf5587f34ac045da8</title>
<g id="a_clust1"><a xlink:href="dir_d1de87f25a681a1cf5587f34ac045da8.html" target="_top" xlink:title="repository">
<polygon fill="#ddddee" stroke="black" points="8,-8 8,-95 238,-95 238,-8 8,-8"/>
<text text-anchor="middle" x="123" y="-83" font-family="Helvetica,sans-Serif" font-size="10.00">repository</text>
</a>
</g>
</g>
<g id="clust2" class="cluster"><title>clusterdir_157ed91232b9605e23cf8e8a4d49ae21</title>
<g id="a_clust2"><a xlink:href="dir_157ed91232b9605e23cf8e8a4d49ae21.html" target="_top">
<polygon fill="#eeeeff" stroke="black" points="16,-16 16,-68 230,-68 230,-16 16,-16"/>
</a>
</g>
</g>
<!-- dir_157ed91232b9605e23cf8e8a4d49ae21 -->
<g id="node1" class="node"><title>dir_157ed91232b9605e23cf8e8a4d49ae21</title>
<text text-anchor="middle" x="195" y="-39.5" font-family="Helvetica,sans-Serif" font-size="10.00">src</text>
</g>
<!-- dir_aaab7fb992a4b2fed30c34669fe59747 -->
<g id="node2" class="node"><title>dir_aaab7fb992a4b2fed30c34669fe59747</title>
<g id="a_node2"><a xlink:href="dir_aaab7fb992a4b2fed30c34669fe59747.html" target="_top" xlink:title="roulette">
<polygon fill="white" stroke="black" points="150,-60 96,-60 96,-24 150,-24 150,-60"/>
<text text-anchor="middle" x="123" y="-39.5" font-family="Helvetica,sans-Serif" font-size="10.00">roulette</text>
</a>
</g>
</g>
<!-- dir_9560c159146c60061d62d001b1bd0c1f -->
<g id="node3" class="node"><title>dir_9560c159146c60061d62d001b1bd0c1f</title>
<g id="a_node3"><a xlink:href="dir_9560c159146c60061d62d001b1bd0c1f.html" target="_top" xlink:title="util">
<polygon fill="white" stroke="black" points="78,-60 24,-60 24,-24 78,-24 78,-60"/>
<text text-anchor="middle" x="51" y="-39.5" font-family="Helvetica,sans-Serif" font-size="10.00">util</text>
</a>
</g>
</g>
</g>
</svg>
