<?xml version="1.0" encoding="UTF-8" standalone="no"?>
<!DOCTYPE svg PUBLIC "-//W3C//DTD SVG 1.1//EN"
 "http://www.w3.org/Graphics/SVG/1.1/DTD/svg11.dtd">
<!-- Generated by graphviz version 2.36.0 (20140111.2315)
 -->
<!-- Title: Graphical Class Hierarchy Pages: 1 -->
<svg width="286pt" height="104pt"
 viewBox="0.00 0.00 286.00 104.00" xmlns="http://www.w3.org/2000/svg" xmlns:xlink="http://www.w3.org/1999/xlink">
<g id="graph0" class="graph" transform="scale(1 1) rotate(0) translate(4 100)">
<title>Graphical Class Hierarchy</title>
<polygon fill="white" stroke="none" points="-4,4 -4,-100 282,-100 282,4 -4,4"/>
<!-- Node1 -->
<g id="node1" class="node"><title>Node1</title>
<g id="a_node1"><a xlink:href="d1/daa/classroulette_1_1_bet.html" target="_top" xlink:title="roulette.Bet">
<polygon fill="white" stroke="black" points="0,-38.5 0,-57.5 74,-57.5 74,-38.5 0,-38.5"/>
<text text-anchor="middle" x="37" y="-45.5" font-family="Helvetica,sans-Serif" font-size="10.00">roulette.Bet</text>
</a>
</g>
</g>
<!-- Node2 -->
<g id="node2" class="node"><title>Node2</title>
<g id="a_node2"><a xlink:href="d4/dcd/classroulette_1_1bets_1_1_odd_even.html" target="_top" xlink:title="roulette.bets.OddEven">
<polygon fill="white" stroke="black" points="132,-76.5 132,-95.5 256,-95.5 256,-76.5 132,-76.5"/>
<text text-anchor="middle" x="194" y="-83.5" font-family="Helvetica,sans-Serif" font-size="10.00">roulette.bets.OddEven</text>
</a>
</g>
</g>
<!-- Node1&#45;&gt;Node2 -->
<g id="edge1" class="edge"><title>Node1&#45;&gt;Node2</title>
<path fill="none" stroke="midnightblue" d="M82.9746,-60.1124C91.9152,-62.4513 101.245,-64.8432 110,-67 122.918,-70.1821 137.012,-73.4751 149.857,-76.4078"/>
<polygon fill="midnightblue" stroke="midnightblue" points="83.6588,-56.6733 73.097,-57.5097 81.8751,-63.4422 83.6588,-56.6733"/>
</g>
<!-- Node3 -->
<g id="node3" class="node"><title>Node3</title>
<g id="a_node3"><a xlink:href="d0/de1/classroulette_1_1bets_1_1_red_black.html" target="_top" xlink:title="roulette.bets.RedBlack">
<polygon fill="white" stroke="black" points="132,-38.5 132,-57.5 256,-57.5 256,-38.5 132,-38.5"/>
<text text-anchor="middle" x="194" y="-45.5" font-family="Helvetica,sans-Serif" font-size="10.00">roulette.bets.RedBlack</text>
</a>
</g>
</g>
<!-- Node1&#45;&gt;Node3 -->
<g id="edge2" class="edge"><title>Node1&#45;&gt;Node3</title>
<path fill="none" stroke="midnightblue" d="M84.7465,-48C99.5224,-48 116.078,-48 131.713,-48"/>
<polygon fill="midnightblue" stroke="midnightblue" points="84.3406,-44.5001 74.3406,-48 84.3406,-51.5001 84.3406,-44.5001"/>
</g>
<!-- Node4 -->
<g id="node4" class="node"><title>Node4</title>
<g id="a_node4"><a xlink:href="d4/dd1/classroulette_1_1bets_1_1_three_consecutive.html" target="_top" xlink:title="roulette.bets.ThreeConsecutive">
<polygon fill="white" stroke="black" points="110.5,-0.5 110.5,-19.5 277.5,-19.5 277.5,-0.5 110.5,-0.5"/>
<text text-anchor="middle" x="194" y="-7.5" font-family="Helvetica,sans-Serif" font-size="10.00">roulette.bets.ThreeConsecutive</text>
</a>
</g>
</g>
<!-- Node1&#45;&gt;Node4 -->
<g id="edge3" class="edge"><title>Node1&#45;&gt;Node4</title>
<path fill="none" stroke="midnightblue" d="M82.9746,-35.8876C91.9152,-33.5487 101.245,-31.1568 110,-29 122.918,-25.8179 137.012,-22.5249 149.857,-19.5922"/>
<polygon fill="midnightblue" stroke="midnightblue" points="81.8751,-32.5578 73.097,-38.4903 83.6588,-39.3267 81.8751,-32.5578"/>
</g>
</g>
</svg>
