<?xml version="1.0" encoding="UTF-8" standalone="no"?>
<!DOCTYPE svg PUBLIC "-//W3C//DTD SVG 1.1//EN"
 "http://www.w3.org/Graphics/SVG/1.1/DTD/svg11.dtd">
<!-- Generated by graphviz version 2.36.0 (20140111.2315)
 -->
<!-- Title: Graphical Class Hierarchy Pages: 1 -->
<svg width="262pt" height="104pt"
 viewBox="0.00 0.00 262.00 104.00" xmlns="http://www.w3.org/2000/svg" xmlns:xlink="http://www.w3.org/1999/xlink">
<g id="graph0" class="graph" transform="scale(1 1) rotate(0) translate(4 100)">
<title>Graphical Class Hierarchy</title>
<polygon fill="white" stroke="none" points="-4,4 -4,-100 258,-100 258,4 -4,4"/>
<!-- Node1 -->
<g id="node1" class="node"><title>Node1</title>
<g id="a_node1"><a xlink:href="d1/daa/classroulette_1_1_bet.html" target="_top" xlink:title="roulette.Bet">
<polygon fill="white" stroke="black" points="0,-38.5 0,-57.5 74,-57.5 74,-38.5 0,-38.5"/>
<text text-anchor="middle" x="37" y="-45.5" font-family="Helvetica,sans-Serif" font-size="10.00">roulette.Bet</text>
</a>
</g>
</g>
<!-- Node2 -->
<g id="node2" class="node"><title>Node2</title>
<g id="a_node2"><a xlink:href="d9/d60/classroulette_1_1_odd_even.html" target="_top" xlink:title="roulette.OddEven">
<polygon fill="white" stroke="black" points="132,-76.5 132,-95.5 232,-95.5 232,-76.5 132,-76.5"/>
<text text-anchor="middle" x="182" y="-83.5" font-family="Helvetica,sans-Serif" font-size="10.00">roulette.OddEven</text>
</a>
</g>
</g>
<!-- Node1&#45;&gt;Node2 -->
<g id="edge1" class="edge"><title>Node1&#45;&gt;Node2</title>
<path fill="none" stroke="midnightblue" d="M83.8133,-60.1742C103.587,-65.4287 126.384,-71.4866 144.927,-76.4141"/>
<polygon fill="midnightblue" stroke="midnightblue" points="84.6484,-56.7747 74.0849,-57.589 82.8506,-63.5399 84.6484,-56.7747"/>
</g>
<!-- Node3 -->
<g id="node3" class="node"><title>Node3</title>
<g id="a_node3"><a xlink:href="d4/d0a/classroulette_1_1_red_black.html" target="_top" xlink:title="roulette.RedBlack">
<polygon fill="white" stroke="black" points="132,-38.5 132,-57.5 232,-57.5 232,-38.5 132,-38.5"/>
<text text-anchor="middle" x="182" y="-45.5" font-family="Helvetica,sans-Serif" font-size="10.00">roulette.RedBlack</text>
</a>
</g>
</g>
<!-- Node1&#45;&gt;Node3 -->
<g id="edge2" class="edge"><title>Node1&#45;&gt;Node3</title>
<path fill="none" stroke="midnightblue" d="M84.3123,-48C99.5474,-48 116.532,-48 131.963,-48"/>
<polygon fill="midnightblue" stroke="midnightblue" points="84.085,-44.5001 74.0849,-48 84.0849,-51.5001 84.085,-44.5001"/>
</g>
<!-- Node4 -->
<g id="node4" class="node"><title>Node4</title>
<g id="a_node4"><a xlink:href="d0/d9b/classroulette_1_1_three_consecutive.html" target="_top" xlink:title="roulette.ThreeConsecutive">
<polygon fill="white" stroke="black" points="110.5,-0.5 110.5,-19.5 253.5,-19.5 253.5,-0.5 110.5,-0.5"/>
<text text-anchor="middle" x="182" y="-7.5" font-family="Helvetica,sans-Serif" font-size="10.00">roulette.ThreeConsecutive</text>
</a>
</g>
</g>
<!-- Node1&#45;&gt;Node4 -->
<g id="edge3" class="edge"><title>Node1&#45;&gt;Node4</title>
<path fill="none" stroke="midnightblue" d="M83.8133,-35.8258C103.587,-30.5713 126.384,-24.5134 144.927,-19.5859"/>
<polygon fill="midnightblue" stroke="midnightblue" points="82.8506,-32.4601 74.0849,-38.411 84.6484,-39.2253 82.8506,-32.4601"/>
</g>
</g>
</svg>
