<?xml version="1.0" encoding="UTF-8" standalone="no"?>
<!DOCTYPE svg PUBLIC "-//W3C//DTD SVG 1.1//EN"
 "http://www.w3.org/Graphics/SVG/1.1/DTD/svg11.dtd">
<!-- Generated by graphviz version 2.36.0 (20140111.2315)
 -->
<!-- Title: Main.main Pages: 1 -->
<!--zoomable 376 -->
<svg id="main" version="1.1" xmlns="http://www.w3.org/2000/svg" xmlns:xlink="http://www.w3.org/1999/xlink" xml:space="preserve" onload="init(evt)">
<style type="text/css"><![CDATA[
.edge:hover path { stroke: red; }
.edge:hover polygon { stroke: red; fill: red; }
]]></style>
<script type="text/javascript"><![CDATA[
var edges = document.getElementsByTagName('g');
if (edges && edges.length) {
  for (var i=0;i<edges.length;i++) {
    if (edges[i].id.substr(0,4)=='edge') {
      edges[i].setAttribute('class','edge');
    }
  }
}
]]></script>
        <defs>
                <circle id="rim" cx="0" cy="0" r="7"/>
                <circle id="rim2" cx="0" cy="0" r="3.5"/>
                <g id="zoomPlus">
                        <use xlink:href="#rim" fill="#404040">
                                <set attributeName="fill" to="#808080" begin="zoomplus.mouseover" end="zoomplus.mouseout"/>
                        </use>
                        <path d="M-4,0h8M0,-4v8" fill="none" stroke="white" stroke-width="1.5" pointer-events="none"/>
                </g>
                <g id="zoomMin">
                        <use xlink:href="#rim" fill="#404040">
                                <set attributeName="fill" to="#808080" begin="zoomminus.mouseover" end="zoomminus.mouseout"/>
                        </use>
                        <path d="M-4,0h8" fill="none" stroke="white" stroke-width="1.5" pointer-events="none"/>
                </g>
                <g id="dirArrow">
                        <path fill="none" stroke="white" stroke-width="1.5" d="M0,-3.0v7 M-2.5,-0.5L0,-3.0L2.5,-0.5"/>
                </g>
               <g id="resetDef">
                       <use xlink:href="#rim2" fill="#404040">
                               <set attributeName="fill" to="#808080" begin="reset.mouseover" end="reset.mouseout"/>
                       </use>
               </g>
        </defs>

<script type="text/javascript">
var viewWidth = 1020;
var viewHeight = 376;
var sectionId = 'dynsection-0';
</script>
<script xlink:href="../../svgpan.js"/>
<svg id="graph" class="graph">
<g id="viewport">
<title>Main.main</title>
<polygon fill="white" stroke="none" points="-4,4 -4,-372.263 1016,-372.263 1016,4 -4,4"/>
<!-- Node1 -->
<g id="node1" class="node"><title>Node1</title>
<polygon fill="#bfbfbf" stroke="black" points="0,-228.5 0,-247.5 66,-247.5 66,-228.5 0,-228.5"/>
<text text-anchor="middle" x="33" y="-235.5" font-family="Helvetica,sans-Serif" font-size="10.00">Main.main</text>
</g>
<!-- Node2 -->
<g id="node2" class="node"><title>Node2</title>
<g id="a_node2"><a xlink:href="../../d8/d06/classroulette_1_1_gambler.html#affbe03dbd865c800a75c28ea51eb10e7" target="_top" xlink:title="roulette.Gambler.getName">
<polygon fill="white" stroke="black" points="102,-285.5 102,-304.5 248,-304.5 248,-285.5 102,-285.5"/>
<text text-anchor="middle" x="175" y="-292.5" font-family="Helvetica,sans-Serif" font-size="10.00">roulette.Gambler.getName</text>
</a>
</g>
</g>
<!-- Node1&#45;&gt;Node2 -->
<g id="edge1" class="edge"><title>Node1&#45;&gt;Node2</title>
<path fill="none" stroke="midnightblue" d="M48.5858,-247.576C62.0034,-256.034 82.6884,-268.202 102,-276 107.979,-278.414 114.361,-280.609 120.762,-282.578"/>
<polygon fill="midnightblue" stroke="midnightblue" points="120.202,-286.06 130.781,-285.486 122.153,-279.338 120.202,-286.06"/>
</g>
<!-- Node3 -->
<g id="node3" class="node"><title>Node3</title>
<g id="a_node3"><a xlink:href="../../d5/d79/classroulette_1_1_game.html#ae1d34e8b44904d0d6ab9c26271a50f96" target="_top" xlink:title="roulette.Game.getName">
<polygon fill="white" stroke="black" points="108,-247.5 108,-266.5 242,-266.5 242,-247.5 108,-247.5"/>
<text text-anchor="middle" x="175" y="-254.5" font-family="Helvetica,sans-Serif" font-size="10.00">roulette.Game.getName</text>
</a>
</g>
</g>
<!-- Node1&#45;&gt;Node3 -->
<g id="edge2" class="edge"><title>Node1&#45;&gt;Node3</title>
<path fill="none" stroke="midnightblue" d="M66.1188,-242.359C75.6372,-243.651 86.4927,-245.124 97.5649,-246.627"/>
<polygon fill="midnightblue" stroke="midnightblue" points="97.382,-250.134 107.762,-248.011 98.3234,-243.197 97.382,-250.134"/>
</g>
<!-- Node4 -->
<g id="node4" class="node"><title>Node4</title>
<g id="a_node4"><a xlink:href="../../d8/d06/classroulette_1_1_gambler.html#a6763a051be9a023a23898b42ee340cc7" target="_top" xlink:title="roulette.Gambler.isSolvent">
<polygon fill="white" stroke="black" points="103,-209.5 103,-228.5 247,-228.5 247,-209.5 103,-209.5"/>
<text text-anchor="middle" x="175" y="-216.5" font-family="Helvetica,sans-Serif" font-size="10.00">roulette.Gambler.isSolvent</text>
</a>
</g>
</g>
<!-- Node1&#45;&gt;Node4 -->
<g id="edge3" class="edge"><title>Node1&#45;&gt;Node4</title>
<path fill="none" stroke="midnightblue" d="M66.1188,-233.641C74.507,-232.503 83.9337,-231.223 93.6318,-229.907"/>
<polygon fill="midnightblue" stroke="midnightblue" points="94.3661,-233.34 103.805,-228.527 93.4247,-226.403 94.3661,-233.34"/>
</g>
<!-- Node5 -->
<g id="node5" class="node"><title>Node5</title>
<g id="a_node5"><a xlink:href="../../d5/d79/classroulette_1_1_game.html#a6634aba4f39043dda3c6bcfa5229971e" target="_top" xlink:title="roulette.Game.play">
<polygon fill="white" stroke="black" points="120.5,-171.5 120.5,-190.5 229.5,-190.5 229.5,-171.5 120.5,-171.5"/>
<text text-anchor="middle" x="175" y="-178.5" font-family="Helvetica,sans-Serif" font-size="10.00">roulette.Game.play</text>
</a>
</g>
</g>
<!-- Node1&#45;&gt;Node5 -->
<g id="edge4" class="edge"><title>Node1&#45;&gt;Node5</title>
<path fill="none" stroke="midnightblue" d="M48.5858,-228.424C62.0034,-219.966 82.6884,-207.798 102,-200 107.979,-197.586 114.361,-195.391 120.762,-193.422"/>
<polygon fill="midnightblue" stroke="midnightblue" points="122.153,-196.662 130.781,-190.514 120.202,-189.94 122.153,-196.662"/>
</g>
<!-- Node6 -->
<g id="node6" class="node"><title>Node6</title>
<g id="a_node6"><a xlink:href="../../dd/d87/classutil_1_1_console_reader.html#ac25a6a9c672f8da0b7f37104d33a6cd5" target="_top" xlink:title="util.ConsoleReader.prompt\lRange">
<polygon fill="white" stroke="black" points="495.5,-321 495.5,-351 638.5,-351 638.5,-321 495.5,-321"/>
<text text-anchor="start" x="503.5" y="-339" font-family="Helvetica,sans-Serif" font-size="10.00">util.ConsoleReader.prompt</text>
<text text-anchor="middle" x="567" y="-328" font-family="Helvetica,sans-Serif" font-size="10.00">Range</text>
</a>
</g>
</g>
<!-- Node5&#45;&gt;Node6 -->
<g id="edge5" class="edge"><title>Node5&#45;&gt;Node6</title>
<path fill="none" stroke="midnightblue" d="M229.768,-188.326C236.531,-191.117 242.865,-194.897 248,-200 291.439,-243.165 235.568,-295.524 284,-333 348.191,-382.669 447.495,-369.27 509.522,-353.655"/>
<polygon fill="midnightblue" stroke="midnightblue" points="510.735,-356.956 519.522,-351.037 508.962,-350.184 510.735,-356.956"/>
</g>
<!-- Node9 -->
<g id="node9" class="node"><title>Node9</title>
<g id="a_node9"><a xlink:href="../../d8/d06/classroulette_1_1_gambler.html#a63da3e4ca7ef7e43e03917df1c16dc12" target="_top" xlink:title="roulette.Gambler.getBankroll">
<polygon fill="white" stroke="black" points="293.5,-304.5 293.5,-323.5 448.5,-323.5 448.5,-304.5 293.5,-304.5"/>
<text text-anchor="middle" x="371" y="-311.5" font-family="Helvetica,sans-Serif" font-size="10.00">roulette.Gambler.getBankroll</text>
</a>
</g>
</g>
<!-- Node5&#45;&gt;Node9 -->
<g id="edge8" class="edge"><title>Node5&#45;&gt;Node9</title>
<path fill="none" stroke="midnightblue" d="M229.688,-188.944C236.381,-191.65 242.717,-195.241 248,-200 281.547,-230.221 249.847,-265.466 284,-295 285.785,-296.544 287.668,-297.971 289.63,-299.289"/>
<polygon fill="midnightblue" stroke="midnightblue" points="288.255,-302.532 298.683,-304.4 291.696,-296.436 288.255,-302.532"/>
</g>
<!-- Node10 -->
<g id="node10" class="node"><title>Node10</title>
<g id="a_node10"><a xlink:href="../../d5/d79/classroulette_1_1_game.html#a49ce7e2f4634c106573e87aea20e1663" target="_top" xlink:title="roulette.Game.promptForBet">
<polygon fill="white" stroke="black" points="293,-266.5 293,-285.5 449,-285.5 449,-266.5 293,-266.5"/>
<text text-anchor="middle" x="371" y="-273.5" font-family="Helvetica,sans-Serif" font-size="10.00">roulette.Game.promptForBet</text>
</a>
</g>
</g>
<!-- Node5&#45;&gt;Node10 -->
<g id="edge9" class="edge"><title>Node5&#45;&gt;Node10</title>
<path fill="none" stroke="midnightblue" d="M229.597,-190.251C236.151,-192.76 242.475,-195.948 248,-200 272.162,-217.719 259.483,-239.775 284,-257 286.752,-258.934 289.667,-260.676 292.695,-262.244"/>
<polygon fill="midnightblue" stroke="midnightblue" points="291.517,-265.552 302.074,-266.448 294.381,-259.164 291.517,-265.552"/>
</g>
<!-- Node12 -->
<g id="node12" class="node"><title>Node12</title>
<g id="a_node12"><a xlink:href="../../d1/daa/classroulette_1_1_bet.html#abf81fc396eb458983b1c62e0c5140770" target="_top" xlink:title="roulette.Bet.place">
<polygon fill="white" stroke="black" points="320,-228.5 320,-247.5 422,-247.5 422,-228.5 320,-228.5"/>
<text text-anchor="middle" x="371" y="-235.5" font-family="Helvetica,sans-Serif" font-size="10.00">roulette.Bet.place</text>
</a>
</g>
</g>
<!-- Node5&#45;&gt;Node12 -->
<g id="edge12" class="edge"><title>Node5&#45;&gt;Node12</title>
<path fill="none" stroke="midnightblue" d="M218.774,-190.573C228.517,-193.224 238.726,-196.383 248,-200 264.855,-206.573 267.015,-212.77 284,-219 292.24,-222.022 301.108,-224.644 309.909,-226.894"/>
<polygon fill="midnightblue" stroke="midnightblue" points="309.237,-230.332 319.779,-229.277 310.88,-223.527 309.237,-230.332"/>
</g>
<!-- Node13 -->
<g id="node13" class="node"><title>Node13</title>
<g id="a_node13"><a xlink:href="../../d6/d07/classroulette_1_1_wheel.html#a27fab03e8b4d589c03199ac774c06ffa" target="_top" xlink:title="roulette.Wheel.spin">
<polygon fill="white" stroke="black" points="317,-190.5 317,-209.5 425,-209.5 425,-190.5 317,-190.5"/>
<text text-anchor="middle" x="371" y="-197.5" font-family="Helvetica,sans-Serif" font-size="10.00">roulette.Wheel.spin</text>
</a>
</g>
</g>
<!-- Node5&#45;&gt;Node13 -->
<g id="edge13" class="edge"><title>Node5&#45;&gt;Node13</title>
<path fill="none" stroke="midnightblue" d="M229.525,-186.242C253.478,-188.588 281.891,-191.371 306.875,-193.818"/>
<polygon fill="midnightblue" stroke="midnightblue" points="306.692,-197.316 316.986,-194.808 307.374,-190.35 306.692,-197.316"/>
</g>
<!-- Node14 -->
<g id="node14" class="node"><title>Node14</title>
<g id="a_node14"><a xlink:href="../../d6/d07/classroulette_1_1_wheel.html#af6699aa89a029f8b8900f0970db8cdaa" target="_top" xlink:title="roulette.Wheel.getColor">
<polygon fill="white" stroke="black" points="306.5,-152.5 306.5,-171.5 435.5,-171.5 435.5,-152.5 306.5,-152.5"/>
<text text-anchor="middle" x="371" y="-159.5" font-family="Helvetica,sans-Serif" font-size="10.00">roulette.Wheel.getColor</text>
</a>
</g>
</g>
<!-- Node5&#45;&gt;Node14 -->
<g id="edge14" class="edge"><title>Node5&#45;&gt;Node14</title>
<path fill="none" stroke="midnightblue" d="M229.525,-175.758C250.144,-173.739 274.067,-171.396 296.263,-169.222"/>
<polygon fill="midnightblue" stroke="midnightblue" points="296.711,-172.695 306.322,-168.237 296.028,-165.728 296.711,-172.695"/>
</g>
<!-- Node15 -->
<g id="node15" class="node"><title>Node15</title>
<g id="a_node15"><a xlink:href="../../d6/d07/classroulette_1_1_wheel.html#ac4db6f5f5c751d9944b605c79e20db6a" target="_top" xlink:title="roulette.Wheel.getNumber">
<polygon fill="white" stroke="black" points="299.5,-114.5 299.5,-133.5 442.5,-133.5 442.5,-114.5 299.5,-114.5"/>
<text text-anchor="middle" x="371" y="-121.5" font-family="Helvetica,sans-Serif" font-size="10.00">roulette.Wheel.getNumber</text>
</a>
</g>
</g>
<!-- Node5&#45;&gt;Node15 -->
<g id="edge15" class="edge"><title>Node5&#45;&gt;Node15</title>
<path fill="none" stroke="midnightblue" d="M200.605,-171.385C222.32,-163.13 254.946,-151.288 284,-143 293.058,-140.416 302.736,-137.976 312.212,-135.759"/>
<polygon fill="midnightblue" stroke="midnightblue" points="313.006,-139.168 321.979,-133.534 311.451,-132.343 313.006,-139.168"/>
</g>
<!-- Node16 -->
<g id="node16" class="node"><title>Node16</title>
<g id="a_node16"><a xlink:href="../../d1/daa/classroulette_1_1_bet.html#ae8e824d4e16b7154b483f8d3bb4e9935" target="_top" xlink:title="roulette.Bet.isMade">
<polygon fill="white" stroke="black" points="316,-76.5 316,-95.5 426,-95.5 426,-76.5 316,-76.5"/>
<text text-anchor="middle" x="371" y="-83.5" font-family="Helvetica,sans-Serif" font-size="10.00">roulette.Bet.isMade</text>
</a>
</g>
</g>
<!-- Node5&#45;&gt;Node16 -->
<g id="edge16" class="edge"><title>Node5&#45;&gt;Node16</title>
<path fill="none" stroke="midnightblue" d="M186.464,-171.443C204.803,-155.227 244.561,-122.391 284,-105 290.907,-101.954 298.348,-99.3767 305.86,-97.1999"/>
<polygon fill="midnightblue" stroke="midnightblue" points="306.979,-100.524 315.739,-94.5635 305.174,-93.7606 306.979,-100.524"/>
</g>
<!-- Node17 -->
<g id="node17" class="node"><title>Node17</title>
<g id="a_node17"><a xlink:href="../../d1/daa/classroulette_1_1_bet.html#a2a5088e88de8398d09c81a19e5ecfe96" target="_top" xlink:title="roulette.Bet.getOdds">
<polygon fill="white" stroke="black" points="312.5,-38.5 312.5,-57.5 429.5,-57.5 429.5,-38.5 312.5,-38.5"/>
<text text-anchor="middle" x="371" y="-45.5" font-family="Helvetica,sans-Serif" font-size="10.00">roulette.Bet.getOdds</text>
</a>
</g>
</g>
<!-- Node5&#45;&gt;Node17 -->
<g id="edge17" class="edge"><title>Node5&#45;&gt;Node17</title>
<path fill="none" stroke="midnightblue" d="M182.209,-171.212C196.928,-148.874 236.307,-93.9868 284,-67 289.812,-63.7114 296.143,-60.9919 302.648,-58.743"/>
<polygon fill="midnightblue" stroke="midnightblue" points="303.741,-62.0688 312.263,-55.7735 301.675,-55.3806 303.741,-62.0688"/>
</g>
<!-- Node18 -->
<g id="node18" class="node"><title>Node18</title>
<g id="a_node18"><a xlink:href="../../d8/d06/classroulette_1_1_gambler.html#a5bd476cef22a22e8711d9d3f7acbd8b2" target="_top" xlink:title="roulette.Gambler.updateBankroll">
<polygon fill="white" stroke="black" points="284.5,-0.5 284.5,-19.5 457.5,-19.5 457.5,-0.5 284.5,-0.5"/>
<text text-anchor="middle" x="371" y="-7.5" font-family="Helvetica,sans-Serif" font-size="10.00">roulette.Gambler.updateBankroll</text>
</a>
</g>
</g>
<!-- Node5&#45;&gt;Node18 -->
<g id="edge18" class="edge"><title>Node5&#45;&gt;Node18</title>
<path fill="none" stroke="midnightblue" d="M179.881,-171.29C191.307,-144.034 227.602,-66.3737 284,-29 287.115,-26.9359 290.419,-25.0927 293.847,-23.4471"/>
<polygon fill="midnightblue" stroke="midnightblue" points="295.301,-26.6326 303.168,-19.5365 292.593,-20.1777 295.301,-26.6326"/>
</g>
<!-- Node7 -->
<g id="node7" class="node"><title>Node7</title>
<g id="a_node7"><a xlink:href="../../dd/d87/classutil_1_1_console_reader.html#a501aaaee9e742c28b8731598c964d82e" target="_top" xlink:title="util.ConsoleReader.promptInt">
<polygon fill="white" stroke="black" points="676.5,-326.5 676.5,-345.5 831.5,-345.5 831.5,-326.5 676.5,-326.5"/>
<text text-anchor="middle" x="754" y="-333.5" font-family="Helvetica,sans-Serif" font-size="10.00">util.ConsoleReader.promptInt</text>
</a>
</g>
</g>
<!-- Node6&#45;&gt;Node7 -->
<g id="edge6" class="edge"><title>Node6&#45;&gt;Node7</title>
<path fill="none" stroke="midnightblue" d="M638.732,-336C647.796,-336 657.156,-336 666.436,-336"/>
<polygon fill="midnightblue" stroke="midnightblue" points="666.456,-339.5 676.456,-336 666.456,-332.5 666.456,-339.5"/>
</g>
<!-- Node8 -->
<g id="node8" class="node"><title>Node8</title>
<g id="a_node8"><a xlink:href="../../dd/d87/classutil_1_1_console_reader.html#a1c9f3a0d6f36a1b8366df3c29c97f22a" target="_top" xlink:title="util.ConsoleReader.prompt\lString">
<polygon fill="white" stroke="black" points="868.5,-321 868.5,-351 1011.5,-351 1011.5,-321 868.5,-321"/>
<text text-anchor="start" x="876.5" y="-339" font-family="Helvetica,sans-Serif" font-size="10.00">util.ConsoleReader.prompt</text>
<text text-anchor="middle" x="940" y="-328" font-family="Helvetica,sans-Serif" font-size="10.00">String</text>
</a>
</g>
</g>
<!-- Node7&#45;&gt;Node8 -->
<g id="edge7" class="edge"><title>Node7&#45;&gt;Node8</title>
<path fill="none" stroke="midnightblue" d="M831.7,-336C840.418,-336 849.324,-336 858.094,-336"/>
<polygon fill="midnightblue" stroke="midnightblue" points="858.306,-339.5 868.306,-336 858.306,-332.5 858.306,-339.5"/>
</g>
<!-- Node10&#45;&gt;Node6 -->
<g id="edge11" class="edge"><title>Node10&#45;&gt;Node6</title>
<path fill="none" stroke="midnightblue" d="M420.982,-285.53C433.165,-288.254 446.132,-291.457 458,-295 478.879,-301.233 501.488,-309.561 520.598,-317.081"/>
<polygon fill="midnightblue" stroke="midnightblue" points="519.374,-320.361 529.959,-320.81 521.964,-313.858 519.374,-320.361"/>
</g>
<!-- Node11 -->
<g id="node11" class="node"><title>Node11</title>
<g id="a_node11"><a xlink:href="../../d1/daa/classroulette_1_1_bet.html#a0aec26450ea5aeb27412b75544b625ab" target="_top" xlink:title="roulette.Bet.getDescription">
<polygon fill="white" stroke="black" points="494,-266.5 494,-285.5 640,-285.5 640,-266.5 494,-266.5"/>
<text text-anchor="middle" x="567" y="-273.5" font-family="Helvetica,sans-Serif" font-size="10.00">roulette.Bet.getDescription</text>
</a>
</g>
</g>
<!-- Node10&#45;&gt;Node11 -->
<g id="edge10" class="edge"><title>Node10&#45;&gt;Node11</title>
<path fill="none" stroke="midnightblue" d="M449.231,-276C460.476,-276 472.092,-276 483.437,-276"/>
<polygon fill="midnightblue" stroke="midnightblue" points="483.763,-279.5 493.763,-276 483.763,-272.5 483.763,-279.5"/>
</g>
</g>
</svg>
        <g id="navigator" transform="translate(0 0)" fill="#404254">
                <rect fill="#f2f5e9" fill-opacity="0.5" stroke="#606060" stroke-width=".5" x="0" y="0" width="60" height="60"/>
                <use id="zoomplus" xlink:href="#zoomPlus" x="17" y="9" onmousedown="handleZoom(evt,'in')"/>
                <use id="zoomminus" xlink:href="#zoomMin" x="42" y="9" onmousedown="handleZoom(evt,'out')"/>
                <use id="reset" xlink:href="#resetDef" x="30" y="36" onmousedown="handleReset()"/>
                <g id="arrowUp" xlink:href="#dirArrow" transform="translate(30 24)" onmousedown="handlePan(0,-1)">
                  <use xlink:href="#rim" fill="#404040">
                        <set attributeName="fill" to="#808080" begin="arrowUp.mouseover" end="arrowUp.mouseout"/>
                  </use>
                  <path fill="none" stroke="white" stroke-width="1.5" d="M0,-3.0v7 M-2.5,-0.5L0,-3.0L2.5,-0.5"/>
                </g>
                <g id="arrowRight" xlink:href="#dirArrow" transform="rotate(90) translate(36 -43)" onmousedown="handlePan(1,0)">
                  <use xlink:href="#rim" fill="#404040">
                        <set attributeName="fill" to="#808080" begin="arrowRight.mouseover" end="arrowRight.mouseout"/>
                  </use>
                  <path fill="none" stroke="white" stroke-width="1.5" d="M0,-3.0v7 M-2.5,-0.5L0,-3.0L2.5,-0.5"/>
                </g>
                <g id="arrowDown" xlink:href="#dirArrow" transform="rotate(180) translate(-30 -48)" onmousedown="handlePan(0,1)">
                  <use xlink:href="#rim" fill="#404040">
                        <set attributeName="fill" to="#808080" begin="arrowDown.mouseover" end="arrowDown.mouseout"/>
                  </use>
                  <path fill="none" stroke="white" stroke-width="1.5" d="M0,-3.0v7 M-2.5,-0.5L0,-3.0L2.5,-0.5"/>
                </g>
                <g id="arrowLeft" xlink:href="#dirArrow" transform="rotate(270) translate(-36 17)" onmousedown="handlePan(-1,0)">
                  <use xlink:href="#rim" fill="#404040">
                        <set attributeName="fill" to="#808080" begin="arrowLeft.mouseover" end="arrowLeft.mouseout"/>
                  </use>
                  <path fill="none" stroke="white" stroke-width="1.5" d="M0,-3.0v7 M-2.5,-0.5L0,-3.0L2.5,-0.5"/>
                </g>
        </g>
        <svg viewBox="0 0 15 15" width="100%" height="30px" preserveAspectRatio="xMaxYMin meet">
         <g id="arrow_out" transform="scale(0.3 0.3)">
          <a xlink:href="class_main_a8a5d0f827edddff706cc0e6740d0579a_cgraph_org.svg" target="_base">
           <rect id="button" ry="5" rx="5" y="6" x="6" height="38" width="38"
                fill="#f2f5e9" fill-opacity="0.5" stroke="#606060" stroke-width="1.0"/>
           <path id="arrow"
             d="M 11.500037,31.436501 C 11.940474,20.09759 22.043105,11.32322 32.158766,21.979434 L 37.068811,17.246167 C 37.068811,17.246167 37.088388,32 37.088388,32 L 22.160133,31.978069 C 22.160133,31.978069 26.997745,27.140456 26.997745,27.140456 C 18.528582,18.264221 13.291696,25.230495 11.500037,31.436501 z"
             style="fill:#404040;"/>
          </a>
         </g>
        </svg>
</svg>
