<?xml version="1.0" encoding="UTF-8" standalone="no"?>
<!DOCTYPE svg PUBLIC "-//W3C//DTD SVG 1.1//EN"
 "http://www.w3.org/Graphics/SVG/1.1/DTD/svg11.dtd">
<!-- Generated by graphviz version 2.36.0 (20140111.2315)
 -->
<!-- Title: Main.main Pages: 1 -->
<!--zoomable 293 -->
<svg id="main" version="1.1" xmlns="http://www.w3.org/2000/svg" xmlns:xlink="http://www.w3.org/1999/xlink" xml:space="preserve" onload="init(evt)">
<style type="text/css"><![CDATA[
.edge:hover path { stroke: red; }
.edge:hover polygon { stroke: red; fill: red; }
]]></style>
<script type="text/javascript"><![CDATA[
var edges = document.getElementsByTagName('g');
if (edges && edges.length) {
  for (var i=0;i<edges.length;i++) {
    if (edges[i].id.substr(0,4)=='edge') {
      edges[i].setAttribute('class','edge');
    }
  }
}
]]></script>
        <defs>
                <circle id="rim" cx="0" cy="0" r="7"/>
                <circle id="rim2" cx="0" cy="0" r="3.5"/>
                <g id="zoomPlus">
                        <use xlink:href="#rim" fill="#404040">
                                <set attributeName="fill" to="#808080" begin="zoomplus.mouseover" end="zoomplus.mouseout"/>
                        </use>
                        <path d="M-4,0h8M0,-4v8" fill="none" stroke="white" stroke-width="1.5" pointer-events="none"/>
                </g>
                <g id="zoomMin">
                        <use xlink:href="#rim" fill="#404040">
                                <set attributeName="fill" to="#808080" begin="zoomminus.mouseover" end="zoomminus.mouseout"/>
                        </use>
                        <path d="M-4,0h8" fill="none" stroke="white" stroke-width="1.5" pointer-events="none"/>
                </g>
                <g id="dirArrow">
                        <path fill="none" stroke="white" stroke-width="1.5" d="M0,-3.0v7 M-2.5,-0.5L0,-3.0L2.5,-0.5"/>
                </g>
               <g id="resetDef">
                       <use xlink:href="#rim2" fill="#404040">
                               <set attributeName="fill" to="#808080" begin="reset.mouseover" end="reset.mouseout"/>
                       </use>
               </g>
        </defs>

<script type="text/javascript">
var viewWidth = 1018;
var viewHeight = 293;
var sectionId = 'dynsection-0';
</script>
<script xlink:href="../../svgpan.js"/>
<svg id="graph" class="graph">
<g id="viewport">
<title>Main.main</title>
<polygon fill="white" stroke="none" points="-4,4 -4,-288.565 1014,-288.565 1014,4 -4,4"/>
<!-- Node1 -->
<g id="node1" class="node"><title>Node1</title>
<polygon fill="#bfbfbf" stroke="black" points="0,-190.5 0,-209.5 66,-209.5 66,-190.5 0,-190.5"/>
<text text-anchor="middle" x="33" y="-197.5" font-family="Helvetica,sans-Serif" font-size="10.00">Main.main</text>
</g>
<!-- Node2 -->
<g id="node2" class="node"><title>Node2</title>
<g id="a_node2"><a xlink:href="../../d8/d06/classroulette_1_1_gambler.html#affbe03dbd865c800a75c28ea51eb10e7" target="_top" xlink:title="roulette.Gambler.getName">
<polygon fill="white" stroke="black" points="102,-247.5 102,-266.5 248,-266.5 248,-247.5 102,-247.5"/>
<text text-anchor="middle" x="175" y="-254.5" font-family="Helvetica,sans-Serif" font-size="10.00">roulette.Gambler.getName</text>
</a>
</g>
</g>
<!-- Node1&#45;&gt;Node2 -->
<g id="edge1" class="edge"><title>Node1&#45;&gt;Node2</title>
<path fill="none" stroke="midnightblue" d="M48.5858,-209.576C62.0034,-218.034 82.6884,-230.202 102,-238 107.979,-240.414 114.361,-242.609 120.762,-244.578"/>
<polygon fill="midnightblue" stroke="midnightblue" points="120.202,-248.06 130.781,-247.486 122.153,-241.338 120.202,-248.06"/>
</g>
<!-- Node3 -->
<g id="node3" class="node"><title>Node3</title>
<g id="a_node3"><a xlink:href="../../d5/d79/classroulette_1_1_game.html#ae1d34e8b44904d0d6ab9c26271a50f96" target="_top" xlink:title="roulette.Game.getName">
<polygon fill="white" stroke="black" points="108,-209.5 108,-228.5 242,-228.5 242,-209.5 108,-209.5"/>
<text text-anchor="middle" x="175" y="-216.5" font-family="Helvetica,sans-Serif" font-size="10.00">roulette.Game.getName</text>
</a>
</g>
</g>
<!-- Node1&#45;&gt;Node3 -->
<g id="edge2" class="edge"><title>Node1&#45;&gt;Node3</title>
<path fill="none" stroke="midnightblue" d="M66.1188,-204.359C75.6372,-205.651 86.4927,-207.124 97.5649,-208.627"/>
<polygon fill="midnightblue" stroke="midnightblue" points="97.382,-212.134 107.762,-210.011 98.3234,-205.197 97.382,-212.134"/>
</g>
<!-- Node4 -->
<g id="node4" class="node"><title>Node4</title>
<g id="a_node4"><a xlink:href="../../d8/d06/classroulette_1_1_gambler.html#a6763a051be9a023a23898b42ee340cc7" target="_top" xlink:title="roulette.Gambler.isSolvent">
<polygon fill="white" stroke="black" points="103,-171.5 103,-190.5 247,-190.5 247,-171.5 103,-171.5"/>
<text text-anchor="middle" x="175" y="-178.5" font-family="Helvetica,sans-Serif" font-size="10.00">roulette.Gambler.isSolvent</text>
</a>
</g>
</g>
<!-- Node1&#45;&gt;Node4 -->
<g id="edge3" class="edge"><title>Node1&#45;&gt;Node4</title>
<path fill="none" stroke="midnightblue" d="M66.1188,-195.641C74.507,-194.503 83.9337,-193.223 93.6318,-191.907"/>
<polygon fill="midnightblue" stroke="midnightblue" points="94.3661,-195.34 103.805,-190.527 93.4247,-188.403 94.3661,-195.34"/>
</g>
<!-- Node5 -->
<g id="node5" class="node"><title>Node5</title>
<g id="a_node5"><a xlink:href="../../d5/d79/classroulette_1_1_game.html#a6634aba4f39043dda3c6bcfa5229971e" target="_top" xlink:title="roulette.Game.play">
<polygon fill="white" stroke="black" points="120.5,-133.5 120.5,-152.5 229.5,-152.5 229.5,-133.5 120.5,-133.5"/>
<text text-anchor="middle" x="175" y="-140.5" font-family="Helvetica,sans-Serif" font-size="10.00">roulette.Game.play</text>
</a>
</g>
</g>
<!-- Node1&#45;&gt;Node5 -->
<g id="edge4" class="edge"><title>Node1&#45;&gt;Node5</title>
<path fill="none" stroke="midnightblue" d="M48.5858,-190.424C62.0034,-181.966 82.6884,-169.798 102,-162 107.979,-159.586 114.361,-157.391 120.762,-155.422"/>
<polygon fill="midnightblue" stroke="midnightblue" points="122.153,-158.662 130.781,-152.514 120.202,-151.94 122.153,-158.662"/>
</g>
<!-- Node6 -->
<g id="node6" class="node"><title>Node6</title>
<g id="a_node6"><a xlink:href="../../dd/d87/classutil_1_1_console_reader.html#ac25a6a9c672f8da0b7f37104d33a6cd5" target="_top" xlink:title="util.ConsoleReader.prompt\lRange">
<polygon fill="white" stroke="black" points="494.5,-223 494.5,-253 637.5,-253 637.5,-223 494.5,-223"/>
<text text-anchor="start" x="502.5" y="-241" font-family="Helvetica,sans-Serif" font-size="10.00">util.ConsoleReader.prompt</text>
<text text-anchor="middle" x="566" y="-230" font-family="Helvetica,sans-Serif" font-size="10.00">Range</text>
</a>
</g>
</g>
<!-- Node5&#45;&gt;Node6 -->
<g id="edge5" class="edge"><title>Node5&#45;&gt;Node6</title>
<path fill="none" stroke="midnightblue" d="M229.688,-150.944C236.381,-153.65 242.717,-157.241 248,-162 281.547,-192.221 246.844,-231.346 284,-257 354.894,-305.949 461.308,-278.52 520.768,-256.66"/>
<polygon fill="midnightblue" stroke="midnightblue" points="522.132,-259.886 530.247,-253.075 519.656,-253.339 522.132,-259.886"/>
</g>
<!-- Node9 -->
<g id="node9" class="node"><title>Node9</title>
<g id="a_node9"><a xlink:href="../../d8/d06/classroulette_1_1_gambler.html#a63da3e4ca7ef7e43e03917df1c16dc12" target="_top" xlink:title="roulette.Gambler.getBankroll">
<polygon fill="white" stroke="black" points="293.5,-228.5 293.5,-247.5 448.5,-247.5 448.5,-228.5 293.5,-228.5"/>
<text text-anchor="middle" x="371" y="-235.5" font-family="Helvetica,sans-Serif" font-size="10.00">roulette.Gambler.getBankroll</text>
</a>
</g>
</g>
<!-- Node5&#45;&gt;Node9 -->
<g id="edge8" class="edge"><title>Node5&#45;&gt;Node9</title>
<path fill="none" stroke="midnightblue" d="M229.597,-152.251C236.151,-154.76 242.475,-157.948 248,-162 272.162,-179.719 259.483,-201.775 284,-219 286.752,-220.934 289.667,-222.676 292.695,-224.244"/>
<polygon fill="midnightblue" stroke="midnightblue" points="291.517,-227.552 302.074,-228.448 294.381,-221.164 291.517,-227.552"/>
</g>
<!-- Node10 -->
<g id="node10" class="node"><title>Node10</title>
<g id="a_node10"><a xlink:href="../../d5/d79/classroulette_1_1_game.html#a49ce7e2f4634c106573e87aea20e1663" target="_top" xlink:title="roulette.Game.promptForBet">
<polygon fill="white" stroke="black" points="293,-190.5 293,-209.5 449,-209.5 449,-190.5 293,-190.5"/>
<text text-anchor="middle" x="371" y="-197.5" font-family="Helvetica,sans-Serif" font-size="10.00">roulette.Game.promptForBet</text>
</a>
</g>
</g>
<!-- Node5&#45;&gt;Node10 -->
<g id="edge9" class="edge"><title>Node5&#45;&gt;Node10</title>
<path fill="none" stroke="midnightblue" d="M218.774,-152.573C228.517,-155.224 238.726,-158.383 248,-162 264.855,-168.573 267.015,-174.77 284,-181 291.087,-183.599 298.639,-185.903 306.212,-187.927"/>
<polygon fill="midnightblue" stroke="midnightblue" points="305.592,-191.38 316.144,-190.43 307.303,-184.593 305.592,-191.38"/>
</g>
<!-- Node11 -->
<g id="node11" class="node"><title>Node11</title>
<g id="a_node11"><a xlink:href="../../d1/daa/classroulette_1_1_bet.html#a0462c7b5cf52a165ca013bf826d56a6c" target="_top" xlink:title="roulette.Bet.place">
<polygon fill="white" stroke="black" points="320,-152.5 320,-171.5 422,-171.5 422,-152.5 320,-152.5"/>
<text text-anchor="middle" x="371" y="-159.5" font-family="Helvetica,sans-Serif" font-size="10.00">roulette.Bet.place</text>
</a>
</g>
</g>
<!-- Node5&#45;&gt;Node11 -->
<g id="edge11" class="edge"><title>Node5&#45;&gt;Node11</title>
<path fill="none" stroke="midnightblue" d="M229.525,-148.242C254.476,-150.686 284.265,-153.603 309.978,-156.122"/>
<polygon fill="midnightblue" stroke="midnightblue" points="309.688,-159.61 319.981,-157.101 310.37,-152.643 309.688,-159.61"/>
</g>
<!-- Node12 -->
<g id="node12" class="node"><title>Node12</title>
<g id="a_node12"><a xlink:href="../../d6/d07/classroulette_1_1_wheel.html#a554d8a363350e9dcfc3821556b2dee0e" target="_top" xlink:title="roulette.Wheel.spin">
<polygon fill="white" stroke="black" points="317,-114.5 317,-133.5 425,-133.5 425,-114.5 317,-114.5"/>
<text text-anchor="middle" x="371" y="-121.5" font-family="Helvetica,sans-Serif" font-size="10.00">roulette.Wheel.spin</text>
</a>
</g>
</g>
<!-- Node5&#45;&gt;Node12 -->
<g id="edge12" class="edge"><title>Node5&#45;&gt;Node12</title>
<path fill="none" stroke="midnightblue" d="M229.525,-137.758C253.478,-135.412 281.891,-132.629 306.875,-130.182"/>
<polygon fill="midnightblue" stroke="midnightblue" points="307.374,-133.65 316.986,-129.192 306.692,-126.684 307.374,-133.65"/>
</g>
<!-- Node15 -->
<g id="node15" class="node"><title>Node15</title>
<g id="a_node15"><a xlink:href="../../d1/daa/classroulette_1_1_bet.html#ab4b9a3a30743f495599154f90afb341d" target="_top" xlink:title="roulette.Bet.isMade">
<polygon fill="white" stroke="black" points="316,-76.5 316,-95.5 426,-95.5 426,-76.5 316,-76.5"/>
<text text-anchor="middle" x="371" y="-83.5" font-family="Helvetica,sans-Serif" font-size="10.00">roulette.Bet.isMade</text>
</a>
</g>
</g>
<!-- Node5&#45;&gt;Node15 -->
<g id="edge15" class="edge"><title>Node5&#45;&gt;Node15</title>
<path fill="none" stroke="midnightblue" d="M200.605,-133.385C222.32,-125.13 254.946,-113.288 284,-105 293.058,-102.416 302.736,-99.9756 312.212,-97.7591"/>
<polygon fill="midnightblue" stroke="midnightblue" points="313.006,-101.168 321.979,-95.5337 311.451,-94.3428 313.006,-101.168"/>
</g>
<!-- Node16 -->
<g id="node16" class="node"><title>Node16</title>
<g id="a_node16"><a xlink:href="../../d1/daa/classroulette_1_1_bet.html#a6c8237392f01576f85bc5167f5b71a90" target="_top" xlink:title="roulette.Bet.payout">
<polygon fill="white" stroke="black" points="316,-38.5 316,-57.5 426,-57.5 426,-38.5 316,-38.5"/>
<text text-anchor="middle" x="371" y="-45.5" font-family="Helvetica,sans-Serif" font-size="10.00">roulette.Bet.payout</text>
</a>
</g>
</g>
<!-- Node5&#45;&gt;Node16 -->
<g id="edge16" class="edge"><title>Node5&#45;&gt;Node16</title>
<path fill="none" stroke="midnightblue" d="M186.464,-133.443C204.803,-117.227 244.561,-84.3915 284,-67 290.907,-63.9543 298.348,-61.3767 305.86,-59.1999"/>
<polygon fill="midnightblue" stroke="midnightblue" points="306.979,-62.5239 315.739,-56.5635 305.174,-55.7606 306.979,-62.5239"/>
</g>
<!-- Node17 -->
<g id="node17" class="node"><title>Node17</title>
<g id="a_node17"><a xlink:href="../../d8/d06/classroulette_1_1_gambler.html#a5bd476cef22a22e8711d9d3f7acbd8b2" target="_top" xlink:title="roulette.Gambler.updateBankroll">
<polygon fill="white" stroke="black" points="284.5,-0.5 284.5,-19.5 457.5,-19.5 457.5,-0.5 284.5,-0.5"/>
<text text-anchor="middle" x="371" y="-7.5" font-family="Helvetica,sans-Serif" font-size="10.00">roulette.Gambler.updateBankroll</text>
</a>
</g>
</g>
<!-- Node5&#45;&gt;Node17 -->
<g id="edge17" class="edge"><title>Node5&#45;&gt;Node17</title>
<path fill="none" stroke="midnightblue" d="M182.209,-133.212C196.928,-110.874 236.307,-55.9868 284,-29 288.001,-26.7362 292.248,-24.7421 296.628,-22.9856"/>
<polygon fill="midnightblue" stroke="midnightblue" points="298.142,-26.1616 306.386,-19.5071 295.792,-19.568 298.142,-26.1616"/>
</g>
<!-- Node7 -->
<g id="node7" class="node"><title>Node7</title>
<g id="a_node7"><a xlink:href="../../dd/d87/classutil_1_1_console_reader.html#a501aaaee9e742c28b8731598c964d82e" target="_top" xlink:title="util.ConsoleReader.promptInt">
<polygon fill="white" stroke="black" points="674.5,-228.5 674.5,-247.5 829.5,-247.5 829.5,-228.5 674.5,-228.5"/>
<text text-anchor="middle" x="752" y="-235.5" font-family="Helvetica,sans-Serif" font-size="10.00">util.ConsoleReader.promptInt</text>
</a>
</g>
</g>
<!-- Node6&#45;&gt;Node7 -->
<g id="edge6" class="edge"><title>Node6&#45;&gt;Node7</title>
<path fill="none" stroke="midnightblue" d="M637.613,-238C646.375,-238 655.412,-238 664.38,-238"/>
<polygon fill="midnightblue" stroke="midnightblue" points="664.458,-241.5 674.458,-238 664.458,-234.5 664.458,-241.5"/>
</g>
<!-- Node8 -->
<g id="node8" class="node"><title>Node8</title>
<g id="a_node8"><a xlink:href="../../dd/d87/classutil_1_1_console_reader.html#a1c9f3a0d6f36a1b8366df3c29c97f22a" target="_top" xlink:title="util.ConsoleReader.prompt\lString">
<polygon fill="white" stroke="black" points="866.5,-223 866.5,-253 1009.5,-253 1009.5,-223 866.5,-223"/>
<text text-anchor="start" x="874.5" y="-241" font-family="Helvetica,sans-Serif" font-size="10.00">util.ConsoleReader.prompt</text>
<text text-anchor="middle" x="938" y="-230" font-family="Helvetica,sans-Serif" font-size="10.00">String</text>
</a>
</g>
</g>
<!-- Node7&#45;&gt;Node8 -->
<g id="edge7" class="edge"><title>Node7&#45;&gt;Node8</title>
<path fill="none" stroke="midnightblue" d="M829.7,-238C838.418,-238 847.324,-238 856.094,-238"/>
<polygon fill="midnightblue" stroke="midnightblue" points="856.306,-241.5 866.306,-238 856.306,-234.5 856.306,-241.5"/>
</g>
<!-- Node10&#45;&gt;Node6 -->
<g id="edge10" class="edge"><title>Node10&#45;&gt;Node6</title>
<path fill="none" stroke="midnightblue" d="M420.702,-209.589C440.07,-213.402 462.874,-217.892 484.564,-222.163"/>
<polygon fill="midnightblue" stroke="midnightblue" points="483.947,-225.609 494.435,-224.106 485.3,-218.74 483.947,-225.609"/>
</g>
<!-- Node13 -->
<g id="node13" class="node"><title>Node13</title>
<g id="a_node13"><a xlink:href="../../d6/d07/classroulette_1_1_wheel.html#af6699aa89a029f8b8900f0970db8cdaa" target="_top" xlink:title="roulette.Wheel.getColor">
<polygon fill="white" stroke="black" points="501.5,-133.5 501.5,-152.5 630.5,-152.5 630.5,-133.5 501.5,-133.5"/>
<text text-anchor="middle" x="566" y="-140.5" font-family="Helvetica,sans-Serif" font-size="10.00">roulette.Wheel.getColor</text>
</a>
</g>
</g>
<!-- Node12&#45;&gt;Node13 -->
<g id="edge13" class="edge"><title>Node12&#45;&gt;Node13</title>
<path fill="none" stroke="midnightblue" d="M425.249,-129.242C445.665,-131.252 469.337,-133.582 491.331,-135.748"/>
<polygon fill="midnightblue" stroke="midnightblue" points="491.005,-139.232 501.3,-136.729 491.691,-132.266 491.005,-139.232"/>
</g>
<!-- Node14 -->
<g id="node14" class="node"><title>Node14</title>
<g id="a_node14"><a xlink:href="../../d6/d07/classroulette_1_1_wheel.html#ac4db6f5f5c751d9944b605c79e20db6a" target="_top" xlink:title="roulette.Wheel.getNumber">
<polygon fill="white" stroke="black" points="494.5,-95.5 494.5,-114.5 637.5,-114.5 637.5,-95.5 494.5,-95.5"/>
<text text-anchor="middle" x="566" y="-102.5" font-family="Helvetica,sans-Serif" font-size="10.00">roulette.Wheel.getNumber</text>
</a>
</g>
</g>
<!-- Node12&#45;&gt;Node14 -->
<g id="edge14" class="edge"><title>Node12&#45;&gt;Node14</title>
<path fill="none" stroke="midnightblue" d="M425.249,-118.758C443.48,-116.963 464.308,-114.913 484.218,-112.953"/>
<polygon fill="midnightblue" stroke="midnightblue" points="484.605,-116.432 494.214,-111.969 483.919,-109.465 484.605,-116.432"/>
</g>
</g>
</svg>
        <g id="navigator" transform="translate(0 0)" fill="#404254">
                <rect fill="#f2f5e9" fill-opacity="0.5" stroke="#606060" stroke-width=".5" x="0" y="0" width="60" height="60"/>
                <use id="zoomplus" xlink:href="#zoomPlus" x="17" y="9" onmousedown="handleZoom(evt,'in')"/>
                <use id="zoomminus" xlink:href="#zoomMin" x="42" y="9" onmousedown="handleZoom(evt,'out')"/>
                <use id="reset" xlink:href="#resetDef" x="30" y="36" onmousedown="handleReset()"/>
                <g id="arrowUp" xlink:href="#dirArrow" transform="translate(30 24)" onmousedown="handlePan(0,-1)">
                  <use xlink:href="#rim" fill="#404040">
                        <set attributeName="fill" to="#808080" begin="arrowUp.mouseover" end="arrowUp.mouseout"/>
                  </use>
                  <path fill="none" stroke="white" stroke-width="1.5" d="M0,-3.0v7 M-2.5,-0.5L0,-3.0L2.5,-0.5"/>
                </g>
                <g id="arrowRight" xlink:href="#dirArrow" transform="rotate(90) translate(36 -43)" onmousedown="handlePan(1,0)">
                  <use xlink:href="#rim" fill="#404040">
                        <set attributeName="fill" to="#808080" begin="arrowRight.mouseover" end="arrowRight.mouseout"/>
                  </use>
                  <path fill="none" stroke="white" stroke-width="1.5" d="M0,-3.0v7 M-2.5,-0.5L0,-3.0L2.5,-0.5"/>
                </g>
                <g id="arrowDown" xlink:href="#dirArrow" transform="rotate(180) translate(-30 -48)" onmousedown="handlePan(0,1)">
                  <use xlink:href="#rim" fill="#404040">
                        <set attributeName="fill" to="#808080" begin="arrowDown.mouseover" end="arrowDown.mouseout"/>
                  </use>
                  <path fill="none" stroke="white" stroke-width="1.5" d="M0,-3.0v7 M-2.5,-0.5L0,-3.0L2.5,-0.5"/>
                </g>
                <g id="arrowLeft" xlink:href="#dirArrow" transform="rotate(270) translate(-36 17)" onmousedown="handlePan(-1,0)">
                  <use xlink:href="#rim" fill="#404040">
                        <set attributeName="fill" to="#808080" begin="arrowLeft.mouseover" end="arrowLeft.mouseout"/>
                  </use>
                  <path fill="none" stroke="white" stroke-width="1.5" d="M0,-3.0v7 M-2.5,-0.5L0,-3.0L2.5,-0.5"/>
                </g>
        </g>
        <svg viewBox="0 0 15 15" width="100%" height="30px" preserveAspectRatio="xMaxYMin meet">
         <g id="arrow_out" transform="scale(0.3 0.3)">
          <a xlink:href="class_main_a8a5d0f827edddff706cc0e6740d0579a_cgraph_org.svg" target="_base">
           <rect id="button" ry="5" rx="5" y="6" x="6" height="38" width="38"
                fill="#f2f5e9" fill-opacity="0.5" stroke="#606060" stroke-width="1.0"/>
           <path id="arrow"
             d="M 11.500037,31.436501 C 11.940474,20.09759 22.043105,11.32322 32.158766,21.979434 L 37.068811,17.246167 C 37.068811,17.246167 37.088388,32 37.088388,32 L 22.160133,31.978069 C 22.160133,31.978069 26.997745,27.140456 26.997745,27.140456 C 18.528582,18.264221 13.291696,25.230495 11.500037,31.436501 z"
             style="fill:#404040;"/>
          </a>
         </g>
        </svg>
</svg>
