<?xml version="1.0" encoding="UTF-8" standalone="no"?>
<!DOCTYPE svg PUBLIC "-//W3C//DTD SVG 1.1//EN"
 "http://www.w3.org/Graphics/SVG/1.1/DTD/svg11.dtd">
<!-- Generated by graphviz version 2.36.0 (20140111.2315)
 -->
<!-- Title: Main.main Pages: 1 -->
<svg width="1020pt" height="370pt"
 viewBox="0.00 0.00 1020.00 370.00" xmlns="http://www.w3.org/2000/svg" xmlns:xlink="http://www.w3.org/1999/xlink">
<g id="graph0" class="graph" transform="scale(1 1) rotate(0) translate(4 366)">
<title>Main.main</title>
<polygon fill="white" stroke="none" points="-4,4 -4,-366 1016,-366 1016,4 -4,4"/>
<!-- Node1 -->
<g id="node1" class="node"><title>Node1</title>
<polygon fill="#bfbfbf" stroke="black" points="0,-228.5 0,-247.5 66,-247.5 66,-228.5 0,-228.5"/>
<text text-anchor="middle" x="33" y="-235.5" font-family="Helvetica,sans-Serif" font-size="10.00">Main.main</text>
</g>
<!-- Node2 -->
<g id="node2" class="node"><title>Node2</title>
<g id="a_node2"><a xlink:href="../../d8/d06/classroulette_1_1_gambler.html#affbe03dbd865c800a75c28ea51eb10e7" target="_top" xlink:title="roulette.Gambler.getName">
<polygon fill="white" stroke="black" points="102,-285.5 102,-304.5 248,-304.5 248,-285.5 102,-285.5"/>
<text text-anchor="middle" x="175" y="-292.5" font-family="Helvetica,sans-Serif" font-size="10.00">roulette.Gambler.getName</text>
</a>
</g>
</g>
<!-- Node1&#45;&gt;Node2 -->
<g id="edge1" class="edge"><title>Node1&#45;&gt;Node2</title>
<path fill="none" stroke="midnightblue" d="M48.5858,-247.576C62.0034,-256.034 82.6884,-268.202 102,-276 107.979,-278.414 114.361,-280.609 120.762,-282.578"/>
<polygon fill="midnightblue" stroke="midnightblue" points="120.202,-286.06 130.781,-285.486 122.153,-279.338 120.202,-286.06"/>
</g>
<!-- Node3 -->
<g id="node3" class="node"><title>Node3</title>
<g id="a_node3"><a xlink:href="../../d5/d79/classroulette_1_1_game.html#ae1d34e8b44904d0d6ab9c26271a50f96" target="_top" xlink:title="roulette.Game.getName">
<polygon fill="white" stroke="black" points="108,-247.5 108,-266.5 242,-266.5 242,-247.5 108,-247.5"/>
<text text-anchor="middle" x="175" y="-254.5" font-family="Helvetica,sans-Serif" font-size="10.00">roulette.Game.getName</text>
</a>
</g>
</g>
<!-- Node1&#45;&gt;Node3 -->
<g id="edge2" class="edge"><title>Node1&#45;&gt;Node3</title>
<path fill="none" stroke="midnightblue" d="M66.1188,-242.359C75.6372,-243.651 86.4927,-245.124 97.5649,-246.627"/>
<polygon fill="midnightblue" stroke="midnightblue" points="97.382,-250.134 107.762,-248.011 98.3234,-243.197 97.382,-250.134"/>
</g>
<!-- Node4 -->
<g id="node4" class="node"><title>Node4</title>
<g id="a_node4"><a xlink:href="../../d8/d06/classroulette_1_1_gambler.html#a6763a051be9a023a23898b42ee340cc7" target="_top" xlink:title="roulette.Gambler.isSolvent">
<polygon fill="white" stroke="black" points="103,-209.5 103,-228.5 247,-228.5 247,-209.5 103,-209.5"/>
<text text-anchor="middle" x="175" y="-216.5" font-family="Helvetica,sans-Serif" font-size="10.00">roulette.Gambler.isSolvent</text>
</a>
</g>
</g>
<!-- Node1&#45;&gt;Node4 -->
<g id="edge3" class="edge"><title>Node1&#45;&gt;Node4</title>
<path fill="none" stroke="midnightblue" d="M66.1188,-233.641C74.507,-232.503 83.9337,-231.223 93.6318,-229.907"/>
<polygon fill="midnightblue" stroke="midnightblue" points="94.3661,-233.34 103.805,-228.527 93.4247,-226.403 94.3661,-233.34"/>
</g>
<!-- Node5 -->
<g id="node5" class="node"><title>Node5</title>
<g id="a_node5"><a xlink:href="../../d5/d79/classroulette_1_1_game.html#a6634aba4f39043dda3c6bcfa5229971e" target="_top" xlink:title="roulette.Game.play">
<polygon fill="white" stroke="black" points="120.5,-171.5 120.5,-190.5 229.5,-190.5 229.5,-171.5 120.5,-171.5"/>
<text text-anchor="middle" x="175" y="-178.5" font-family="Helvetica,sans-Serif" font-size="10.00">roulette.Game.play</text>
</a>
</g>
</g>
<!-- Node1&#45;&gt;Node5 -->
<g id="edge4" class="edge"><title>Node1&#45;&gt;Node5</title>
<path fill="none" stroke="midnightblue" d="M48.5858,-228.424C62.0034,-219.966 82.6884,-207.798 102,-200 107.979,-197.586 114.361,-195.391 120.762,-193.422"/>
<polygon fill="midnightblue" stroke="midnightblue" points="122.153,-196.662 130.781,-190.514 120.202,-189.94 122.153,-196.662"/>
</g>
<!-- Node6 -->
<g id="node6" class="node"><title>Node6</title>
<g id="a_node6"><a xlink:href="../../dd/d87/classutil_1_1_console_reader.html#ac25a6a9c672f8da0b7f37104d33a6cd5" target="_top" xlink:title="util.ConsoleReader.prompt\lRange">
<polygon fill="white" stroke="black" points="495.5,-264 495.5,-294 638.5,-294 638.5,-264 495.5,-264"/>
<text text-anchor="start" x="503.5" y="-282" font-family="Helvetica,sans-Serif" font-size="10.00">util.ConsoleReader.prompt</text>
<text text-anchor="middle" x="567" y="-271" font-family="Helvetica,sans-Serif" font-size="10.00">Range</text>
</a>
</g>
</g>
<!-- Node5&#45;&gt;Node6 -->
<g id="edge5" class="edge"><title>Node5&#45;&gt;Node6</title>
<path fill="none" stroke="midnightblue" d="M229.597,-190.251C236.151,-192.76 242.475,-195.948 248,-200 272.162,-217.719 258.342,-241.526 284,-257 344.225,-293.319 425.322,-295.887 485.091,-291.101"/>
<polygon fill="midnightblue" stroke="midnightblue" points="485.589,-294.57 495.241,-290.201 484.971,-287.598 485.589,-294.57"/>
</g>
<!-- Node9 -->
<g id="node9" class="node"><title>Node9</title>
<g id="a_node9"><a xlink:href="../../d8/d06/classroulette_1_1_gambler.html#a63da3e4ca7ef7e43e03917df1c16dc12" target="_top" xlink:title="roulette.Gambler.getBankroll">
<polygon fill="white" stroke="black" points="293.5,-304.5 293.5,-323.5 448.5,-323.5 448.5,-304.5 293.5,-304.5"/>
<text text-anchor="middle" x="371" y="-311.5" font-family="Helvetica,sans-Serif" font-size="10.00">roulette.Gambler.getBankroll</text>
</a>
</g>
</g>
<!-- Node5&#45;&gt;Node9 -->
<g id="edge8" class="edge"><title>Node5&#45;&gt;Node9</title>
<path fill="none" stroke="midnightblue" d="M229.608,-189.034C236.313,-191.726 242.674,-195.289 248,-200 280.271,-228.541 251.932,-261.231 284,-290 288.509,-294.045 293.645,-297.414 299.112,-300.22"/>
<polygon fill="midnightblue" stroke="midnightblue" points="298.014,-303.562 308.573,-304.43 300.859,-297.167 298.014,-303.562"/>
</g>
<!-- Node10 -->
<g id="node10" class="node"><title>Node10</title>
<g id="a_node10"><a xlink:href="../../d5/d79/classroulette_1_1_game.html#ab1fc928530a1dc083904ba2ff19e1e8a" target="_top" xlink:title="roulette.Game.promptForBet">
<polygon fill="white" stroke="black" points="293,-342.5 293,-361.5 449,-361.5 449,-342.5 293,-342.5"/>
<text text-anchor="middle" x="371" y="-349.5" font-family="Helvetica,sans-Serif" font-size="10.00">roulette.Game.promptForBet</text>
</a>
</g>
</g>
<!-- Node5&#45;&gt;Node10 -->
<g id="edge9" class="edge"><title>Node5&#45;&gt;Node10</title>
<path fill="none" stroke="midnightblue" d="M229.768,-188.326C236.531,-191.117 242.865,-194.897 248,-200 291.439,-243.165 239.694,-290.725 284,-333 285.493,-334.425 287.069,-335.753 288.713,-336.989"/>
<polygon fill="midnightblue" stroke="midnightblue" points="287.111,-340.115 297.447,-342.441 290.817,-334.177 287.111,-340.115"/>
</g>
<!-- Node12 -->
<g id="node12" class="node"><title>Node12</title>
<g id="a_node12"><a xlink:href="../../d5/d79/classroulette_1_1_game.html#a01744cfd81ef2acad477be49a93c7ee7" target="_top" xlink:title="roulette.Game.placeBet">
<polygon fill="white" stroke="black" points="305.5,-228.5 305.5,-247.5 436.5,-247.5 436.5,-228.5 305.5,-228.5"/>
<text text-anchor="middle" x="371" y="-235.5" font-family="Helvetica,sans-Serif" font-size="10.00">roulette.Game.placeBet</text>
</a>
</g>
</g>
<!-- Node5&#45;&gt;Node12 -->
<g id="edge12" class="edge"><title>Node5&#45;&gt;Node12</title>
<path fill="none" stroke="midnightblue" d="M218.774,-190.573C228.517,-193.224 238.726,-196.383 248,-200 264.855,-206.573 267.015,-212.77 284,-219 291.087,-221.599 298.639,-223.903 306.212,-225.927"/>
<polygon fill="midnightblue" stroke="midnightblue" points="305.592,-229.38 316.144,-228.43 307.303,-222.593 305.592,-229.38"/>
</g>
<!-- Node14 -->
<g id="node14" class="node"><title>Node14</title>
<g id="a_node14"><a xlink:href="../../d6/d07/classroulette_1_1_wheel.html#a27fab03e8b4d589c03199ac774c06ffa" target="_top" xlink:title="roulette.Wheel.spin">
<polygon fill="white" stroke="black" points="317,-190.5 317,-209.5 425,-209.5 425,-190.5 317,-190.5"/>
<text text-anchor="middle" x="371" y="-197.5" font-family="Helvetica,sans-Serif" font-size="10.00">roulette.Wheel.spin</text>
</a>
</g>
</g>
<!-- Node5&#45;&gt;Node14 -->
<g id="edge16" class="edge"><title>Node5&#45;&gt;Node14</title>
<path fill="none" stroke="midnightblue" d="M229.525,-186.242C253.478,-188.588 281.891,-191.371 306.875,-193.818"/>
<polygon fill="midnightblue" stroke="midnightblue" points="306.692,-197.316 316.986,-194.808 307.374,-190.35 306.692,-197.316"/>
</g>
<!-- Node15 -->
<g id="node15" class="node"><title>Node15</title>
<g id="a_node15"><a xlink:href="../../d6/d07/classroulette_1_1_wheel.html#af6699aa89a029f8b8900f0970db8cdaa" target="_top" xlink:title="roulette.Wheel.getColor">
<polygon fill="white" stroke="black" points="502.5,-133.5 502.5,-152.5 631.5,-152.5 631.5,-133.5 502.5,-133.5"/>
<text text-anchor="middle" x="567" y="-140.5" font-family="Helvetica,sans-Serif" font-size="10.00">roulette.Wheel.getColor</text>
</a>
</g>
</g>
<!-- Node5&#45;&gt;Node15 -->
<g id="edge17" class="edge"><title>Node5&#45;&gt;Node15</title>
<path fill="none" stroke="midnightblue" d="M229.818,-175.756C298.012,-169.112 415.855,-157.63 492.349,-150.176"/>
<polygon fill="midnightblue" stroke="midnightblue" points="492.781,-153.651 502.394,-149.197 492.102,-146.684 492.781,-153.651"/>
</g>
<!-- Node16 -->
<g id="node16" class="node"><title>Node16</title>
<g id="a_node16"><a xlink:href="../../d6/d07/classroulette_1_1_wheel.html#ac4db6f5f5c751d9944b605c79e20db6a" target="_top" xlink:title="roulette.Wheel.getNumber">
<polygon fill="white" stroke="black" points="495.5,-86.5 495.5,-105.5 638.5,-105.5 638.5,-86.5 495.5,-86.5"/>
<text text-anchor="middle" x="567" y="-93.5" font-family="Helvetica,sans-Serif" font-size="10.00">roulette.Wheel.getNumber</text>
</a>
</g>
</g>
<!-- Node5&#45;&gt;Node16 -->
<g id="edge18" class="edge"><title>Node5&#45;&gt;Node16</title>
<path fill="none" stroke="midnightblue" d="M185.319,-171.474C202.79,-154.355 242.467,-118.881 284,-105 349.191,-83.2114 427.644,-82.6052 485.233,-86.506"/>
<polygon fill="midnightblue" stroke="midnightblue" points="485.142,-90.0088 495.373,-87.2538 485.657,-83.0278 485.142,-90.0088"/>
</g>
<!-- Node17 -->
<g id="node17" class="node"><title>Node17</title>
<g id="a_node17"><a xlink:href="../../d5/d79/classroulette_1_1_game.html#a6c9017ccc8b95e0f5fb69681e78d9cac" target="_top" xlink:title="roulette.Game.betIsMade">
<polygon fill="white" stroke="black" points="301.5,-114.5 301.5,-133.5 440.5,-133.5 440.5,-114.5 301.5,-114.5"/>
<text text-anchor="middle" x="371" y="-121.5" font-family="Helvetica,sans-Serif" font-size="10.00">roulette.Game.betIsMade</text>
</a>
</g>
</g>
<!-- Node5&#45;&gt;Node17 -->
<g id="edge19" class="edge"><title>Node5&#45;&gt;Node17</title>
<path fill="none" stroke="midnightblue" d="M206.665,-171.412C228.25,-164.717 257.842,-155.645 284,-148 297.279,-144.119 311.752,-140.027 324.972,-136.343"/>
<polygon fill="midnightblue" stroke="midnightblue" points="326.098,-139.663 334.797,-133.615 324.225,-132.918 326.098,-139.663"/>
</g>
<!-- Node18 -->
<g id="node18" class="node"><title>Node18</title>
<g id="a_node18"><a xlink:href="../../d1/daa/classroulette_1_1_bet.html#a2a5088e88de8398d09c81a19e5ecfe96" target="_top" xlink:title="roulette.Bet.getOdds">
<polygon fill="white" stroke="black" points="312.5,-38.5 312.5,-57.5 429.5,-57.5 429.5,-38.5 312.5,-38.5"/>
<text text-anchor="middle" x="371" y="-45.5" font-family="Helvetica,sans-Serif" font-size="10.00">roulette.Bet.getOdds</text>
</a>
</g>
</g>
<!-- Node5&#45;&gt;Node18 -->
<g id="edge22" class="edge"><title>Node5&#45;&gt;Node18</title>
<path fill="none" stroke="midnightblue" d="M182.88,-171.188C198.384,-149.821 238.289,-98.8489 284,-72 291.853,-67.3877 300.63,-63.6284 309.495,-60.5735"/>
<polygon fill="midnightblue" stroke="midnightblue" points="310.632,-63.8846 319.108,-57.528 308.518,-57.2115 310.632,-63.8846"/>
</g>
<!-- Node19 -->
<g id="node19" class="node"><title>Node19</title>
<g id="a_node19"><a xlink:href="../../d8/d06/classroulette_1_1_gambler.html#a5bd476cef22a22e8711d9d3f7acbd8b2" target="_top" xlink:title="roulette.Gambler.updateBankroll">
<polygon fill="white" stroke="black" points="284.5,-0.5 284.5,-19.5 457.5,-19.5 457.5,-0.5 284.5,-0.5"/>
<text text-anchor="middle" x="371" y="-7.5" font-family="Helvetica,sans-Serif" font-size="10.00">roulette.Gambler.updateBankroll</text>
</a>
</g>
</g>
<!-- Node5&#45;&gt;Node19 -->
<g id="edge23" class="edge"><title>Node5&#45;&gt;Node19</title>
<path fill="none" stroke="midnightblue" d="M179.881,-171.29C191.307,-144.034 227.602,-66.3737 284,-29 287.115,-26.9359 290.419,-25.0927 293.847,-23.4471"/>
<polygon fill="midnightblue" stroke="midnightblue" points="295.301,-26.6326 303.168,-19.5365 292.593,-20.1777 295.301,-26.6326"/>
</g>
<!-- Node7 -->
<g id="node7" class="node"><title>Node7</title>
<g id="a_node7"><a xlink:href="../../dd/d87/classutil_1_1_console_reader.html#a501aaaee9e742c28b8731598c964d82e" target="_top" xlink:title="util.ConsoleReader.promptInt">
<polygon fill="white" stroke="black" points="676.5,-269.5 676.5,-288.5 831.5,-288.5 831.5,-269.5 676.5,-269.5"/>
<text text-anchor="middle" x="754" y="-276.5" font-family="Helvetica,sans-Serif" font-size="10.00">util.ConsoleReader.promptInt</text>
</a>
</g>
</g>
<!-- Node6&#45;&gt;Node7 -->
<g id="edge6" class="edge"><title>Node6&#45;&gt;Node7</title>
<path fill="none" stroke="midnightblue" d="M638.732,-279C647.796,-279 657.156,-279 666.436,-279"/>
<polygon fill="midnightblue" stroke="midnightblue" points="666.456,-282.5 676.456,-279 666.456,-275.5 666.456,-282.5"/>
</g>
<!-- Node8 -->
<g id="node8" class="node"><title>Node8</title>
<g id="a_node8"><a xlink:href="../../dd/d87/classutil_1_1_console_reader.html#a1c9f3a0d6f36a1b8366df3c29c97f22a" target="_top" xlink:title="util.ConsoleReader.prompt\lString">
<polygon fill="white" stroke="black" points="868.5,-242 868.5,-272 1011.5,-272 1011.5,-242 868.5,-242"/>
<text text-anchor="start" x="876.5" y="-260" font-family="Helvetica,sans-Serif" font-size="10.00">util.ConsoleReader.prompt</text>
<text text-anchor="middle" x="940" y="-249" font-family="Helvetica,sans-Serif" font-size="10.00">String</text>
</a>
</g>
</g>
<!-- Node7&#45;&gt;Node8 -->
<g id="edge7" class="edge"><title>Node7&#45;&gt;Node8</title>
<path fill="none" stroke="midnightblue" d="M831.7,-269.829C840.418,-268.787 849.324,-267.722 858.094,-266.674"/>
<polygon fill="midnightblue" stroke="midnightblue" points="858.793,-270.115 868.306,-265.452 857.962,-263.165 858.793,-270.115"/>
</g>
<!-- Node10&#45;&gt;Node6 -->
<g id="edge11" class="edge"><title>Node10&#45;&gt;Node6</title>
<path fill="none" stroke="midnightblue" d="M424.88,-342.469C435.965,-339.875 447.479,-336.728 458,-333 483.474,-323.973 510.681,-310.343 531.415,-299.035"/>
<polygon fill="midnightblue" stroke="midnightblue" points="533.113,-302.096 540.168,-294.19 529.723,-295.971 533.113,-302.096"/>
</g>
<!-- Node11 -->
<g id="node11" class="node"><title>Node11</title>
<g id="a_node11"><a xlink:href="../../d1/daa/classroulette_1_1_bet.html#a0aec26450ea5aeb27412b75544b625ab" target="_top" xlink:title="roulette.Bet.getDescription">
<polygon fill="white" stroke="black" points="494,-342.5 494,-361.5 640,-361.5 640,-342.5 494,-342.5"/>
<text text-anchor="middle" x="567" y="-349.5" font-family="Helvetica,sans-Serif" font-size="10.00">roulette.Bet.getDescription</text>
</a>
</g>
</g>
<!-- Node10&#45;&gt;Node11 -->
<g id="edge10" class="edge"><title>Node10&#45;&gt;Node11</title>
<path fill="none" stroke="midnightblue" d="M449.231,-352C460.476,-352 472.092,-352 483.437,-352"/>
<polygon fill="midnightblue" stroke="midnightblue" points="483.763,-355.5 493.763,-352 483.763,-348.5 483.763,-355.5"/>
</g>
<!-- Node12&#45;&gt;Node6 -->
<g id="edge15" class="edge"><title>Node12&#45;&gt;Node6</title>
<path fill="none" stroke="midnightblue" d="M416.995,-247.509C437.367,-251.815 462.084,-257.038 485.482,-261.983"/>
<polygon fill="midnightblue" stroke="midnightblue" points="484.905,-265.439 495.413,-264.082 486.353,-258.59 484.905,-265.439"/>
</g>
<!-- Node13 -->
<g id="node13" class="node"><title>Node13</title>
<g id="a_node13"><a xlink:href="../../dd/d87/classutil_1_1_console_reader.html#a6b469ca2ba9c0f0e52634a3affb2e9e5" target="_top" xlink:title="util.ConsoleReader.prompt\lOneOf">
<polygon fill="white" stroke="black" points="682.5,-220 682.5,-250 825.5,-250 825.5,-220 682.5,-220"/>
<text text-anchor="start" x="690.5" y="-238" font-family="Helvetica,sans-Serif" font-size="10.00">util.ConsoleReader.prompt</text>
<text text-anchor="middle" x="754" y="-227" font-family="Helvetica,sans-Serif" font-size="10.00">OneOf</text>
</a>
</g>
</g>
<!-- Node12&#45;&gt;Node13 -->
<g id="edge13" class="edge"><title>Node12&#45;&gt;Node13</title>
<path fill="none" stroke="midnightblue" d="M436.631,-237.491C501.587,-236.98 601.883,-236.19 672.087,-235.637"/>
<polygon fill="midnightblue" stroke="midnightblue" points="672.247,-239.136 682.219,-235.557 672.192,-232.136 672.247,-239.136"/>
</g>
<!-- Node13&#45;&gt;Node8 -->
<g id="edge14" class="edge"><title>Node13&#45;&gt;Node8</title>
<path fill="none" stroke="midnightblue" d="M825.613,-243.443C836.321,-244.723 847.438,-246.052 858.339,-247.356"/>
<polygon fill="midnightblue" stroke="midnightblue" points="857.927,-250.831 868.272,-248.543 858.758,-243.881 857.927,-250.831"/>
</g>
<!-- Node17&#45;&gt;Node15 -->
<g id="edge20" class="edge"><title>Node17&#45;&gt;Node15</title>
<path fill="none" stroke="midnightblue" d="M440.67,-130.725C457.279,-132.352 475.102,-134.098 491.947,-135.747"/>
<polygon fill="midnightblue" stroke="midnightblue" points="491.995,-139.269 502.288,-136.76 492.677,-132.302 491.995,-139.269"/>
</g>
<!-- Node17&#45;&gt;Node16 -->
<g id="edge21" class="edge"><title>Node17&#45;&gt;Node16</title>
<path fill="none" stroke="midnightblue" d="M437.95,-114.481C454.662,-112.069 472.749,-109.459 489.917,-106.981"/>
<polygon fill="midnightblue" stroke="midnightblue" points="490.505,-110.433 499.903,-105.54 489.505,-103.504 490.505,-110.433"/>
</g>
</g>
</svg>
