<?xml version="1.0" encoding="UTF-8" standalone="no"?>
<!DOCTYPE svg PUBLIC "-//W3C//DTD SVG 1.1//EN"
 "http://www.w3.org/Graphics/SVG/1.1/DTD/svg11.dtd">
<!-- Generated by graphviz version 2.36.0 (20140111.2315)
 -->
<!-- Title: roulette.Game.play Pages: 1 -->
<svg width="882pt" height="372pt"
 viewBox="0.00 0.00 882.00 372.35" xmlns="http://www.w3.org/2000/svg" xmlns:xlink="http://www.w3.org/1999/xlink">
<g id="graph0" class="graph" transform="scale(1 1) rotate(0) translate(4 368.351)">
<title>roulette.Game.play</title>
<polygon fill="white" stroke="none" points="-4,4 -4,-368.351 878,-368.351 878,4 -4,4"/>
<!-- Node1 -->
<g id="node1" class="node"><title>Node1</title>
<polygon fill="#bfbfbf" stroke="black" points="0.5,-171.5 0.5,-190.5 109.5,-190.5 109.5,-171.5 0.5,-171.5"/>
<text text-anchor="middle" x="55" y="-178.5" font-family="Helvetica,sans-Serif" font-size="10.00">roulette.Game.play</text>
</g>
<!-- Node2 -->
<g id="node2" class="node"><title>Node2</title>
<g id="a_node2"><a xlink:href="../../d5/d79/classroulette_1_1_game.html#a6c9017ccc8b95e0f5fb69681e78d9cac" target="_top" xlink:title="roulette.Game.betIsMade">
<polygon fill="white" stroke="black" points="163.5,-304.5 163.5,-323.5 302.5,-323.5 302.5,-304.5 163.5,-304.5"/>
<text text-anchor="middle" x="233" y="-311.5" font-family="Helvetica,sans-Serif" font-size="10.00">roulette.Game.betIsMade</text>
</a>
</g>
</g>
<!-- Node1&#45;&gt;Node2 -->
<g id="edge1" class="edge"><title>Node1&#45;&gt;Node2</title>
<path fill="none" stroke="midnightblue" d="M61.1282,-190.526C73.0643,-211.769 104.848,-263.252 146,-290 153.006,-294.554 160.875,-298.254 168.932,-301.258"/>
<polygon fill="midnightblue" stroke="midnightblue" points="167.843,-304.585 178.438,-304.475 170.087,-297.954 167.843,-304.585"/>
</g>
<!-- Node3 -->
<g id="node3" class="node"><title>Node3</title>
<g id="a_node3"><a xlink:href="../../d6/d07/classroulette_1_1_wheel.html#af6699aa89a029f8b8900f0970db8cdaa" target="_top" xlink:title="roulette.Wheel.getColor">
<polygon fill="white" stroke="black" points="364.5,-332.5 364.5,-351.5 493.5,-351.5 493.5,-332.5 364.5,-332.5"/>
<text text-anchor="middle" x="429" y="-339.5" font-family="Helvetica,sans-Serif" font-size="10.00">roulette.Wheel.getColor</text>
</a>
</g>
</g>
<!-- Node1&#45;&gt;Node3 -->
<g id="edge5" class="edge"><title>Node1&#45;&gt;Node3</title>
<path fill="none" stroke="midnightblue" d="M58.3038,-190.784C65.5161,-218.936 90.5656,-300.218 146,-333 218.539,-375.898 320.946,-365.201 380.312,-353.572"/>
<polygon fill="midnightblue" stroke="midnightblue" points="381.073,-356.988 390.169,-351.554 379.67,-350.13 381.073,-356.988"/>
</g>
<!-- Node4 -->
<g id="node4" class="node"><title>Node4</title>
<g id="a_node4"><a xlink:href="../../d6/d07/classroulette_1_1_wheel.html#ac4db6f5f5c751d9944b605c79e20db6a" target="_top" xlink:title="roulette.Wheel.getNumber">
<polygon fill="white" stroke="black" points="357.5,-275.5 357.5,-294.5 500.5,-294.5 500.5,-275.5 357.5,-275.5"/>
<text text-anchor="middle" x="429" y="-282.5" font-family="Helvetica,sans-Serif" font-size="10.00">roulette.Wheel.getNumber</text>
</a>
</g>
</g>
<!-- Node1&#45;&gt;Node4 -->
<g id="edge6" class="edge"><title>Node1&#45;&gt;Node4</title>
<path fill="none" stroke="midnightblue" d="M63.7256,-190.532C77.9713,-207.332 110.213,-241.865 146,-257 209.906,-284.028 288.986,-289.774 347.126,-289.484"/>
<polygon fill="midnightblue" stroke="midnightblue" points="347.404,-292.981 357.364,-289.37 347.326,-285.982 347.404,-292.981"/>
</g>
<!-- Node5 -->
<g id="node5" class="node"><title>Node5</title>
<g id="a_node5"><a xlink:href="../../d8/d06/classroulette_1_1_gambler.html#a63da3e4ca7ef7e43e03917df1c16dc12" target="_top" xlink:title="roulette.Gambler.getBankroll">
<polygon fill="white" stroke="black" points="155.5,-228.5 155.5,-247.5 310.5,-247.5 310.5,-228.5 155.5,-228.5"/>
<text text-anchor="middle" x="233" y="-235.5" font-family="Helvetica,sans-Serif" font-size="10.00">roulette.Gambler.getBankroll</text>
</a>
</g>
</g>
<!-- Node1&#45;&gt;Node5 -->
<g id="edge4" class="edge"><title>Node1&#45;&gt;Node5</title>
<path fill="none" stroke="midnightblue" d="M75.6253,-190.514C93.5996,-198.929 121.113,-211.07 146,-219 154.256,-221.631 163.072,-224.028 171.794,-226.166"/>
<polygon fill="midnightblue" stroke="midnightblue" points="171.032,-229.582 181.568,-228.469 172.637,-222.769 171.032,-229.582"/>
</g>
<!-- Node6 -->
<g id="node6" class="node"><title>Node6</title>
<g id="a_node6"><a xlink:href="../../d1/daa/classroulette_1_1_bet.html#a2a5088e88de8398d09c81a19e5ecfe96" target="_top" xlink:title="roulette.Bet.getOdds">
<polygon fill="white" stroke="black" points="174.5,-190.5 174.5,-209.5 291.5,-209.5 291.5,-190.5 174.5,-190.5"/>
<text text-anchor="middle" x="233" y="-197.5" font-family="Helvetica,sans-Serif" font-size="10.00">roulette.Bet.getOdds</text>
</a>
</g>
</g>
<!-- Node1&#45;&gt;Node6 -->
<g id="edge7" class="edge"><title>Node1&#45;&gt;Node6</title>
<path fill="none" stroke="midnightblue" d="M109.762,-186.804C126.912,-188.655 146.117,-190.729 164.133,-192.673"/>
<polygon fill="midnightblue" stroke="midnightblue" points="163.969,-196.176 174.287,-193.77 164.721,-189.216 163.969,-196.176"/>
</g>
<!-- Node7 -->
<g id="node7" class="node"><title>Node7</title>
<g id="a_node7"><a xlink:href="../../d5/d79/classroulette_1_1_game.html#a01744cfd81ef2acad477be49a93c7ee7" target="_top" xlink:title="roulette.Game.placeBet">
<polygon fill="white" stroke="black" points="167.5,-152.5 167.5,-171.5 298.5,-171.5 298.5,-152.5 167.5,-152.5"/>
<text text-anchor="middle" x="233" y="-159.5" font-family="Helvetica,sans-Serif" font-size="10.00">roulette.Game.placeBet</text>
</a>
</g>
</g>
<!-- Node1&#45;&gt;Node7 -->
<g id="edge8" class="edge"><title>Node1&#45;&gt;Node7</title>
<path fill="none" stroke="midnightblue" d="M109.762,-175.196C124.689,-173.585 141.172,-171.805 157.074,-170.089"/>
<polygon fill="midnightblue" stroke="midnightblue" points="157.85,-173.525 167.417,-168.972 157.099,-166.566 157.85,-173.525"/>
</g>
<!-- Node10 -->
<g id="node10" class="node"><title>Node10</title>
<g id="a_node10"><a xlink:href="../../dd/d87/classutil_1_1_console_reader.html#ac25a6a9c672f8da0b7f37104d33a6cd5" target="_top" xlink:title="util.ConsoleReader.prompt\lRange">
<polygon fill="white" stroke="black" points="357.5,-109 357.5,-139 500.5,-139 500.5,-109 357.5,-109"/>
<text text-anchor="start" x="365.5" y="-127" font-family="Helvetica,sans-Serif" font-size="10.00">util.ConsoleReader.prompt</text>
<text text-anchor="middle" x="429" y="-116" font-family="Helvetica,sans-Serif" font-size="10.00">Range</text>
</a>
</g>
</g>
<!-- Node1&#45;&gt;Node10 -->
<g id="edge17" class="edge"><title>Node1&#45;&gt;Node10</title>
<path fill="none" stroke="midnightblue" d="M73.6717,-171.454C91.3997,-162.385 119.764,-149.237 146,-143 212.539,-127.182 290.217,-122.956 347.181,-122.389"/>
<polygon fill="midnightblue" stroke="midnightblue" points="347.233,-125.888 357.21,-122.324 347.188,-118.889 347.233,-125.888"/>
</g>
<!-- Node12 -->
<g id="node12" class="node"><title>Node12</title>
<g id="a_node12"><a xlink:href="../../d5/d79/classroulette_1_1_game.html#ab1fc928530a1dc083904ba2ff19e1e8a" target="_top" xlink:title="roulette.Game.promptForBet">
<polygon fill="white" stroke="black" points="155,-76.5 155,-95.5 311,-95.5 311,-76.5 155,-76.5"/>
<text text-anchor="middle" x="233" y="-83.5" font-family="Helvetica,sans-Serif" font-size="10.00">roulette.Game.promptForBet</text>
</a>
</g>
</g>
<!-- Node1&#45;&gt;Node12 -->
<g id="edge14" class="edge"><title>Node1&#45;&gt;Node12</title>
<path fill="none" stroke="midnightblue" d="M65.6054,-171.246C81.1414,-156.008 113.352,-126.586 146,-110 155.018,-105.419 165.025,-101.614 174.933,-98.4872"/>
<polygon fill="midnightblue" stroke="midnightblue" points="176.167,-101.772 184.766,-95.5827 174.184,-95.0588 176.167,-101.772"/>
</g>
<!-- Node14 -->
<g id="node14" class="node"><title>Node14</title>
<g id="a_node14"><a xlink:href="../../d6/d07/classroulette_1_1_wheel.html#a27fab03e8b4d589c03199ac774c06ffa" target="_top" xlink:title="roulette.Wheel.spin">
<polygon fill="white" stroke="black" points="179,-38.5 179,-57.5 287,-57.5 287,-38.5 179,-38.5"/>
<text text-anchor="middle" x="233" y="-45.5" font-family="Helvetica,sans-Serif" font-size="10.00">roulette.Wheel.spin</text>
</a>
</g>
</g>
<!-- Node1&#45;&gt;Node14 -->
<g id="edge18" class="edge"><title>Node1&#45;&gt;Node14</title>
<path fill="none" stroke="midnightblue" d="M60.7311,-171.203C72.0655,-148.846 103.057,-93.9216 146,-67 153.077,-62.5635 161.049,-59.1552 169.213,-56.5383"/>
<polygon fill="midnightblue" stroke="midnightblue" points="170.171,-59.9046 178.842,-53.8157 168.266,-53.1687 170.171,-59.9046"/>
</g>
<!-- Node15 -->
<g id="node15" class="node"><title>Node15</title>
<g id="a_node15"><a xlink:href="../../d8/d06/classroulette_1_1_gambler.html#a5bd476cef22a22e8711d9d3f7acbd8b2" target="_top" xlink:title="roulette.Gambler.updateBankroll">
<polygon fill="white" stroke="black" points="146.5,-0.5 146.5,-19.5 319.5,-19.5 319.5,-0.5 146.5,-0.5"/>
<text text-anchor="middle" x="233" y="-7.5" font-family="Helvetica,sans-Serif" font-size="10.00">roulette.Gambler.updateBankroll</text>
</a>
</g>
</g>
<!-- Node1&#45;&gt;Node15 -->
<g id="edge19" class="edge"><title>Node1&#45;&gt;Node15</title>
<path fill="none" stroke="midnightblue" d="M58.7377,-171.313C66.9522,-144.116 94.0891,-66.5967 146,-29 148.663,-27.0717 151.484,-25.3332 154.42,-23.7663"/>
<polygon fill="midnightblue" stroke="midnightblue" points="155.912,-26.9326 163.523,-19.5622 152.977,-20.5776 155.912,-26.9326"/>
</g>
<!-- Node2&#45;&gt;Node3 -->
<g id="edge2" class="edge"><title>Node2&#45;&gt;Node3</title>
<path fill="none" stroke="midnightblue" d="M299.95,-323.519C317.305,-326.023 336.142,-328.742 353.894,-331.304"/>
<polygon fill="midnightblue" stroke="midnightblue" points="353.804,-334.828 364.202,-332.792 354.804,-327.899 353.804,-334.828"/>
</g>
<!-- Node2&#45;&gt;Node4 -->
<g id="edge3" class="edge"><title>Node2&#45;&gt;Node4</title>
<path fill="none" stroke="midnightblue" d="M297.792,-304.464C315.859,-301.763 335.674,-298.801 354.276,-296.021"/>
<polygon fill="midnightblue" stroke="midnightblue" points="354.797,-299.482 364.17,-294.542 353.763,-292.559 354.797,-299.482"/>
</g>
<!-- Node8 -->
<g id="node8" class="node"><title>Node8</title>
<g id="a_node8"><a xlink:href="../../dd/d87/classutil_1_1_console_reader.html#a6b469ca2ba9c0f0e52634a3affb2e9e5" target="_top" xlink:title="util.ConsoleReader.prompt\lOneOf">
<polygon fill="white" stroke="black" points="544.5,-153 544.5,-183 687.5,-183 687.5,-153 544.5,-153"/>
<text text-anchor="start" x="552.5" y="-171" font-family="Helvetica,sans-Serif" font-size="10.00">util.ConsoleReader.prompt</text>
<text text-anchor="middle" x="616" y="-160" font-family="Helvetica,sans-Serif" font-size="10.00">OneOf</text>
</a>
</g>
</g>
<!-- Node7&#45;&gt;Node8 -->
<g id="edge9" class="edge"><title>Node7&#45;&gt;Node8</title>
<path fill="none" stroke="midnightblue" d="M298.631,-163.018C363.587,-164.041 463.883,-165.62 534.087,-166.726"/>
<polygon fill="midnightblue" stroke="midnightblue" points="534.165,-170.227 544.219,-166.885 534.276,-163.228 534.165,-170.227"/>
</g>
<!-- Node7&#45;&gt;Node10 -->
<g id="edge11" class="edge"><title>Node7&#45;&gt;Node10</title>
<path fill="none" stroke="midnightblue" d="M282.954,-152.411C302.52,-148.579 325.574,-144.063 347.474,-139.773"/>
<polygon fill="midnightblue" stroke="midnightblue" points="348.298,-143.178 357.438,-137.821 346.952,-136.309 348.298,-143.178"/>
</g>
<!-- Node9 -->
<g id="node9" class="node"><title>Node9</title>
<g id="a_node9"><a xlink:href="../../dd/d87/classutil_1_1_console_reader.html#a1c9f3a0d6f36a1b8366df3c29c97f22a" target="_top" xlink:title="util.ConsoleReader.prompt\lString">
<polygon fill="white" stroke="black" points="730.5,-131 730.5,-161 873.5,-161 873.5,-131 730.5,-131"/>
<text text-anchor="start" x="738.5" y="-149" font-family="Helvetica,sans-Serif" font-size="10.00">util.ConsoleReader.prompt</text>
<text text-anchor="middle" x="802" y="-138" font-family="Helvetica,sans-Serif" font-size="10.00">String</text>
</a>
</g>
</g>
<!-- Node8&#45;&gt;Node9 -->
<g id="edge10" class="edge"><title>Node8&#45;&gt;Node9</title>
<path fill="none" stroke="midnightblue" d="M687.613,-159.557C698.321,-158.277 709.438,-156.948 720.339,-155.644"/>
<polygon fill="midnightblue" stroke="midnightblue" points="720.758,-159.119 730.272,-154.457 719.927,-152.169 720.758,-159.119"/>
</g>
<!-- Node11 -->
<g id="node11" class="node"><title>Node11</title>
<g id="a_node11"><a xlink:href="../../dd/d87/classutil_1_1_console_reader.html#a501aaaee9e742c28b8731598c964d82e" target="_top" xlink:title="util.ConsoleReader.promptInt">
<polygon fill="white" stroke="black" points="538.5,-114.5 538.5,-133.5 693.5,-133.5 693.5,-114.5 538.5,-114.5"/>
<text text-anchor="middle" x="616" y="-121.5" font-family="Helvetica,sans-Serif" font-size="10.00">util.ConsoleReader.promptInt</text>
</a>
</g>
</g>
<!-- Node10&#45;&gt;Node11 -->
<g id="edge12" class="edge"><title>Node10&#45;&gt;Node11</title>
<path fill="none" stroke="midnightblue" d="M500.732,-124C509.796,-124 519.156,-124 528.436,-124"/>
<polygon fill="midnightblue" stroke="midnightblue" points="528.456,-127.5 538.456,-124 528.456,-120.5 528.456,-127.5"/>
</g>
<!-- Node11&#45;&gt;Node9 -->
<g id="edge13" class="edge"><title>Node11&#45;&gt;Node9</title>
<path fill="none" stroke="midnightblue" d="M693.7,-133.171C702.418,-134.213 711.324,-135.278 720.094,-136.326"/>
<polygon fill="midnightblue" stroke="midnightblue" points="719.962,-139.835 730.306,-137.548 720.793,-132.885 719.962,-139.835"/>
</g>
<!-- Node12&#45;&gt;Node10 -->
<g id="edge16" class="edge"><title>Node12&#45;&gt;Node10</title>
<path fill="none" stroke="midnightblue" d="M282.954,-95.589C302.52,-99.4214 325.574,-103.937 347.474,-108.227"/>
<polygon fill="midnightblue" stroke="midnightblue" points="346.952,-111.691 357.438,-110.179 348.298,-104.822 346.952,-111.691"/>
</g>
<!-- Node13 -->
<g id="node13" class="node"><title>Node13</title>
<g id="a_node13"><a xlink:href="../../d1/daa/classroulette_1_1_bet.html#a0aec26450ea5aeb27412b75544b625ab" target="_top" xlink:title="roulette.Bet.getDescription">
<polygon fill="white" stroke="black" points="356,-70.5 356,-89.5 502,-89.5 502,-70.5 356,-70.5"/>
<text text-anchor="middle" x="429" y="-77.5" font-family="Helvetica,sans-Serif" font-size="10.00">roulette.Bet.getDescription</text>
</a>
</g>
</g>
<!-- Node12&#45;&gt;Node13 -->
<g id="edge15" class="edge"><title>Node12&#45;&gt;Node13</title>
<path fill="none" stroke="midnightblue" d="M311.231,-83.6114C322.476,-83.2636 334.092,-82.9044 345.437,-82.5535"/>
<polygon fill="midnightblue" stroke="midnightblue" points="345.876,-86.0417 355.763,-82.2341 345.659,-79.045 345.876,-86.0417"/>
</g>
</g>
</svg>
