<?xml version="1.0" encoding="UTF-8" standalone="no"?>
<!DOCTYPE svg PUBLIC "-//W3C//DTD SVG 1.1//EN"
 "http://www.w3.org/Graphics/SVG/1.1/DTD/svg11.dtd">
<!-- Generated by graphviz version 2.36.0 (20140111.2315)
 -->
<!-- Title: roulette.Game.promptForBet Pages: 1 -->
<svg width="718pt" height="77pt"
 viewBox="0.00 0.00 718.00 77.00" xmlns="http://www.w3.org/2000/svg" xmlns:xlink="http://www.w3.org/1999/xlink">
<g id="graph0" class="graph" transform="scale(1 1) rotate(0) translate(4 73)">
<title>roulette.Game.promptForBet</title>
<polygon fill="white" stroke="none" points="-4,4 -4,-73 714,-73 714,4 -4,4"/>
<!-- Node1 -->
<g id="node1" class="node"><title>Node1</title>
<polygon fill="#bfbfbf" stroke="black" points="0,-27.5 0,-46.5 156,-46.5 156,-27.5 0,-27.5"/>
<text text-anchor="middle" x="78" y="-34.5" font-family="Helvetica,sans-Serif" font-size="10.00">roulette.Game.promptForBet</text>
</g>
<!-- Node2 -->
<g id="node2" class="node"><title>Node2</title>
<g id="a_node2"><a xlink:href="../../d1/daa/classroulette_1_1_bet.html#a0aec26450ea5aeb27412b75544b625ab" target="_top" xlink:title="roulette.Bet.getDescription">
<polygon fill="white" stroke="black" points="192,-49.5 192,-68.5 338,-68.5 338,-49.5 192,-49.5"/>
<text text-anchor="middle" x="265" y="-56.5" font-family="Helvetica,sans-Serif" font-size="10.00">roulette.Bet.getDescription</text>
</a>
</g>
</g>
<!-- Node1&#45;&gt;Node2 -->
<g id="edge1" class="edge"><title>Node1&#45;&gt;Node2</title>
<path fill="none" stroke="midnightblue" d="M156.117,-46.1707C164.597,-47.1791 173.254,-48.2086 181.793,-49.2241"/>
<polygon fill="midnightblue" stroke="midnightblue" points="181.402,-52.7021 191.745,-50.4075 182.228,-45.7511 181.402,-52.7021"/>
</g>
<!-- Node3 -->
<g id="node3" class="node"><title>Node3</title>
<g id="a_node3"><a xlink:href="../../dd/d87/classutil_1_1_console_reader.html#ac25a6a9c672f8da0b7f37104d33a6cd5" target="_top" xlink:title="util.ConsoleReader.prompt\lRange">
<polygon fill="white" stroke="black" points="193.5,-0 193.5,-30 336.5,-30 336.5,-0 193.5,-0"/>
<text text-anchor="start" x="201.5" y="-18" font-family="Helvetica,sans-Serif" font-size="10.00">util.ConsoleReader.prompt</text>
<text text-anchor="middle" x="265" y="-7" font-family="Helvetica,sans-Serif" font-size="10.00">Range</text>
</a>
</g>
</g>
<!-- Node1&#45;&gt;Node3 -->
<g id="edge2" class="edge"><title>Node1&#45;&gt;Node3</title>
<path fill="none" stroke="midnightblue" d="M156.117,-27.8293C165.049,-26.7671 174.179,-25.6815 183.159,-24.6136"/>
<polygon fill="midnightblue" stroke="midnightblue" points="183.699,-28.074 193.216,-23.4176 182.873,-21.123 183.699,-28.074"/>
</g>
<!-- Node4 -->
<g id="node4" class="node"><title>Node4</title>
<g id="a_node4"><a xlink:href="../../dd/d87/classutil_1_1_console_reader.html#a501aaaee9e742c28b8731598c964d82e" target="_top" xlink:title="util.ConsoleReader.promptInt">
<polygon fill="white" stroke="black" points="374.5,-5.5 374.5,-24.5 529.5,-24.5 529.5,-5.5 374.5,-5.5"/>
<text text-anchor="middle" x="452" y="-12.5" font-family="Helvetica,sans-Serif" font-size="10.00">util.ConsoleReader.promptInt</text>
</a>
</g>
</g>
<!-- Node3&#45;&gt;Node4 -->
<g id="edge3" class="edge"><title>Node3&#45;&gt;Node4</title>
<path fill="none" stroke="midnightblue" d="M336.732,-15C345.796,-15 355.156,-15 364.436,-15"/>
<polygon fill="midnightblue" stroke="midnightblue" points="364.456,-18.5001 374.456,-15 364.456,-11.5001 364.456,-18.5001"/>
</g>
<!-- Node5 -->
<g id="node5" class="node"><title>Node5</title>
<g id="a_node5"><a xlink:href="../../dd/d87/classutil_1_1_console_reader.html#a1c9f3a0d6f36a1b8366df3c29c97f22a" target="_top" xlink:title="util.ConsoleReader.prompt\lString">
<polygon fill="white" stroke="black" points="566.5,-0 566.5,-30 709.5,-30 709.5,-0 566.5,-0"/>
<text text-anchor="start" x="574.5" y="-18" font-family="Helvetica,sans-Serif" font-size="10.00">util.ConsoleReader.prompt</text>
<text text-anchor="middle" x="638" y="-7" font-family="Helvetica,sans-Serif" font-size="10.00">String</text>
</a>
</g>
</g>
<!-- Node4&#45;&gt;Node5 -->
<g id="edge4" class="edge"><title>Node4&#45;&gt;Node5</title>
<path fill="none" stroke="midnightblue" d="M529.7,-15C538.418,-15 547.324,-15 556.094,-15"/>
<polygon fill="midnightblue" stroke="midnightblue" points="556.306,-18.5001 566.306,-15 556.306,-11.5001 556.306,-18.5001"/>
</g>
</g>
</svg>
