<?xml version="1.0" encoding="UTF-8" standalone="no"?>
<!DOCTYPE svg PUBLIC "-//W3C//DTD SVG 1.1//EN"
 "http://www.w3.org/Graphics/SVG/1.1/DTD/svg11.dtd">
<!-- Generated by graphviz version 2.36.0 (20140111.2315)
 -->
<!-- Title: roulette.Game.betIsMade Pages: 1 -->
<svg width="328pt" height="66pt"
 viewBox="0.00 0.00 328.00 66.00" xmlns="http://www.w3.org/2000/svg" xmlns:xlink="http://www.w3.org/1999/xlink">
<g id="graph0" class="graph" transform="scale(1 1) rotate(0) translate(4 62)">
<title>roulette.Game.betIsMade</title>
<polygon fill="white" stroke="none" points="-4,4 -4,-62 324,-62 324,4 -4,4"/>
<!-- Node1 -->
<g id="node1" class="node"><title>Node1</title>
<polygon fill="#bfbfbf" stroke="black" points="0.5,-19.5 0.5,-38.5 139.5,-38.5 139.5,-19.5 0.5,-19.5"/>
<text text-anchor="middle" x="70" y="-26.5" font-family="Helvetica,sans-Serif" font-size="10.00">roulette.Game.betIsMade</text>
</g>
<!-- Node2 -->
<g id="node2" class="node"><title>Node2</title>
<g id="a_node2"><a xlink:href="../../d6/d07/classroulette_1_1_wheel.html#af6699aa89a029f8b8900f0970db8cdaa" target="_top" xlink:title="roulette.Wheel.getColor">
<polygon fill="white" stroke="black" points="183.5,-38.5 183.5,-57.5 312.5,-57.5 312.5,-38.5 183.5,-38.5"/>
<text text-anchor="middle" x="248" y="-45.5" font-family="Helvetica,sans-Serif" font-size="10.00">roulette.Wheel.getColor</text>
</a>
</g>
</g>
<!-- Node1&#45;&gt;Node2 -->
<g id="edge1" class="edge"><title>Node1&#45;&gt;Node2</title>
<path fill="none" stroke="midnightblue" d="M139.55,-36.4003C150.561,-37.589 161.999,-38.8238 173.128,-40.0252"/>
<polygon fill="midnightblue" stroke="midnightblue" points="172.922,-43.5232 183.24,-41.1168 173.674,-36.5637 172.922,-43.5232"/>
</g>
<!-- Node3 -->
<g id="node3" class="node"><title>Node3</title>
<g id="a_node3"><a xlink:href="../../d6/d07/classroulette_1_1_wheel.html#ac4db6f5f5c751d9944b605c79e20db6a" target="_top" xlink:title="roulette.Wheel.getNumber">
<polygon fill="white" stroke="black" points="176.5,-0.5 176.5,-19.5 319.5,-19.5 319.5,-0.5 176.5,-0.5"/>
<text text-anchor="middle" x="248" y="-7.5" font-family="Helvetica,sans-Serif" font-size="10.00">roulette.Wheel.getNumber</text>
</a>
</g>
</g>
<!-- Node1&#45;&gt;Node3 -->
<g id="edge2" class="edge"><title>Node1&#45;&gt;Node3</title>
<path fill="none" stroke="midnightblue" d="M139.55,-21.5997C148.316,-20.6534 157.353,-19.6778 166.289,-18.7131"/>
<polygon fill="midnightblue" stroke="midnightblue" points="166.749,-22.1839 176.315,-17.6307 165.997,-15.2243 166.749,-22.1839"/>
</g>
</g>
</svg>
