<?xml version="1.0" encoding="UTF-8" standalone="no"?>
<!DOCTYPE svg PUBLIC "-//W3C//DTD SVG 1.1//EN"
 "http://www.w3.org/Graphics/SVG/1.1/DTD/svg11.dtd">
<!-- Generated by graphviz version 2.36.0 (20140111.2315)
 -->
<!-- Title: roulette.Game.play Pages: 1 -->
<svg width="882pt" height="370pt"
 viewBox="0.00 0.00 882.00 370.00" xmlns="http://www.w3.org/2000/svg" xmlns:xlink="http://www.w3.org/1999/xlink">
<g id="graph0" class="graph" transform="scale(1 1) rotate(0) translate(4 366)">
<title>roulette.Game.play</title>
<polygon fill="white" stroke="none" points="-4,4 -4,-366 878,-366 878,4 -4,4"/>
<!-- Node1 -->
<g id="node1" class="node"><title>Node1</title>
<polygon fill="#bfbfbf" stroke="black" points="0.5,-171.5 0.5,-190.5 109.5,-190.5 109.5,-171.5 0.5,-171.5"/>
<text text-anchor="middle" x="55" y="-178.5" font-family="Helvetica,sans-Serif" font-size="10.00">roulette.Game.play</text>
</g>
<!-- Node2 -->
<g id="node2" class="node"><title>Node2</title>
<g id="a_node2"><a xlink:href="../../d8/d06/classroulette_1_1_gambler.html#a63da3e4ca7ef7e43e03917df1c16dc12" target="_top" xlink:title="roulette.Gambler.getBankroll">
<polygon fill="white" stroke="black" points="155.5,-342.5 155.5,-361.5 310.5,-361.5 310.5,-342.5 155.5,-342.5"/>
<text text-anchor="middle" x="233" y="-349.5" font-family="Helvetica,sans-Serif" font-size="10.00">roulette.Gambler.getBankroll</text>
</a>
</g>
</g>
<!-- Node1&#45;&gt;Node2 -->
<g id="edge1" class="edge"><title>Node1&#45;&gt;Node2</title>
<path fill="none" stroke="midnightblue" d="M58.7377,-190.687C66.9522,-217.884 94.0891,-295.403 146,-333 148.663,-334.928 151.484,-336.667 154.42,-338.234"/>
<polygon fill="midnightblue" stroke="midnightblue" points="152.977,-341.422 163.523,-342.438 155.912,-335.067 152.977,-341.422"/>
</g>
<!-- Node3 -->
<g id="node3" class="node"><title>Node3</title>
<g id="a_node3"><a xlink:href="../../d6/d07/classroulette_1_1_wheel.html#af6699aa89a029f8b8900f0970db8cdaa" target="_top" xlink:title="roulette.Wheel.getColor">
<polygon fill="white" stroke="black" points="168.5,-304.5 168.5,-323.5 297.5,-323.5 297.5,-304.5 168.5,-304.5"/>
<text text-anchor="middle" x="233" y="-311.5" font-family="Helvetica,sans-Serif" font-size="10.00">roulette.Wheel.getColor</text>
</a>
</g>
</g>
<!-- Node1&#45;&gt;Node3 -->
<g id="edge2" class="edge"><title>Node1&#45;&gt;Node3</title>
<path fill="none" stroke="midnightblue" d="M60.7311,-190.797C72.0655,-213.154 103.057,-268.078 146,-295 150.077,-297.556 154.451,-299.77 158.988,-301.689"/>
<polygon fill="midnightblue" stroke="midnightblue" points="157.892,-305.016 168.485,-305.226 160.335,-298.456 157.892,-305.016"/>
</g>
<!-- Node4 -->
<g id="node4" class="node"><title>Node4</title>
<g id="a_node4"><a xlink:href="../../d6/d07/classroulette_1_1_wheel.html#ac4db6f5f5c751d9944b605c79e20db6a" target="_top" xlink:title="roulette.Wheel.getNumber">
<polygon fill="white" stroke="black" points="161.5,-266.5 161.5,-285.5 304.5,-285.5 304.5,-266.5 161.5,-266.5"/>
<text text-anchor="middle" x="233" y="-273.5" font-family="Helvetica,sans-Serif" font-size="10.00">roulette.Wheel.getNumber</text>
</a>
</g>
</g>
<!-- Node1&#45;&gt;Node4 -->
<g id="edge3" class="edge"><title>Node1&#45;&gt;Node4</title>
<path fill="none" stroke="midnightblue" d="M64.3822,-190.63C79.1544,-206.957 111.538,-239.954 146,-257 150.883,-259.415 156.072,-261.526 161.388,-263.371"/>
<polygon fill="midnightblue" stroke="midnightblue" points="160.464,-266.749 171.054,-266.411 162.565,-260.072 160.464,-266.749"/>
</g>
<!-- Node5 -->
<g id="node5" class="node"><title>Node5</title>
<g id="a_node5"><a xlink:href="../../d1/daa/classroulette_1_1_bet.html#a2a5088e88de8398d09c81a19e5ecfe96" target="_top" xlink:title="roulette.Bet.getOdds">
<polygon fill="white" stroke="black" points="174.5,-228.5 174.5,-247.5 291.5,-247.5 291.5,-228.5 174.5,-228.5"/>
<text text-anchor="middle" x="233" y="-235.5" font-family="Helvetica,sans-Serif" font-size="10.00">roulette.Bet.getOdds</text>
</a>
</g>
</g>
<!-- Node1&#45;&gt;Node5 -->
<g id="edge4" class="edge"><title>Node1&#45;&gt;Node5</title>
<path fill="none" stroke="midnightblue" d="M75.6253,-190.514C93.5996,-198.929 121.113,-211.07 146,-219 154.256,-221.631 163.072,-224.028 171.794,-226.166"/>
<polygon fill="midnightblue" stroke="midnightblue" points="171.032,-229.582 181.568,-228.469 172.637,-222.769 171.032,-229.582"/>
</g>
<!-- Node6 -->
<g id="node6" class="node"><title>Node6</title>
<g id="a_node6"><a xlink:href="../../d1/daa/classroulette_1_1_bet.html#ae8e824d4e16b7154b483f8d3bb4e9935" target="_top" xlink:title="roulette.Bet.isMade">
<polygon fill="white" stroke="black" points="178,-190.5 178,-209.5 288,-209.5 288,-190.5 178,-190.5"/>
<text text-anchor="middle" x="233" y="-197.5" font-family="Helvetica,sans-Serif" font-size="10.00">roulette.Bet.isMade</text>
</a>
</g>
</g>
<!-- Node1&#45;&gt;Node6 -->
<g id="edge5" class="edge"><title>Node1&#45;&gt;Node6</title>
<path fill="none" stroke="midnightblue" d="M109.762,-186.804C128.1,-188.784 148.787,-191.017 167.858,-193.076"/>
<polygon fill="midnightblue" stroke="midnightblue" points="167.643,-196.573 177.961,-194.166 168.394,-189.613 167.643,-196.573"/>
</g>
<!-- Node7 -->
<g id="node7" class="node"><title>Node7</title>
<g id="a_node7"><a xlink:href="../../d1/daa/classroulette_1_1_bet.html#abf81fc396eb458983b1c62e0c5140770" target="_top" xlink:title="roulette.Bet.place">
<polygon fill="white" stroke="black" points="182,-152.5 182,-171.5 284,-171.5 284,-152.5 182,-152.5"/>
<text text-anchor="middle" x="233" y="-159.5" font-family="Helvetica,sans-Serif" font-size="10.00">roulette.Bet.place</text>
</a>
</g>
</g>
<!-- Node1&#45;&gt;Node7 -->
<g id="edge6" class="edge"><title>Node1&#45;&gt;Node7</title>
<path fill="none" stroke="midnightblue" d="M109.762,-175.196C129.393,-173.077 151.717,-170.667 171.867,-168.492"/>
<polygon fill="midnightblue" stroke="midnightblue" points="172.304,-171.965 181.871,-167.412 171.553,-165.005 172.304,-171.965"/>
</g>
<!-- Node8 -->
<g id="node8" class="node"><title>Node8</title>
<g id="a_node8"><a xlink:href="../../d5/d79/classroulette_1_1_game.html#a49ce7e2f4634c106573e87aea20e1663" target="_top" xlink:title="roulette.Game.promptForBet">
<polygon fill="white" stroke="black" points="155,-114.5 155,-133.5 311,-133.5 311,-114.5 155,-114.5"/>
<text text-anchor="middle" x="233" y="-121.5" font-family="Helvetica,sans-Serif" font-size="10.00">roulette.Game.promptForBet</text>
</a>
</g>
</g>
<!-- Node1&#45;&gt;Node8 -->
<g id="edge7" class="edge"><title>Node1&#45;&gt;Node8</title>
<path fill="none" stroke="midnightblue" d="M75.6253,-171.486C93.5996,-163.071 121.113,-150.93 146,-143 154.256,-140.369 163.072,-137.972 171.794,-135.834"/>
<polygon fill="midnightblue" stroke="midnightblue" points="172.637,-139.231 181.568,-133.531 171.032,-132.418 172.637,-139.231"/>
</g>
<!-- Node10 -->
<g id="node10" class="node"><title>Node10</title>
<g id="a_node10"><a xlink:href="../../dd/d87/classutil_1_1_console_reader.html#ac25a6a9c672f8da0b7f37104d33a6cd5" target="_top" xlink:title="util.ConsoleReader.prompt\lRange">
<polygon fill="white" stroke="black" points="357.5,-71 357.5,-101 500.5,-101 500.5,-71 357.5,-71"/>
<text text-anchor="start" x="365.5" y="-89" font-family="Helvetica,sans-Serif" font-size="10.00">util.ConsoleReader.prompt</text>
<text text-anchor="middle" x="429" y="-78" font-family="Helvetica,sans-Serif" font-size="10.00">Range</text>
</a>
</g>
</g>
<!-- Node1&#45;&gt;Node10 -->
<g id="edge12" class="edge"><title>Node1&#45;&gt;Node10</title>
<path fill="none" stroke="midnightblue" d="M63.6787,-171.355C77.8499,-154.375 109.977,-119.567 146,-105 210.05,-79.1004 288.947,-75.9424 346.986,-78.3451"/>
<polygon fill="midnightblue" stroke="midnightblue" points="347.051,-81.8522 357.207,-78.8343 347.386,-74.8602 347.051,-81.8522"/>
</g>
<!-- Node13 -->
<g id="node13" class="node"><title>Node13</title>
<g id="a_node13"><a xlink:href="../../d6/d07/classroulette_1_1_wheel.html#a27fab03e8b4d589c03199ac774c06ffa" target="_top" xlink:title="roulette.Wheel.spin">
<polygon fill="white" stroke="black" points="179,-38.5 179,-57.5 287,-57.5 287,-38.5 179,-38.5"/>
<text text-anchor="middle" x="233" y="-45.5" font-family="Helvetica,sans-Serif" font-size="10.00">roulette.Wheel.spin</text>
</a>
</g>
</g>
<!-- Node1&#45;&gt;Node13 -->
<g id="edge13" class="edge"><title>Node1&#45;&gt;Node13</title>
<path fill="none" stroke="midnightblue" d="M61.1282,-171.474C73.0643,-150.231 104.848,-98.7484 146,-72 153.1,-67.3854 161.085,-63.6474 169.255,-60.622"/>
<polygon fill="midnightblue" stroke="midnightblue" points="170.522,-63.8885 178.888,-57.3879 168.294,-57.2525 170.522,-63.8885"/>
</g>
<!-- Node14 -->
<g id="node14" class="node"><title>Node14</title>
<g id="a_node14"><a xlink:href="../../d8/d06/classroulette_1_1_gambler.html#a5bd476cef22a22e8711d9d3f7acbd8b2" target="_top" xlink:title="roulette.Gambler.updateBankroll">
<polygon fill="white" stroke="black" points="146.5,-0.5 146.5,-19.5 319.5,-19.5 319.5,-0.5 146.5,-0.5"/>
<text text-anchor="middle" x="233" y="-7.5" font-family="Helvetica,sans-Serif" font-size="10.00">roulette.Gambler.updateBankroll</text>
</a>
</g>
</g>
<!-- Node1&#45;&gt;Node14 -->
<g id="edge14" class="edge"><title>Node1&#45;&gt;Node14</title>
<path fill="none" stroke="midnightblue" d="M58.7377,-171.313C66.9522,-144.116 94.0891,-66.5967 146,-29 148.663,-27.0717 151.484,-25.3332 154.42,-23.7663"/>
<polygon fill="midnightblue" stroke="midnightblue" points="155.912,-26.9326 163.523,-19.5622 152.977,-20.5776 155.912,-26.9326"/>
</g>
<!-- Node9 -->
<g id="node9" class="node"><title>Node9</title>
<g id="a_node9"><a xlink:href="../../d1/daa/classroulette_1_1_bet.html#a0aec26450ea5aeb27412b75544b625ab" target="_top" xlink:title="roulette.Bet.getDescription">
<polygon fill="white" stroke="black" points="356,-120.5 356,-139.5 502,-139.5 502,-120.5 356,-120.5"/>
<text text-anchor="middle" x="429" y="-127.5" font-family="Helvetica,sans-Serif" font-size="10.00">roulette.Bet.getDescription</text>
</a>
</g>
</g>
<!-- Node8&#45;&gt;Node9 -->
<g id="edge8" class="edge"><title>Node8&#45;&gt;Node9</title>
<path fill="none" stroke="midnightblue" d="M311.231,-126.389C322.476,-126.736 334.092,-127.096 345.437,-127.447"/>
<polygon fill="midnightblue" stroke="midnightblue" points="345.659,-130.955 355.763,-127.766 345.876,-123.958 345.659,-130.955"/>
</g>
<!-- Node8&#45;&gt;Node10 -->
<g id="edge9" class="edge"><title>Node8&#45;&gt;Node10</title>
<path fill="none" stroke="midnightblue" d="M282.954,-114.411C302.52,-110.579 325.574,-106.063 347.474,-101.773"/>
<polygon fill="midnightblue" stroke="midnightblue" points="348.298,-105.178 357.438,-99.8213 346.952,-98.3089 348.298,-105.178"/>
</g>
<!-- Node11 -->
<g id="node11" class="node"><title>Node11</title>
<g id="a_node11"><a xlink:href="../../dd/d87/classutil_1_1_console_reader.html#a501aaaee9e742c28b8731598c964d82e" target="_top" xlink:title="util.ConsoleReader.promptInt">
<polygon fill="white" stroke="black" points="538.5,-76.5 538.5,-95.5 693.5,-95.5 693.5,-76.5 538.5,-76.5"/>
<text text-anchor="middle" x="616" y="-83.5" font-family="Helvetica,sans-Serif" font-size="10.00">util.ConsoleReader.promptInt</text>
</a>
</g>
</g>
<!-- Node10&#45;&gt;Node11 -->
<g id="edge10" class="edge"><title>Node10&#45;&gt;Node11</title>
<path fill="none" stroke="midnightblue" d="M500.732,-86C509.796,-86 519.156,-86 528.436,-86"/>
<polygon fill="midnightblue" stroke="midnightblue" points="528.456,-89.5001 538.456,-86 528.456,-82.5001 528.456,-89.5001"/>
</g>
<!-- Node12 -->
<g id="node12" class="node"><title>Node12</title>
<g id="a_node12"><a xlink:href="../../dd/d87/classutil_1_1_console_reader.html#a1c9f3a0d6f36a1b8366df3c29c97f22a" target="_top" xlink:title="util.ConsoleReader.prompt\lString">
<polygon fill="white" stroke="black" points="730.5,-71 730.5,-101 873.5,-101 873.5,-71 730.5,-71"/>
<text text-anchor="start" x="738.5" y="-89" font-family="Helvetica,sans-Serif" font-size="10.00">util.ConsoleReader.prompt</text>
<text text-anchor="middle" x="802" y="-78" font-family="Helvetica,sans-Serif" font-size="10.00">String</text>
</a>
</g>
</g>
<!-- Node11&#45;&gt;Node12 -->
<g id="edge11" class="edge"><title>Node11&#45;&gt;Node12</title>
<path fill="none" stroke="midnightblue" d="M693.7,-86C702.418,-86 711.324,-86 720.094,-86"/>
<polygon fill="midnightblue" stroke="midnightblue" points="720.306,-89.5001 730.306,-86 720.306,-82.5001 720.306,-89.5001"/>
</g>
</g>
</svg>
