<?xml version="1.0" encoding="UTF-8" standalone="no"?>
<!DOCTYPE svg PUBLIC "-//W3C//DTD SVG 1.1//EN"
 "http://www.w3.org/Graphics/SVG/1.1/DTD/svg11.dtd">
<!-- Generated by graphviz version 2.36.0 (20140111.2315)
 -->
<!-- Title: roulette.Game.play Pages: 1 -->
<svg width="880pt" height="294pt"
 viewBox="0.00 0.00 880.00 294.00" xmlns="http://www.w3.org/2000/svg" xmlns:xlink="http://www.w3.org/1999/xlink">
<g id="graph0" class="graph" transform="scale(1 1) rotate(0) translate(4 290)">
<title>roulette.Game.play</title>
<polygon fill="white" stroke="none" points="-4,4 -4,-290 876,-290 876,4 -4,4"/>
<!-- Node1 -->
<g id="node1" class="node"><title>Node1</title>
<polygon fill="#bfbfbf" stroke="black" points="0.5,-133.5 0.5,-152.5 109.5,-152.5 109.5,-133.5 0.5,-133.5"/>
<text text-anchor="middle" x="55" y="-140.5" font-family="Helvetica,sans-Serif" font-size="10.00">roulette.Game.play</text>
</g>
<!-- Node2 -->
<g id="node2" class="node"><title>Node2</title>
<g id="a_node2"><a xlink:href="../../d8/d06/classroulette_1_1_gambler.html#a63da3e4ca7ef7e43e03917df1c16dc12" target="_top" xlink:title="roulette.Gambler.getBankroll">
<polygon fill="white" stroke="black" points="155.5,-266.5 155.5,-285.5 310.5,-285.5 310.5,-266.5 155.5,-266.5"/>
<text text-anchor="middle" x="233" y="-273.5" font-family="Helvetica,sans-Serif" font-size="10.00">roulette.Gambler.getBankroll</text>
</a>
</g>
</g>
<!-- Node1&#45;&gt;Node2 -->
<g id="edge1" class="edge"><title>Node1&#45;&gt;Node2</title>
<path fill="none" stroke="midnightblue" d="M60.7311,-152.797C72.0655,-175.154 103.057,-230.078 146,-257 149.401,-259.132 153.008,-261.026 156.745,-262.71"/>
<polygon fill="midnightblue" stroke="midnightblue" points="155.666,-266.047 166.252,-266.474 158.243,-259.539 155.666,-266.047"/>
</g>
<!-- Node3 -->
<g id="node3" class="node"><title>Node3</title>
<g id="a_node3"><a xlink:href="../../d1/daa/classroulette_1_1_bet.html#ab4b9a3a30743f495599154f90afb341d" target="_top" xlink:title="roulette.Bet.isMade">
<polygon fill="white" stroke="black" points="178,-228.5 178,-247.5 288,-247.5 288,-228.5 178,-228.5"/>
<text text-anchor="middle" x="233" y="-235.5" font-family="Helvetica,sans-Serif" font-size="10.00">roulette.Bet.isMade</text>
</a>
</g>
</g>
<!-- Node1&#45;&gt;Node3 -->
<g id="edge2" class="edge"><title>Node1&#45;&gt;Node3</title>
<path fill="none" stroke="midnightblue" d="M64.3822,-152.63C79.1544,-168.957 111.538,-201.954 146,-219 152.938,-222.432 160.496,-225.25 168.156,-227.562"/>
<polygon fill="midnightblue" stroke="midnightblue" points="167.305,-230.958 177.875,-230.228 169.158,-224.207 167.305,-230.958"/>
</g>
<!-- Node4 -->
<g id="node4" class="node"><title>Node4</title>
<g id="a_node4"><a xlink:href="../../d1/daa/classroulette_1_1_bet.html#a6c8237392f01576f85bc5167f5b71a90" target="_top" xlink:title="roulette.Bet.payout">
<polygon fill="white" stroke="black" points="178,-190.5 178,-209.5 288,-209.5 288,-190.5 178,-190.5"/>
<text text-anchor="middle" x="233" y="-197.5" font-family="Helvetica,sans-Serif" font-size="10.00">roulette.Bet.payout</text>
</a>
</g>
</g>
<!-- Node1&#45;&gt;Node4 -->
<g id="edge3" class="edge"><title>Node1&#45;&gt;Node4</title>
<path fill="none" stroke="midnightblue" d="M75.6253,-152.514C93.5996,-160.929 121.113,-173.07 146,-181 154.256,-183.631 163.072,-186.028 171.794,-188.166"/>
<polygon fill="midnightblue" stroke="midnightblue" points="171.032,-191.582 181.568,-190.469 172.637,-184.769 171.032,-191.582"/>
</g>
<!-- Node5 -->
<g id="node5" class="node"><title>Node5</title>
<g id="a_node5"><a xlink:href="../../d1/daa/classroulette_1_1_bet.html#a0462c7b5cf52a165ca013bf826d56a6c" target="_top" xlink:title="roulette.Bet.place">
<polygon fill="white" stroke="black" points="182,-152.5 182,-171.5 284,-171.5 284,-152.5 182,-152.5"/>
<text text-anchor="middle" x="233" y="-159.5" font-family="Helvetica,sans-Serif" font-size="10.00">roulette.Bet.place</text>
</a>
</g>
</g>
<!-- Node1&#45;&gt;Node5 -->
<g id="edge4" class="edge"><title>Node1&#45;&gt;Node5</title>
<path fill="none" stroke="midnightblue" d="M109.762,-148.804C129.393,-150.923 151.717,-153.333 171.867,-155.508"/>
<polygon fill="midnightblue" stroke="midnightblue" points="171.553,-158.995 181.871,-156.588 172.304,-152.035 171.553,-158.995"/>
</g>
<!-- Node6 -->
<g id="node6" class="node"><title>Node6</title>
<g id="a_node6"><a xlink:href="../../d5/d79/classroulette_1_1_game.html#a49ce7e2f4634c106573e87aea20e1663" target="_top" xlink:title="roulette.Game.promptForBet">
<polygon fill="white" stroke="black" points="155,-114.5 155,-133.5 311,-133.5 311,-114.5 155,-114.5"/>
<text text-anchor="middle" x="233" y="-121.5" font-family="Helvetica,sans-Serif" font-size="10.00">roulette.Game.promptForBet</text>
</a>
</g>
</g>
<!-- Node1&#45;&gt;Node6 -->
<g id="edge5" class="edge"><title>Node1&#45;&gt;Node6</title>
<path fill="none" stroke="midnightblue" d="M109.762,-137.196C120.898,-135.994 132.9,-134.698 144.881,-133.405"/>
<polygon fill="midnightblue" stroke="midnightblue" points="145.353,-136.874 154.92,-132.321 144.602,-129.915 145.353,-136.874"/>
</g>
<!-- Node7 -->
<g id="node7" class="node"><title>Node7</title>
<g id="a_node7"><a xlink:href="../../dd/d87/classutil_1_1_console_reader.html#ac25a6a9c672f8da0b7f37104d33a6cd5" target="_top" xlink:title="util.ConsoleReader.prompt\lRange">
<polygon fill="white" stroke="black" points="356.5,-93 356.5,-123 499.5,-123 499.5,-93 356.5,-93"/>
<text text-anchor="start" x="364.5" y="-111" font-family="Helvetica,sans-Serif" font-size="10.00">util.ConsoleReader.prompt</text>
<text text-anchor="middle" x="428" y="-100" font-family="Helvetica,sans-Serif" font-size="10.00">Range</text>
</a>
</g>
</g>
<!-- Node1&#45;&gt;Node7 -->
<g id="edge9" class="edge"><title>Node1&#45;&gt;Node7</title>
<path fill="none" stroke="midnightblue" d="M72.9263,-133.423C90.5393,-124.051 119.236,-110.419 146,-105 212.536,-91.5293 289.759,-93.5886 346.394,-98.2752"/>
<polygon fill="midnightblue" stroke="midnightblue" points="346.1,-101.763 356.366,-99.145 346.708,-94.7892 346.1,-101.763"/>
</g>
<!-- Node10 -->
<g id="node10" class="node"><title>Node10</title>
<g id="a_node10"><a xlink:href="../../d6/d07/classroulette_1_1_wheel.html#a554d8a363350e9dcfc3821556b2dee0e" target="_top" xlink:title="roulette.Wheel.spin">
<polygon fill="white" stroke="black" points="179,-38.5 179,-57.5 287,-57.5 287,-38.5 179,-38.5"/>
<text text-anchor="middle" x="233" y="-45.5" font-family="Helvetica,sans-Serif" font-size="10.00">roulette.Wheel.spin</text>
</a>
</g>
</g>
<!-- Node1&#45;&gt;Node10 -->
<g id="edge10" class="edge"><title>Node1&#45;&gt;Node10</title>
<path fill="none" stroke="midnightblue" d="M65.6054,-133.246C81.1414,-118.008 113.352,-88.5856 146,-72 155.018,-67.419 165.025,-63.614 174.933,-60.4872"/>
<polygon fill="midnightblue" stroke="midnightblue" points="176.167,-63.7721 184.766,-57.5827 174.184,-57.0588 176.167,-63.7721"/>
</g>
<!-- Node13 -->
<g id="node13" class="node"><title>Node13</title>
<g id="a_node13"><a xlink:href="../../d8/d06/classroulette_1_1_gambler.html#a5bd476cef22a22e8711d9d3f7acbd8b2" target="_top" xlink:title="roulette.Gambler.updateBankroll">
<polygon fill="white" stroke="black" points="146.5,-0.5 146.5,-19.5 319.5,-19.5 319.5,-0.5 146.5,-0.5"/>
<text text-anchor="middle" x="233" y="-7.5" font-family="Helvetica,sans-Serif" font-size="10.00">roulette.Gambler.updateBankroll</text>
</a>
</g>
</g>
<!-- Node1&#45;&gt;Node13 -->
<g id="edge13" class="edge"><title>Node1&#45;&gt;Node13</title>
<path fill="none" stroke="midnightblue" d="M60.7311,-133.203C72.0655,-110.846 103.057,-55.9216 146,-29 149.401,-26.868 153.008,-24.9735 156.745,-23.2902"/>
<polygon fill="midnightblue" stroke="midnightblue" points="158.243,-26.4614 166.252,-19.5258 155.666,-19.9529 158.243,-26.4614"/>
</g>
<!-- Node6&#45;&gt;Node7 -->
<g id="edge6" class="edge"><title>Node6&#45;&gt;Node7</title>
<path fill="none" stroke="midnightblue" d="M311.111,-117.607C322.642,-116.651 334.559,-115.663 346.165,-114.701"/>
<polygon fill="midnightblue" stroke="midnightblue" points="346.591,-118.178 356.267,-113.864 346.012,-111.202 346.591,-118.178"/>
</g>
<!-- Node8 -->
<g id="node8" class="node"><title>Node8</title>
<g id="a_node8"><a xlink:href="../../dd/d87/classutil_1_1_console_reader.html#a501aaaee9e742c28b8731598c964d82e" target="_top" xlink:title="util.ConsoleReader.promptInt">
<polygon fill="white" stroke="black" points="536.5,-98.5 536.5,-117.5 691.5,-117.5 691.5,-98.5 536.5,-98.5"/>
<text text-anchor="middle" x="614" y="-105.5" font-family="Helvetica,sans-Serif" font-size="10.00">util.ConsoleReader.promptInt</text>
</a>
</g>
</g>
<!-- Node7&#45;&gt;Node8 -->
<g id="edge7" class="edge"><title>Node7&#45;&gt;Node8</title>
<path fill="none" stroke="midnightblue" d="M499.613,-108C508.375,-108 517.412,-108 526.38,-108"/>
<polygon fill="midnightblue" stroke="midnightblue" points="526.458,-111.5 536.458,-108 526.458,-104.5 526.458,-111.5"/>
</g>
<!-- Node9 -->
<g id="node9" class="node"><title>Node9</title>
<g id="a_node9"><a xlink:href="../../dd/d87/classutil_1_1_console_reader.html#a1c9f3a0d6f36a1b8366df3c29c97f22a" target="_top" xlink:title="util.ConsoleReader.prompt\lString">
<polygon fill="white" stroke="black" points="728.5,-93 728.5,-123 871.5,-123 871.5,-93 728.5,-93"/>
<text text-anchor="start" x="736.5" y="-111" font-family="Helvetica,sans-Serif" font-size="10.00">util.ConsoleReader.prompt</text>
<text text-anchor="middle" x="800" y="-100" font-family="Helvetica,sans-Serif" font-size="10.00">String</text>
</a>
</g>
</g>
<!-- Node8&#45;&gt;Node9 -->
<g id="edge8" class="edge"><title>Node8&#45;&gt;Node9</title>
<path fill="none" stroke="midnightblue" d="M691.7,-108C700.418,-108 709.324,-108 718.094,-108"/>
<polygon fill="midnightblue" stroke="midnightblue" points="718.306,-111.5 728.306,-108 718.306,-104.5 718.306,-111.5"/>
</g>
<!-- Node11 -->
<g id="node11" class="node"><title>Node11</title>
<g id="a_node11"><a xlink:href="../../d6/d07/classroulette_1_1_wheel.html#af6699aa89a029f8b8900f0970db8cdaa" target="_top" xlink:title="roulette.Wheel.getColor">
<polygon fill="white" stroke="black" points="363.5,-46.5 363.5,-65.5 492.5,-65.5 492.5,-46.5 363.5,-46.5"/>
<text text-anchor="middle" x="428" y="-53.5" font-family="Helvetica,sans-Serif" font-size="10.00">roulette.Wheel.getColor</text>
</a>
</g>
</g>
<!-- Node10&#45;&gt;Node11 -->
<g id="edge11" class="edge"><title>Node10&#45;&gt;Node11</title>
<path fill="none" stroke="midnightblue" d="M287.249,-50.2072C307.573,-51.0497 331.124,-52.0259 353.033,-52.934"/>
<polygon fill="midnightblue" stroke="midnightblue" points="353.164,-56.4423 363.3,-53.3596 353.454,-49.4483 353.164,-56.4423"/>
</g>
<!-- Node12 -->
<g id="node12" class="node"><title>Node12</title>
<g id="a_node12"><a xlink:href="../../d6/d07/classroulette_1_1_wheel.html#ac4db6f5f5c751d9944b605c79e20db6a" target="_top" xlink:title="roulette.Wheel.getNumber">
<polygon fill="white" stroke="black" points="356.5,-8.5 356.5,-27.5 499.5,-27.5 499.5,-8.5 356.5,-8.5"/>
<text text-anchor="middle" x="428" y="-15.5" font-family="Helvetica,sans-Serif" font-size="10.00">roulette.Wheel.getNumber</text>
</a>
</g>
</g>
<!-- Node10&#45;&gt;Node12 -->
<g id="edge12" class="edge"><title>Node10&#45;&gt;Node12</title>
<path fill="none" stroke="midnightblue" d="M287.249,-39.723C308.437,-36.4295 333.133,-32.5908 355.819,-29.0644"/>
<polygon fill="midnightblue" stroke="midnightblue" points="356.397,-32.5166 365.741,-27.5221 355.322,-25.5997 356.397,-32.5166"/>
</g>
</g>
</svg>
