<?xml version="1.0" encoding="UTF-8" standalone="no"?>
<!DOCTYPE svg PUBLIC "-//W3C//DTD SVG 1.1//EN"
 "http://www.w3.org/Graphics/SVG/1.1/DTD/svg11.dtd">
<!-- Generated by graphviz version 2.36.0 (20140111.2315)
 -->
<!-- Title: roulette.Game.placeBet Pages: 1 -->
<svg width="692pt" height="82pt"
 viewBox="0.00 0.00 692.00 82.00" xmlns="http://www.w3.org/2000/svg" xmlns:xlink="http://www.w3.org/1999/xlink">
<g id="graph0" class="graph" transform="scale(1 1) rotate(0) translate(4 78)">
<title>roulette.Game.placeBet</title>
<polygon fill="white" stroke="none" points="-4,4 -4,-78 688,-78 688,4 -4,4"/>
<!-- Node1 -->
<g id="node1" class="node"><title>Node1</title>
<polygon fill="#bfbfbf" stroke="black" points="0.5,-27.5 0.5,-46.5 131.5,-46.5 131.5,-27.5 0.5,-27.5"/>
<text text-anchor="middle" x="66" y="-34.5" font-family="Helvetica,sans-Serif" font-size="10.00">roulette.Game.placeBet</text>
</g>
<!-- Node2 -->
<g id="node2" class="node"><title>Node2</title>
<g id="a_node2"><a xlink:href="../../dd/d87/classutil_1_1_console_reader.html#a6b469ca2ba9c0f0e52634a3affb2e9e5" target="_top" xlink:title="util.ConsoleReader.prompt\lOneOf">
<polygon fill="white" stroke="black" points="354.5,-44 354.5,-74 497.5,-74 497.5,-44 354.5,-44"/>
<text text-anchor="start" x="362.5" y="-62" font-family="Helvetica,sans-Serif" font-size="10.00">util.ConsoleReader.prompt</text>
<text text-anchor="middle" x="426" y="-51" font-family="Helvetica,sans-Serif" font-size="10.00">OneOf</text>
</a>
</g>
</g>
<!-- Node1&#45;&gt;Node2 -->
<g id="edge1" class="edge"><title>Node1&#45;&gt;Node2</title>
<path fill="none" stroke="midnightblue" d="M131.831,-40.984C191.41,-44.6453 279.949,-50.0863 344.13,-54.0303"/>
<polygon fill="midnightblue" stroke="midnightblue" points="344.017,-57.5299 354.213,-54.65 344.447,-50.5431 344.017,-57.5299"/>
</g>
<!-- Node4 -->
<g id="node4" class="node"><title>Node4</title>
<g id="a_node4"><a xlink:href="../../dd/d87/classutil_1_1_console_reader.html#ac25a6a9c672f8da0b7f37104d33a6cd5" target="_top" xlink:title="util.ConsoleReader.prompt\lRange">
<polygon fill="white" stroke="black" points="168.5,-0 168.5,-30 311.5,-30 311.5,-0 168.5,-0"/>
<text text-anchor="start" x="176.5" y="-18" font-family="Helvetica,sans-Serif" font-size="10.00">util.ConsoleReader.prompt</text>
<text text-anchor="middle" x="240" y="-7" font-family="Helvetica,sans-Serif" font-size="10.00">Range</text>
</a>
</g>
</g>
<!-- Node1&#45;&gt;Node4 -->
<g id="edge3" class="edge"><title>Node1&#45;&gt;Node4</title>
<path fill="none" stroke="midnightblue" d="M131.536,-28.7454C140.262,-27.6292 149.304,-26.4727 158.269,-25.3261"/>
<polygon fill="midnightblue" stroke="midnightblue" points="158.862,-28.7788 168.337,-24.0383 157.974,-21.8354 158.862,-28.7788"/>
</g>
<!-- Node3 -->
<g id="node3" class="node"><title>Node3</title>
<g id="a_node3"><a xlink:href="../../dd/d87/classutil_1_1_console_reader.html#a1c9f3a0d6f36a1b8366df3c29c97f22a" target="_top" xlink:title="util.ConsoleReader.prompt\lString">
<polygon fill="white" stroke="black" points="540.5,-22 540.5,-52 683.5,-52 683.5,-22 540.5,-22"/>
<text text-anchor="start" x="548.5" y="-40" font-family="Helvetica,sans-Serif" font-size="10.00">util.ConsoleReader.prompt</text>
<text text-anchor="middle" x="612" y="-29" font-family="Helvetica,sans-Serif" font-size="10.00">String</text>
</a>
</g>
</g>
<!-- Node2&#45;&gt;Node3 -->
<g id="edge2" class="edge"><title>Node2&#45;&gt;Node3</title>
<path fill="none" stroke="midnightblue" d="M497.613,-50.5571C508.321,-49.2769 519.438,-47.9477 530.339,-46.6442"/>
<polygon fill="midnightblue" stroke="midnightblue" points="530.758,-50.1191 540.272,-45.4566 529.927,-43.1686 530.758,-50.1191"/>
</g>
<!-- Node5 -->
<g id="node5" class="node"><title>Node5</title>
<g id="a_node5"><a xlink:href="../../dd/d87/classutil_1_1_console_reader.html#a501aaaee9e742c28b8731598c964d82e" target="_top" xlink:title="util.ConsoleReader.promptInt">
<polygon fill="white" stroke="black" points="348.5,-5.5 348.5,-24.5 503.5,-24.5 503.5,-5.5 348.5,-5.5"/>
<text text-anchor="middle" x="426" y="-12.5" font-family="Helvetica,sans-Serif" font-size="10.00">util.ConsoleReader.promptInt</text>
</a>
</g>
</g>
<!-- Node4&#45;&gt;Node5 -->
<g id="edge4" class="edge"><title>Node4&#45;&gt;Node5</title>
<path fill="none" stroke="midnightblue" d="M311.613,-15C320.375,-15 329.412,-15 338.38,-15"/>
<polygon fill="midnightblue" stroke="midnightblue" points="338.458,-18.5001 348.458,-15 338.458,-11.5001 338.458,-18.5001"/>
</g>
<!-- Node5&#45;&gt;Node3 -->
<g id="edge5" class="edge"><title>Node5&#45;&gt;Node3</title>
<path fill="none" stroke="midnightblue" d="M503.7,-24.1707C512.418,-25.213 521.324,-26.2779 530.094,-27.3264"/>
<polygon fill="midnightblue" stroke="midnightblue" points="529.962,-30.8355 540.306,-28.5475 530.793,-23.885 529.962,-30.8355"/>
</g>
</g>
</svg>
